999
"DXF R12 Output" (www.mydxf.blogspot.com)
 0 
SECTION
 2 
HEADER
 9 
$ACADVER
 1 
AC1009
 9 
$EXTMIN
 10 
 0 
 20 
 0 
 9 
$EXTMAX
 10 
 8.5 
 20 
 11 
 0 
ENDSEC
 0 
SECTION
 2 
ENTITIES
0
LINE
8
Layer 1
10
453.845000
20
214.171000
11
450.870000
21
217.642000
0
LINE
8
Layer 1
10
450.870000
20
217.642000
11
435.297000
21
210.390000
0
LINE
8
Layer 1
10
435.297000
20
210.390000
11
453.845000
21
214.171000
0
LINE
8
Layer 1
10
450.869000
20
217.640000
11
443.431400
21
241.403400
0
LINE
8
Layer 1
10
443.431400
20
241.403400
11
435.296360
21
210.388300
0
LINE
8
Layer 1
10
435.296360
20
210.388300
11
450.869000
21
217.640000
0
LINE
8
Layer 1
10
469.948000
20
197.225000
11
453.845000
21
214.171000
0
LINE
8
Layer 1
10
453.845000
20
214.171000
11
446.795000
21
200.327000
0
LINE
8
Layer 1
10
446.795000
20
200.327000
11
469.948000
21
197.225000
0
LINE
8
Layer 1
10
474.528000
20
214.251000
11
453.844000
21
214.172000
0
LINE
8
Layer 1
10
453.844000
20
214.172000
11
469.946000
21
197.226000
0
LINE
8
Layer 1
10
469.946000
20
197.226000
11
474.528000
21
214.251000
0
LINE
8
Layer 1
10
446.794000
20
200.326000
11
453.845000
21
214.170000
0
LINE
8
Layer 1
10
453.845000
20
214.170000
11
435.297000
21
210.389000
0
LINE
8
Layer 1
10
435.297000
20
210.389000
11
446.794000
21
200.326000
0
LINE
8
Layer 1
10
480.026000
20
303.622000
11
479.947000
21
334.465000
0
LINE
8
Layer 1
10
479.947000
20
334.465000
11
469.465000
21
306.300000
0
LINE
8
Layer 1
10
469.465000
20
306.300000
11
480.026000
21
303.622000
0
LINE
8
Layer 1
10
443.431000
20
241.405000
11
463.513000
21
257.805000
0
LINE
8
Layer 1
10
463.513000
20
257.805000
11
444.919000
21
268.218000
0
LINE
8
Layer 1
10
444.919000
20
268.218000
11
443.431000
21
241.405000
0
LINE
8
Layer 1
10
435.295000
20
210.391000
11
443.430000
21
241.406000
0
LINE
8
Layer 1
10
443.430000
20
241.406000
11
384.282000
21
200.722000
0
LINE
8
Layer 1
10
384.282000
20
200.722000
11
435.295000
21
210.391000
0
LINE
8
Layer 1
10
463.513000
20
257.804000
11
468.347000
21
279.671000
0
LINE
8
Layer 1
10
468.347000
20
279.671000
11
444.919000
21
268.217000
0
LINE
8
Layer 1
10
444.919000
20
268.217000
11
463.513000
21
257.804000
0
LINE
8
Layer 1
10
384.283000
20
200.720000
11
443.431000
21
241.404000
0
LINE
8
Layer 1
10
443.431000
20
241.404000
11
394.212000
21
263.011000
0
LINE
8
Layer 1
10
394.212000
20
263.011000
11
384.283000
21
200.720000
0
LINE
8
Layer 1
10
467.233000
20
157.283000
11
481.513000
21
149.213000
0
LINE
8
Layer 1
10
481.513000
20
149.213000
11
471.882000
21
174.985000
0
LINE
8
Layer 1
10
471.882000
20
174.985000
11
467.233000
21
157.283000
0
LINE
8
Layer 1
10
481.513000
20
149.214000
11
486.050000
21
159.437000
0
LINE
8
Layer 1
10
486.050000
20
159.437000
11
471.881000
21
174.986000
0
LINE
8
Layer 1
10
471.881000
20
174.986000
11
481.513000
21
149.214000
0
LINE
8
Layer 1
10
486.050000
20
159.437000
11
481.810000
21
177.774000
0
LINE
8
Layer 1
10
481.810000
20
177.774000
11
471.881000
21
174.985000
0
LINE
8
Layer 1
10
471.881000
20
174.985000
11
486.050000
21
159.437000
0
LINE
8
Layer 1
10
453.845000
20
137.908000
11
473.629000
21
141.775000
0
LINE
8
Layer 1
10
473.629000
20
141.775000
11
467.233000
21
157.283000
0
LINE
8
Layer 1
10
467.233000
20
157.283000
11
453.845000
21
137.908000
0
LINE
8
Layer 1
10
473.628000
20
141.776000
11
481.511860
21
149.213600
0
LINE
8
Layer 1
10
481.511860
20
149.213600
11
467.231460
21
157.283730
0
LINE
8
Layer 1
10
467.231460
20
157.283730
11
473.628000
21
141.776000
0
LINE
8
Layer 1
10
481.809000
20
177.775000
11
493.263000
21
183.725000
0
LINE
8
Layer 1
10
493.263000
20
183.725000
11
478.834000
21
189.973000
0
LINE
8
Layer 1
10
478.834000
20
189.973000
11
481.809000
21
177.775000
0
LINE
8
Layer 1
10
471.879000
20
174.987000
11
481.808000
21
177.776000
0
LINE
8
Layer 1
10
481.808000
20
177.776000
11
478.833000
21
189.974000
0
LINE
8
Layer 1
10
478.833000
20
189.974000
11
471.879000
21
174.987000
0
LINE
8
Layer 1
10
478.835000
20
189.973000
11
484.785290
21
194.435630
0
LINE
8
Layer 1
10
484.785290
20
194.435630
11
469.946790
21
197.224680
0
LINE
8
Layer 1
10
469.946790
20
197.224680
11
478.835000
21
189.973000
0
LINE
8
Layer 1
10
493.263000
20
183.726000
11
484.784000
21
194.436000
0
LINE
8
Layer 1
10
484.784000
20
194.436000
11
478.834000
21
189.974000
0
LINE
8
Layer 1
10
478.834000
20
189.974000
11
493.263000
21
183.726000
0
LINE
8
Layer 1
10
484.785000
20
194.436000
11
474.528000
21
214.250000
0
LINE
8
Layer 1
10
474.528000
20
214.250000
11
469.947000
21
197.225000
0
LINE
8
Layer 1
10
469.947000
20
197.225000
11
484.785000
21
194.436000
0
LINE
8
Layer 1
10
369.054000
20
388.373000
11
364.145000
21
428.127000
0
LINE
8
Layer 1
10
364.145000
20
428.127000
11
343.171000
21
409.533000
0
LINE
8
Layer 1
10
343.171000
20
409.533000
11
369.054000
21
388.373000
0
LINE
8
Layer 1
10
364.146000
20
428.129000
11
386.608000
21
447.690000
0
LINE
8
Layer 1
10
386.608000
20
447.690000
11
348.229000
21
457.257000
0
LINE
8
Layer 1
10
348.229000
20
457.257000
11
364.146000
21
428.129000
0
LINE
8
Layer 1
10
421.600000
20
420.729000
11
364.143600
21
428.129560
0
LINE
8
Layer 1
10
364.143600
20
428.129560
11
369.052490
21
388.375160
0
LINE
8
Layer 1
10
369.052490
20
388.375160
11
421.600000
21
420.729000
0
LINE
8
Layer 1
10
319.371000
20
431.921000
11
364.146000
21
428.128000
0
LINE
8
Layer 1
10
364.146000
20
428.128000
11
328.891000
21
455.722000
0
LINE
8
Layer 1
10
328.891000
20
455.722000
11
319.371000
21
431.921000
0
LINE
8
Layer 1
10
444.918000
20
268.218000
11
468.347000
21
279.672000
0
LINE
8
Layer 1
10
468.347000
20
279.672000
11
453.843000
21
291.126000
0
LINE
8
Layer 1
10
453.843000
20
291.126000
11
444.918000
21
268.218000
0
LINE
8
Layer 1
10
343.170000
20
409.534000
11
364.144000
21
428.128000
0
LINE
8
Layer 1
10
364.144000
20
428.128000
11
319.369000
21
431.922000
0
LINE
8
Layer 1
10
319.369000
20
431.922000
11
343.170000
21
409.534000
0
LINE
8
Layer 1
10
328.890000
20
455.722000
11
364.145000
21
428.128000
0
LINE
8
Layer 1
10
364.145000
20
428.128000
11
348.228000
21
457.256000
0
LINE
8
Layer 1
10
348.228000
20
457.256000
11
328.890000
21
455.722000
0
LINE
8
Layer 1
10
378.576000
20
462.697000
11
429.746700
21
464.127160
0
LINE
8
Layer 1
10
429.746700
20
464.127160
11
411.896200
21
475.432560
0
LINE
8
Layer 1
10
411.896200
20
475.432560
11
378.576000
21
462.697000
0
LINE
8
Layer 1
10
429.747000
20
464.127000
11
438.258000
21
479.746000
0
LINE
8
Layer 1
10
438.258000
20
479.746000
11
411.896000
21
475.432000
0
LINE
8
Layer 1
10
411.896000
20
475.432000
11
429.747000
21
464.127000
0
LINE
8
Layer 1
10
386.607000
20
447.690000
11
429.746000
21
464.127000
0
LINE
8
Layer 1
10
429.746000
20
464.127000
11
378.575000
21
462.697000
0
LINE
8
Layer 1
10
378.575000
20
462.697000
11
386.607000
21
447.690000
0
LINE
8
Layer 1
10
348.229000
20
457.257000
11
386.608000
21
447.690000
0
LINE
8
Layer 1
10
386.608000
20
447.690000
11
378.576000
21
462.697000
0
LINE
8
Layer 1
10
378.576000
20
462.697000
11
348.229000
21
457.257000
0
LINE
8
Layer 1
10
451.017000
20
160.519000
11
453.843450
21
137.908500
0
LINE
8
Layer 1
10
453.843450
20
137.908500
11
467.231350
21
157.283700
0
LINE
8
Layer 1
10
467.231350
20
157.283700
11
451.017000
21
160.519000
0
LINE
8
Layer 1
10
403.937000
20
331.302000
11
421.603000
21
420.727000
0
LINE
8
Layer 1
10
421.603000
20
420.727000
11
369.055000
21
388.373000
0
LINE
8
Layer 1
10
369.055000
20
388.373000
11
403.937000
21
331.302000
0
LINE
8
Layer 1
10
469.463000
20
306.299000
11
467.232000
21
319.389000
0
LINE
8
Layer 1
10
467.232000
20
319.389000
11
460.389000
21
308.084000
0
LINE
8
Layer 1
10
460.389000
20
308.084000
11
469.463000
21
306.299000
0
LINE
8
Layer 1
10
460.388000
20
308.083000
11
467.231000
21
319.388000
0
LINE
8
Layer 1
10
467.231000
20
319.388000
11
436.309000
21
315.353000
0
LINE
8
Layer 1
10
436.309000
20
315.353000
11
460.388000
21
308.083000
0
LINE
8
Layer 1
10
453.845000
20
291.125000
11
468.348000
21
279.671000
0
LINE
8
Layer 1
10
468.348000
20
279.671000
11
460.390000
21
308.083000
0
LINE
8
Layer 1
10
460.390000
20
308.083000
11
453.845000
21
291.125000
0
LINE
8
Layer 1
10
468.347000
20
279.672000
11
469.462480
21
306.298900
0
LINE
8
Layer 1
10
469.462480
20
306.298900
11
460.388700
21
308.083950
0
LINE
8
Layer 1
10
460.388700
20
308.083950
11
468.347000
21
279.672000
0
LINE
8
Layer 1
10
467.233000
20
319.388000
11
464.109000
21
339.916000
0
LINE
8
Layer 1
10
464.109000
20
339.916000
11
436.311000
21
315.353000
0
LINE
8
Layer 1
10
436.311000
20
315.353000
11
467.233000
21
319.388000
0
LINE
8
Layer 1
10
436.308000
20
315.353000
11
444.917000
21
364.684000
0
LINE
8
Layer 1
10
444.917000
20
364.684000
11
403.934000
21
331.302000
0
LINE
8
Layer 1
10
403.934000
20
331.302000
11
436.308000
21
315.353000
0
LINE
8
Layer 1
10
444.918000
20
364.685000
11
421.600900
21
420.728200
0
LINE
8
Layer 1
10
421.600900
20
420.728200
11
403.935200
21
331.302800
0
LINE
8
Layer 1
10
403.935200
20
331.302800
11
444.918000
21
364.685000
0
LINE
8
Layer 1
10
464.108000
20
339.917000
11
444.919000
21
364.685000
0
LINE
8
Layer 1
10
444.919000
20
364.685000
11
436.310000
21
315.354000
0
LINE
8
Layer 1
10
436.310000
20
315.354000
11
464.108000
21
339.917000
0
LINE
8
Layer 1
10
469.948000
20
197.225000
11
446.794500
21
200.326620
0
LINE
8
Layer 1
10
446.794500
20
200.326620
11
446.705247
21
183.725620
0
LINE
8
Layer 1
10
446.705247
20
183.725620
11
469.948000
21
197.225000
0
LINE
8
Layer 1
10
226.673000
20
479.806000
11
194.542000
21
475.135000
0
LINE
8
Layer 1
10
194.542000
20
475.135000
11
226.673000
21
458.624000
0
LINE
8
Layer 1
10
226.673000
20
458.624000
11
226.673000
21
479.806000
0
LINE
8
Layer 1
10
227.142000
20
458.623000
11
195.011000
21
475.135000
0
LINE
8
Layer 1
10
195.011000
20
475.135000
11
211.077000
21
435.715000
0
LINE
8
Layer 1
10
211.077000
20
435.715000
11
227.142000
21
458.623000
0
LINE
8
Layer 1
10
190.251000
20
495.068000
11
195.011000
21
475.135000
0
LINE
8
Layer 1
10
195.011000
20
475.135000
11
224.167000
21
490.085000
0
LINE
8
Layer 1
10
224.167000
20
490.085000
11
190.251000
21
495.068000
0
LINE
8
Layer 1
10
235.622000
20
504.068000
11
190.252100
21
495.068310
0
LINE
8
Layer 1
10
190.252100
20
495.068310
11
224.168100
21
490.084980
0
LINE
8
Layer 1
10
224.168100
20
490.084980
11
235.622000
21
504.068000
0
LINE
8
Layer 1
10
224.167000
20
490.085000
11
195.011000
21
475.135400
0
LINE
8
Layer 1
10
195.011000
20
475.135400
11
227.141900
21
479.806170
0
LINE
8
Layer 1
10
227.141900
20
479.806170
11
224.167000
21
490.085000
0
LINE
8
Layer 1
10
195.011000
20
475.135000
11
170.244000
21
453.119000
0
LINE
8
Layer 1
10
170.244000
20
453.119000
11
211.076000
21
435.715000
0
LINE
8
Layer 1
10
211.076000
20
435.715000
11
195.011000
21
475.135000
0
LINE
8
Layer 1
10
211.077000
20
435.715000
11
170.244100
21
453.119300
0
LINE
8
Layer 1
10
170.244100
20
453.119300
11
172.817260
21
415.782100
0
LINE
8
Layer 1
10
172.817260
20
415.782100
11
211.077000
21
435.715000
0
LINE
8
Layer 1
10
138.665000
20
322.264000
11
182.628000
21
296.629000
0
LINE
8
Layer 1
10
182.628000
20
296.629000
11
203.044000
21
323.087000
0
LINE
8
Layer 1
10
203.044000
20
323.087000
11
138.665000
21
322.264000
0
LINE
8
Layer 1
10
207.209000
20
389.230000
11
138.664400
21
322.265900
0
LINE
8
Layer 1
10
138.664400
20
322.265900
11
203.043700
21
323.089282
0
LINE
8
Layer 1
10
203.043700
20
323.089282
11
207.209000
21
389.230000
0
LINE
8
Layer 1
10
170.244000
20
452.932000
11
146.815000
21
415.407800
0
LINE
8
Layer 1
10
146.815000
20
415.407800
11
172.698000
21
415.408000
0
LINE
8
Layer 1
10
172.698000
20
415.408000
11
146.815000
21
415.408000
0
LINE
8
Layer 1
10
146.815000
20
415.408000
11
138.664790
21
322.078000
0
LINE
8
Layer 1
10
138.664790
20
322.078000
11
172.817490
21
415.594900
0
LINE
8
Layer 1
10
172.817490
20
415.594900
11
170.244000
21
452.932000
0
LINE
8
Layer 1
10
172.817000
20
415.781000
11
138.664300
21
322.264100
0
LINE
8
Layer 1
10
138.664300
20
322.264100
11
207.208900
21
389.228200
0
LINE
8
Layer 1
10
207.208900
20
389.228200
11
172.817000
21
415.781000
0
LINE
8
Layer 1
10
322.591000
20
466.694000
11
315.503000
21
475.135000
0
LINE
8
Layer 1
10
315.503000
20
475.135000
11
314.610000
21
466.842000
0
LINE
8
Layer 1
10
314.610000
20
466.842000
11
322.591000
21
466.694000
0
LINE
8
Layer 1
10
315.502000
20
475.135000
11
295.271000
21
495.068000
0
LINE
8
Layer 1
10
295.271000
20
495.068000
11
314.609000
21
466.842000
0
LINE
8
Layer 1
10
314.609000
20
466.842000
11
315.502000
21
475.135000
0
LINE
8
Layer 1
10
314.611000
20
466.842000
11
295.273000
21
495.068000
0
LINE
8
Layer 1
10
295.273000
20
495.068000
11
288.133000
21
474.614000
0
LINE
8
Layer 1
10
288.133000
20
474.614000
11
314.611000
21
466.842000
0
LINE
8
Layer 1
10
323.014000
20
465.855000
11
323.070000
21
476.093000
0
LINE
8
Layer 1
10
323.070000
20
476.093000
11
315.245000
21
475.552000
0
LINE
8
Layer 1
10
315.245000
20
475.552000
11
323.013000
21
465.855000
0
LINE
8
Layer 1
10
323.013000
20
465.855000
11
323.014000
21
465.855000
0
LINE
8
Layer 1
10
266.189000
20
485.717000
11
235.620000
21
504.067000
0
LINE
8
Layer 1
10
235.620000
20
504.067000
11
224.166000
21
490.084000
0
LINE
8
Layer 1
10
224.166000
20
490.084000
11
266.189000
21
485.717000
0
LINE
8
Layer 1
10
260.166000
20
463.830000
11
266.191000
21
485.718000
0
LINE
8
Layer 1
10
266.191000
20
485.718000
11
227.143000
21
479.806000
0
LINE
8
Layer 1
10
227.143000
20
479.806000
11
260.166000
21
463.830000
0
LINE
8
Layer 1
10
295.272000
20
495.068000
11
266.190000
21
485.717000
0
LINE
8
Layer 1
10
266.190000
20
485.717000
11
288.132000
21
474.614000
0
LINE
8
Layer 1
10
288.132000
20
474.614000
11
295.272000
21
495.068000
0
LINE
8
Layer 1
10
226.673000
20
479.471000
11
226.673000
21
479.722000
0
LINE
8
Layer 1
10
226.673000
20
479.722000
11
226.673000
21
479.471000
0
LINE
8
Layer 1
10
226.673000
20
479.471000
11
265.956000
21
485.704000
0
LINE
8
Layer 1
10
265.956000
20
485.704000
11
223.815000
21
490.308000
0
LINE
8
Layer 1
10
223.815000
20
490.308000
11
226.673000
21
479.471000
0
LINE
8
Layer 1
10
288.131000
20
474.614000
11
266.190000
21
485.717000
0
LINE
8
Layer 1
10
266.190000
20
485.717000
11
260.165000
21
463.829000
0
LINE
8
Layer 1
10
260.165000
20
463.829000
11
288.131000
21
474.614000
0
LINE
8
Layer 1
10
467.233000
20
157.283000
11
471.881540
21
174.984600
0
LINE
8
Layer 1
10
471.881540
20
174.984600
11
455.332740
21
175.691212
0
LINE
8
Layer 1
10
455.332740
20
175.691212
11
467.233000
21
157.283000
0
LINE
8
Layer 1
10
435.295000
20
210.391000
11
384.281700
21
200.722090
0
LINE
8
Layer 1
10
384.281700
20
200.722090
11
410.778400
21
163.644890
0
LINE
8
Layer 1
10
410.778400
20
163.644890
11
435.295000
21
210.391000
0
LINE
8
Layer 1
10
446.794000
20
200.326000
11
435.297000
21
210.389300
0
LINE
8
Layer 1
10
435.297000
20
210.389300
11
410.780800
21
163.643200
0
LINE
8
Layer 1
10
410.780800
20
163.643200
11
446.794000
21
200.326000
0
LINE
8
Layer 1
10
455.332000
20
175.693000
11
469.947000
21
197.225000
0
LINE
8
Layer 1
10
469.947000
20
197.225000
11
446.704000
21
183.726000
0
LINE
8
Layer 1
10
446.704000
20
183.726000
11
455.332000
21
175.693000
0
LINE
8
Layer 1
10
384.283000
20
200.720000
11
355.964000
21
131.754000
0
LINE
8
Layer 1
10
355.964000
20
131.754000
11
410.780000
21
163.643000
0
LINE
8
Layer 1
10
410.780000
20
163.643000
11
384.283000
21
200.720000
0
LINE
8
Layer 1
10
438.256000
20
479.746000
11
415.130100
21
499.679000
0
LINE
8
Layer 1
10
415.130100
20
499.679000
11
411.894780
21
475.432300
0
LINE
8
Layer 1
10
411.894780
20
475.432300
11
438.256000
21
479.746000
0
LINE
8
Layer 1
10
446.704000
20
183.726000
11
446.793000
21
200.327000
0
LINE
8
Layer 1
10
446.793000
20
200.327000
11
410.780000
21
163.644000
0
LINE
8
Layer 1
10
410.780000
20
163.644000
11
446.704000
21
183.726000
0
LINE
8
Layer 1
10
355.962000
20
131.754000
11
423.087000
21
121.843000
0
LINE
8
Layer 1
10
423.087000
20
121.843000
11
410.778000
21
163.643000
0
LINE
8
Layer 1
10
410.778000
20
163.643000
11
355.962000
21
131.754000
0
LINE
8
Layer 1
10
438.449000
20
158.903000
11
451.018800
21
160.520840
0
LINE
8
Layer 1
10
451.018800
20
160.520840
11
455.332560
21
175.693740
0
LINE
8
Layer 1
10
455.332560
20
175.693740
11
438.449000
21
158.903000
0
LINE
8
Layer 1
10
203.044000
20
323.087000
11
182.447000
21
296.628000
0
LINE
8
Layer 1
10
182.447000
20
296.628000
11
202.684000
21
231.028000
0
LINE
8
Layer 1
10
202.684000
20
231.028000
11
202.684000
21
322.958000
0
LINE
8
Layer 1
10
202.684000
20
322.958000
11
202.684000
21
231.028000
0
LINE
8
Layer 1
10
202.684000
20
231.028000
11
243.473800
21
299.603600
0
LINE
8
Layer 1
10
243.473800
20
299.603600
11
203.044000
21
323.087000
0
LINE
8
Layer 1
10
423.090000
20
121.842000
11
438.448900
21
158.900500
0
LINE
8
Layer 1
10
438.448900
20
158.900500
11
410.780600
21
163.641820
0
LINE
8
Layer 1
10
410.780600
20
163.641820
11
423.090000
21
121.842000
0
LINE
8
Layer 1
10
410.779000
20
163.644000
11
438.447300
21
158.902320
0
LINE
8
Layer 1
10
438.447300
20
158.902320
11
455.330900
21
175.693120
0
LINE
8
Layer 1
10
455.330900
20
175.693120
11
410.779000
21
163.644000
0
LINE
8
Layer 1
10
203.044000
20
231.028000
11
293.635000
21
138.949000
0
LINE
8
Layer 1
10
293.635000
20
138.949000
11
248.340000
21
232.590000
0
LINE
8
Layer 1
10
248.340000
20
232.590000
11
203.044000
21
231.028000
0
LINE
8
Layer 1
10
248.340000
20
232.592000
11
293.636000
21
138.951000
0
LINE
8
Layer 1
10
293.636000
20
138.951000
11
289.619000
21
238.393000
0
LINE
8
Layer 1
10
289.619000
20
238.393000
11
248.340000
21
232.592000
0
LINE
8
Layer 1
10
243.654000
20
299.605000
11
203.044100
21
231.029400
0
LINE
8
Layer 1
10
203.044100
20
231.029400
11
248.340000
21
232.591140
0
LINE
8
Layer 1
10
248.340000
20
232.591140
11
243.654000
21
299.605000
0
LINE
8
Layer 1
10
289.618000
20
238.391000
11
293.634370
21
138.948800
0
LINE
8
Layer 1
10
293.634370
20
138.948800
11
384.281470
21
200.719000
0
LINE
8
Layer 1
10
384.281470
20
200.719000
11
289.618000
21
238.391000
0
LINE
8
Layer 1
10
410.779000
20
163.644000
11
455.330900
21
175.693100
0
LINE
8
Layer 1
10
455.330900
20
175.693100
11
446.703390
21
183.725830
0
LINE
8
Layer 1
10
446.703390
20
183.725830
11
410.779000
21
163.644000
0
LINE
8
Layer 1
10
471.879000
20
174.987000
11
469.945000
21
197.226000
0
LINE
8
Layer 1
10
469.945000
20
197.226000
11
455.330000
21
175.694000
0
LINE
8
Layer 1
10
455.330000
20
175.694000
11
471.879000
21
174.987000
0
LINE
8
Layer 1
10
293.635000
20
138.950000
11
355.962900
21
131.754050
0
LINE
8
Layer 1
10
355.962900
20
131.754050
11
384.282100
21
200.720150
0
LINE
8
Layer 1
10
384.282100
20
200.720150
11
293.635000
21
138.950000
0
LINE
8
Layer 1
10
455.332000
20
175.693000
11
451.018240
21
160.520100
0
LINE
8
Layer 1
10
451.018240
20
160.520100
11
467.232240
21
157.284780
0
LINE
8
Layer 1
10
467.232240
20
157.284780
11
455.332000
21
175.693000
0
LINE
8
Layer 1
10
478.835000
20
189.973000
11
469.946780
21
197.224680
0
LINE
8
Layer 1
10
469.946780
20
197.224680
11
471.880700
21
174.985980
0
LINE
8
Layer 1
10
471.880700
20
174.985980
11
478.835000
21
189.973000
0
LINE
8
Layer 1
10
117.034000
20
361.473000
11
73.330200
21
324.745400
0
LINE
8
Layer 1
10
73.330200
20
324.745400
11
138.664500
21
322.266440
0
LINE
8
Layer 1
10
138.664500
20
322.266440
11
117.034000
21
361.473000
0
LINE
8
Layer 1
10
451.017000
20
160.519000
11
441.189000
21
133.632000
0
LINE
8
Layer 1
10
441.189000
20
133.632000
11
453.843000
21
137.908000
0
LINE
8
Layer 1
10
453.843000
20
137.908000
11
451.017000
21
160.519000
0
LINE
8
Layer 1
10
441.190000
20
133.632000
11
463.811000
21
125.488000
0
LINE
8
Layer 1
10
463.811000
20
125.488000
11
453.845000
21
137.909000
0
LINE
8
Layer 1
10
453.845000
20
137.909000
11
441.190000
21
133.632000
0
LINE
8
Layer 1
10
423.090000
20
121.842000
11
441.190300
21
133.630700
0
LINE
8
Layer 1
10
441.190300
20
133.630700
11
438.448870
21
158.900500
0
LINE
8
Layer 1
10
438.448870
20
158.900500
11
423.090000
21
121.842000
0
LINE
8
Layer 1
10
438.449000
20
158.903000
11
441.190000
21
133.633000
0
LINE
8
Layer 1
10
441.190000
20
133.633000
11
451.019000
21
160.521000
0
LINE
8
Layer 1
10
451.019000
20
160.521000
11
438.449000
21
158.903000
0
LINE
8
Layer 1
10
453.845000
20
137.908000
11
463.811660
21
125.487100
0
LINE
8
Layer 1
10
463.811660
20
125.487100
11
473.629440
21
141.775500
0
LINE
8
Layer 1
10
473.629440
20
141.775500
11
453.845000
21
137.908000
0
LINE
8
Layer 1
10
493.115000
20
114.109000
11
513.069000
21
125.744000
0
LINE
8
Layer 1
10
513.069000
20
125.744000
11
495.793000
21
135.678000
0
LINE
8
Layer 1
10
495.793000
20
135.678000
11
493.115000
21
114.109000
0
LINE
8
Layer 1
10
442.177000
20
99.850200
11
441.189000
21
133.634000
0
LINE
8
Layer 1
10
441.189000
20
133.634000
11
423.089000
21
121.844000
0
LINE
8
Layer 1
10
423.089000
20
121.844000
11
442.177000
21
99.850200
0
LINE
8
Layer 1
10
481.735000
20
113.783000
11
493.115000
21
113.783000
0
LINE
8
Layer 1
10
493.115000
20
113.783000
11
495.792580
21
135.352500
0
LINE
8
Layer 1
10
495.792580
20
135.352500
11
481.735000
21
113.783000
0
LINE
8
Layer 1
10
480.938000
20
113.079000
11
492.964000
21
113.079000
0
LINE
8
Layer 1
10
492.964000
20
113.079000
11
495.793270
21
135.541000
0
LINE
8
Layer 1
10
495.793270
20
135.541000
11
480.938000
21
113.079000
0
LINE
8
Layer 1
10
463.219000
20
125.414000
11
481.352000
21
113.199000
0
LINE
8
Layer 1
10
481.352000
20
113.199000
11
495.912000
21
135.838000
0
LINE
8
Layer 1
10
495.912000
20
135.838000
11
463.219000
21
125.414000
0
LINE
8
Layer 1
10
473.628000
20
141.776000
11
463.810220
21
125.487200
0
LINE
8
Layer 1
10
463.810220
20
125.487200
11
495.792320
21
135.677200
0
LINE
8
Layer 1
10
495.792320
20
135.677200
11
473.628000
21
141.776000
0
LINE
8
Layer 1
10
391.242000
20
99.866100
11
442.176000
21
99.850200
0
LINE
8
Layer 1
10
442.176000
20
99.850200
11
423.088000
21
121.844000
0
LINE
8
Layer 1
10
423.088000
20
121.844000
11
391.242000
21
99.866100
0
LINE
8
Layer 1
10
513.069000
20
125.742000
11
505.610000
21
150.924000
0
LINE
8
Layer 1
10
505.610000
20
150.924000
11
495.792000
21
135.677000
0
LINE
8
Layer 1
10
495.792000
20
135.677000
11
513.069000
21
125.742000
0
LINE
8
Layer 1
10
203.044000
20
231.028000
11
238.001400
21
130.173000
0
LINE
8
Layer 1
10
238.001400
20
130.173000
11
293.635400
21
138.949390
0
LINE
8
Layer 1
10
293.635400
20
138.949390
11
203.044000
21
231.028000
0
LINE
8
Layer 1
10
238.001000
20
130.174000
11
317.369000
21
64.617800
0
LINE
8
Layer 1
10
317.369000
20
64.617800
11
293.635000
21
138.950000
0
LINE
8
Layer 1
10
293.635000
20
138.950000
11
238.001000
21
130.174000
0
LINE
8
Layer 1
10
158.431000
20
178.421000
11
238.001600
21
130.174900
0
LINE
8
Layer 1
10
238.001600
20
130.174900
11
203.044200
21
231.029900
0
LINE
8
Layer 1
10
203.044200
20
231.029900
11
158.431000
21
178.421000
0
LINE
8
Layer 1
10
293.635000
20
138.950000
11
317.369100
21
64.617400
0
LINE
8
Layer 1
10
317.369100
20
64.617400
11
355.962900
21
131.754000
0
LINE
8
Layer 1
10
355.962900
20
131.754000
11
293.635000
21
138.950000
0
LINE
8
Layer 1
10
374.187000
20
55.201800
11
409.665000
21
79.523000
0
LINE
8
Layer 1
10
409.665000
20
79.523000
11
391.244000
21
99.865100
0
LINE
8
Layer 1
10
391.244000
20
99.865100
11
374.187000
21
55.201800
0
LINE
8
Layer 1
10
409.665000
20
79.522300
11
442.178000
21
99.848600
0
LINE
8
Layer 1
10
442.178000
20
99.848600
11
391.244000
21
99.864500
0
LINE
8
Layer 1
10
391.244000
20
99.864500
11
409.665000
21
79.522300
0
LINE
8
Layer 1
10
355.962000
20
131.754000
11
317.368200
21
64.617400
0
LINE
8
Layer 1
10
317.368200
20
64.617400
11
391.241500
21
99.864800
0
LINE
8
Layer 1
10
391.241500
20
99.864800
11
355.962000
21
131.754000
0
LINE
8
Layer 1
10
317.370000
20
64.618300
11
374.186000
21
55.202300
0
LINE
8
Layer 1
10
374.186000
20
55.202300
11
391.244000
21
99.865700
0
LINE
8
Layer 1
10
391.244000
20
99.865700
11
317.370000
21
64.618300
0
LINE
8
Layer 1
10
505.611000
20
150.925000
11
499.958000
21
163.643000
0
LINE
8
Layer 1
10
499.958000
20
163.643000
11
481.513000
21
149.214000
0
LINE
8
Layer 1
10
481.513000
20
149.214000
11
505.611000
21
150.925000
0
LINE
8
Layer 1
10
490.564000
20
224.017000
11
473.627200
21
238.393000
0
LINE
8
Layer 1
10
473.627200
20
238.393000
11
474.527134
21
214.250400
0
LINE
8
Layer 1
10
474.527134
20
214.250400
11
490.564000
21
224.017000
0
LINE
8
Layer 1
10
450.869000
20
217.640000
11
473.628400
21
238.391400
0
LINE
8
Layer 1
10
473.628400
20
238.391400
11
443.431400
21
241.403410
0
LINE
8
Layer 1
10
443.431400
20
241.403410
11
450.869000
21
217.640000
0
LINE
8
Layer 1
10
474.528000
20
214.251000
11
473.628000
21
238.394000
0
LINE
8
Layer 1
10
473.628000
20
238.394000
11
453.844000
21
214.172000
0
LINE
8
Layer 1
10
453.844000
20
214.172000
11
474.528000
21
214.251000
0
LINE
8
Layer 1
10
453.845000
20
214.171000
11
473.629000
21
238.393000
0
LINE
8
Layer 1
10
473.629000
20
238.393000
11
450.870000
21
217.642000
0
LINE
8
Layer 1
10
450.870000
20
217.642000
11
453.845000
21
214.171000
0
LINE
8
Layer 1
10
473.628000
20
238.391000
11
484.785000
21
259.886000
0
LINE
8
Layer 1
10
484.785000
20
259.886000
11
463.513000
21
257.803000
0
LINE
8
Layer 1
10
463.513000
20
257.803000
11
473.628000
21
238.391000
0
LINE
8
Layer 1
10
443.431000
20
241.405000
11
473.628000
21
238.393000
0
LINE
8
Layer 1
10
473.628000
20
238.393000
11
463.513000
21
257.805000
0
LINE
8
Layer 1
10
463.513000
20
257.805000
11
443.431000
21
241.405000
0
LINE
8
Layer 1
10
463.513000
20
257.804000
11
484.785000
21
259.886000
0
LINE
8
Layer 1
10
484.785000
20
259.886000
11
468.347000
21
279.671000
0
LINE
8
Layer 1
10
468.347000
20
279.671000
11
463.513000
21
257.804000
0
LINE
8
Layer 1
10
468.347000
20
279.672000
11
480.024000
21
303.621000
0
LINE
8
Layer 1
10
480.024000
20
303.621000
11
469.462000
21
306.299000
0
LINE
8
Layer 1
10
469.462000
20
306.299000
11
468.347000
21
279.672000
0
LINE
8
Layer 1
10
488.058000
20
283.688000
11
480.025000
21
303.621000
0
LINE
8
Layer 1
10
480.025000
20
303.621000
11
468.348000
21
279.672000
0
LINE
8
Layer 1
10
468.348000
20
279.672000
11
488.058000
21
283.688000
0
LINE
8
Layer 1
10
495.792000
20
135.677000
11
505.610000
21
150.924000
0
LINE
8
Layer 1
10
505.610000
20
150.924000
11
481.512000
21
149.214000
0
LINE
8
Layer 1
10
481.512000
20
149.214000
11
495.792000
21
135.677000
0
LINE
8
Layer 1
10
484.785000
20
259.889000
11
488.058000
21
283.690000
0
LINE
8
Layer 1
10
488.058000
20
283.690000
11
468.348000
21
279.673000
0
LINE
8
Layer 1
10
468.348000
20
279.673000
11
484.785000
21
259.889000
0
LINE
8
Layer 1
10
486.050000
20
159.437000
11
499.959000
21
163.643000
0
LINE
8
Layer 1
10
499.959000
20
163.643000
11
481.810000
21
177.774000
0
LINE
8
Layer 1
10
481.810000
20
177.774000
11
486.050000
21
159.437000
0
LINE
8
Layer 1
10
481.809000
20
177.775000
11
499.957000
21
163.643000
0
LINE
8
Layer 1
10
499.957000
20
163.643000
11
493.263000
21
183.725000
0
LINE
8
Layer 1
10
493.263000
20
183.725000
11
481.809000
21
177.775000
0
LINE
8
Layer 1
10
484.785000
20
194.436000
11
490.565000
21
224.017000
0
LINE
8
Layer 1
10
490.565000
20
224.017000
11
474.528000
21
214.250000
0
LINE
8
Layer 1
10
474.528000
20
214.250000
11
484.785000
21
194.436000
0
LINE
8
Layer 1
10
146.815000
20
254.383000
11
158.431000
21
178.419000
0
LINE
8
Layer 1
10
158.431000
20
178.419000
11
203.044000
21
231.028000
0
LINE
8
Layer 1
10
203.044000
20
231.028000
11
146.815000
21
254.383000
0
LINE
8
Layer 1
10
481.513000
20
149.214000
11
499.959000
21
163.643000
0
LINE
8
Layer 1
10
499.959000
20
163.643000
11
486.050000
21
159.437000
0
LINE
8
Layer 1
10
486.050000
20
159.437000
11
481.513000
21
149.214000
0
LINE
8
Layer 1
10
493.263000
20
183.726000
11
490.615000
21
205.147000
0
LINE
8
Layer 1
10
490.615000
20
205.147000
11
484.784000
21
194.436000
0
LINE
8
Layer 1
10
484.784000
20
194.436000
11
493.263000
21
183.726000
0
LINE
8
Layer 1
10
490.617000
20
205.146000
11
490.566000
21
224.016000
0
LINE
8
Layer 1
10
490.566000
20
224.016000
11
484.786000
21
194.436000
0
LINE
8
Layer 1
10
484.786000
20
194.436000
11
490.617000
21
205.146000
0
LINE
8
Layer 1
10
500.256000
20
196.219000
11
490.616720
21
205.144260
0
LINE
8
Layer 1
10
490.616720
20
205.144260
11
493.264660
21
183.723660
0
LINE
8
Layer 1
10
493.264660
20
183.723660
11
500.256000
21
196.219000
0
LINE
8
Layer 1
10
499.957000
20
163.644000
11
500.254000
21
196.221000
0
LINE
8
Layer 1
10
500.254000
20
196.221000
11
493.263000
21
183.726000
0
LINE
8
Layer 1
10
493.263000
20
183.726000
11
499.957000
21
163.644000
0
LINE
8
Layer 1
10
322.644000
20
488.969000
11
313.718740
21
505.927000
0
LINE
8
Layer 1
10
313.718740
20
505.927000
11
315.503790
21
475.134900
0
LINE
8
Layer 1
10
315.503790
20
475.134900
11
322.644000
21
488.969000
0
LINE
8
Layer 1
10
348.525000
20
542.614000
11
334.467500
21
541.405390
0
LINE
8
Layer 1
10
334.467500
20
541.405390
11
332.905760
21
528.240490
0
LINE
8
Layer 1
10
332.905760
20
528.240490
11
348.525000
21
542.614000
0
LINE
8
Layer 1
10
334.468000
20
541.405000
11
327.104840
21
538.058200
0
LINE
8
Layer 1
10
327.104840
20
538.058200
11
332.906260
21
528.240420
0
LINE
8
Layer 1
10
332.906260
20
528.240420
11
334.468000
21
541.405000
0
LINE
8
Layer 1
10
343.170000
20
515.187000
11
358.343000
21
533.372000
0
LINE
8
Layer 1
10
358.343000
20
533.372000
11
332.906000
21
528.240000
0
LINE
8
Layer 1
10
332.906000
20
528.240000
11
343.170000
21
515.187000
0
LINE
8
Layer 1
10
332.907000
20
528.240000
11
358.344000
21
533.372000
0
LINE
8
Layer 1
10
358.344000
20
533.372000
11
348.526000
21
542.614000
0
LINE
8
Layer 1
10
348.526000
20
542.614000
11
332.907000
21
528.240000
0
LINE
8
Layer 1
10
358.344000
20
533.372000
11
361.914000
21
552.041000
0
LINE
8
Layer 1
10
361.914000
20
552.041000
11
348.526000
21
542.613000
0
LINE
8
Layer 1
10
348.526000
20
542.613000
11
358.344000
21
533.372000
0
LINE
8
Layer 1
10
361.913000
20
552.041000
11
334.468000
21
541.405100
0
LINE
8
Layer 1
10
334.468000
20
541.405100
11
348.525100
21
542.613710
0
LINE
8
Layer 1
10
348.525100
20
542.613710
11
361.913000
21
552.041000
0
LINE
8
Layer 1
10
321.871000
20
521.295000
11
313.718680
21
505.927000
0
LINE
8
Layer 1
10
313.718680
20
505.927000
11
322.643940
21
488.968700
0
LINE
8
Layer 1
10
322.643940
20
488.968700
11
321.871000
21
521.295000
0
LINE
8
Layer 1
10
411.895000
20
475.432000
11
415.130000
21
499.679000
0
LINE
8
Layer 1
10
415.130000
20
499.679000
11
390.258000
21
482.237000
0
LINE
8
Layer 1
10
390.258000
20
482.237000
11
411.895000
21
475.432000
0
LINE
8
Layer 1
10
331.568000
20
502.803000
11
321.870000
21
521.295000
0
LINE
8
Layer 1
10
321.870000
20
521.295000
11
322.643000
21
488.969000
0
LINE
8
Layer 1
10
322.643000
20
488.969000
11
331.568000
21
502.803000
0
LINE
8
Layer 1
10
332.907000
20
528.240000
11
321.870000
21
521.295000
0
LINE
8
Layer 1
10
321.870000
20
521.295000
11
331.568000
21
502.803000
0
LINE
8
Layer 1
10
331.568000
20
502.803000
11
332.907000
21
528.240000
0
LINE
8
Layer 1
10
327.104000
20
538.058000
11
321.868000
21
521.295000
0
LINE
8
Layer 1
10
321.868000
20
521.295000
11
332.905000
21
528.240000
0
LINE
8
Layer 1
10
332.905000
20
528.240000
11
327.104000
21
538.058000
0
LINE
8
Layer 1
10
415.131000
20
499.679000
11
431.754000
21
520.058000
0
LINE
8
Layer 1
10
431.754000
20
520.058000
11
396.388000
21
505.927000
0
LINE
8
Layer 1
10
396.388000
20
505.927000
11
415.131000
21
499.679000
0
LINE
8
Layer 1
10
431.755000
20
520.059000
11
425.330580
21
533.372500
0
LINE
8
Layer 1
10
425.330580
20
533.372500
11
396.388780
21
505.927500
0
LINE
8
Layer 1
10
396.388780
20
505.927500
11
431.755000
21
520.059000
0
LINE
8
Layer 1
10
425.328000
20
533.372000
11
386.568400
21
516.414000
0
LINE
8
Layer 1
10
386.568400
20
516.414000
11
396.386180
21
505.927000
0
LINE
8
Layer 1
10
396.386180
20
505.927000
11
425.328000
21
533.372000
0
LINE
8
Layer 1
10
390.258000
20
482.238000
11
415.131000
21
499.679000
0
LINE
8
Layer 1
10
415.131000
20
499.679000
11
396.388000
21
505.927000
0
LINE
8
Layer 1
10
396.388000
20
505.927000
11
390.258000
21
482.238000
0
LINE
8
Layer 1
10
396.388000
20
505.927000
11
386.570000
21
516.414000
0
LINE
8
Layer 1
10
386.570000
20
516.414000
11
372.320000
21
505.884000
0
LINE
8
Layer 1
10
372.320000
20
505.884000
11
396.388000
21
505.927000
0
LINE
8
Layer 1
10
372.319000
20
505.884000
11
370.966100
21
528.240200
0
LINE
8
Layer 1
10
370.966100
20
528.240200
11
347.555800
21
500.138300
0
LINE
8
Layer 1
10
347.555800
20
500.138300
11
372.319000
21
505.884000
0
LINE
8
Layer 1
10
182.628000
20
296.629000
11
146.815500
21
254.382900
0
LINE
8
Layer 1
10
146.815500
20
254.382900
11
203.044600
21
231.028400
0
LINE
8
Layer 1
10
203.044600
20
231.028400
11
182.628000
21
296.629000
0
LINE
8
Layer 1
10
386.569000
20
516.414000
11
370.965700
21
528.240100
0
LINE
8
Layer 1
10
370.965700
20
528.240100
11
372.318950
21
505.883600
0
LINE
8
Layer 1
10
372.318950
20
505.883600
11
386.569000
21
516.414000
0
LINE
8
Layer 1
10
370.967000
20
528.240000
11
358.344300
21
533.371850
0
LINE
8
Layer 1
10
358.344300
20
533.371850
11
343.171400
21
515.186950
0
LINE
8
Layer 1
10
343.171400
20
515.186950
11
370.967000
21
528.240000
0
LINE
8
Layer 1
10
347.557000
20
500.138000
11
370.967000
21
528.240000
0
LINE
8
Layer 1
10
370.967000
20
528.240000
11
343.171000
21
515.186000
0
LINE
8
Layer 1
10
343.171000
20
515.186000
11
347.557000
21
500.138000
0
LINE
8
Layer 1
10
190.251000
20
495.068000
11
150.980000
21
485.101000
0
LINE
8
Layer 1
10
150.980000
20
485.101000
11
195.011000
21
475.135000
0
LINE
8
Layer 1
10
195.011000
20
475.135000
11
190.251000
21
495.068000
0
LINE
8
Layer 1
10
146.815000
20
415.781000
11
117.034300
21
361.471000
0
LINE
8
Layer 1
10
117.034300
20
361.471000
11
138.664800
21
322.264100
0
LINE
8
Layer 1
10
138.664800
20
322.264100
11
146.815000
21
415.781000
0
LINE
8
Layer 1
10
94.156200
20
415.408000
11
146.815000
21
415.408000
0
LINE
8
Layer 1
10
146.815000
20
415.408000
11
114.684000
21
463.940000
0
LINE
8
Layer 1
10
114.684000
20
463.940000
11
94.003800
21
415.688000
0
LINE
8
Layer 1
10
94.003800
20
415.688000
11
117.034000
21
361.238000
0
LINE
8
Layer 1
10
117.034000
20
361.238000
11
146.815000
21
415.408000
0
LINE
8
Layer 1
10
146.815000
20
415.408000
11
94.156200
21
415.408000
0
LINE
8
Layer 1
10
150.980000
20
485.102000
11
114.684000
21
464.128000
0
LINE
8
Layer 1
10
114.684000
20
464.128000
11
170.244000
21
453.120000
0
LINE
8
Layer 1
10
170.244000
20
453.120000
11
150.980000
21
485.102000
0
LINE
8
Layer 1
10
315.502000
20
475.135000
11
313.717000
21
505.927000
0
LINE
8
Layer 1
10
313.717000
20
505.927000
11
295.271000
21
495.068000
0
LINE
8
Layer 1
10
295.271000
20
495.068000
11
315.502000
21
475.135000
0
LINE
8
Layer 1
10
170.244000
20
453.119000
11
114.684100
21
464.126700
0
LINE
8
Layer 1
10
114.684100
20
464.126700
11
146.815000
21
415.781800
0
LINE
8
Layer 1
10
146.815000
20
415.781800
11
170.244000
21
453.119000
0
LINE
8
Layer 1
10
138.665000
20
322.264000
11
146.815000
21
254.382000
0
LINE
8
Layer 1
10
146.815000
20
254.382000
11
182.628000
21
296.629000
0
LINE
8
Layer 1
10
182.628000
20
296.629000
11
138.665000
21
322.264000
0
LINE
8
Layer 1
10
322.982000
20
488.969000
11
315.842000
21
475.135000
0
LINE
8
Layer 1
10
315.842000
20
475.135000
11
322.982000
21
475.600000
0
LINE
8
Layer 1
10
322.982000
20
475.600000
11
322.982000
21
488.969000
0
LINE
8
Layer 1
10
107.544000
20
272.755000
11
146.815000
21
254.384000
0
LINE
8
Layer 1
10
146.815000
20
254.384000
11
138.665000
21
322.265000
0
LINE
8
Layer 1
10
138.665000
20
322.265000
11
107.544000
21
272.755000
0
LINE
8
Layer 1
10
73.330600
20
324.743000
11
107.544000
21
272.754000
0
LINE
8
Layer 1
10
107.544000
20
272.754000
11
138.665000
21
322.264000
0
LINE
8
Layer 1
10
138.665000
20
322.264000
11
73.330600
21
324.743000
0
LINE
8
Layer 1
10
195.011000
20
475.135000
11
150.979800
21
485.101660
0
LINE
8
Layer 1
10
150.979800
20
485.101660
11
170.243500
21
453.119260
0
LINE
8
Layer 1
10
170.243500
20
453.119260
11
195.011000
21
475.135000
0
LINE
8
Layer 1
10
295.272000
20
495.068000
11
286.719000
21
526.622000
0
LINE
8
Layer 1
10
286.719000
20
526.622000
11
266.190000
21
485.717000
0
LINE
8
Layer 1
10
266.190000
20
485.717000
11
295.272000
21
495.068000
0
LINE
8
Layer 1
10
286.718000
20
526.622000
11
255.820400
21
542.919600
0
LINE
8
Layer 1
10
255.820400
20
542.919600
11
258.677890
21
518.784400
0
LINE
8
Layer 1
10
258.677890
20
518.784400
11
286.718000
21
526.622000
0
LINE
8
Layer 1
10
266.189000
20
485.717000
11
286.717000
21
526.622000
0
LINE
8
Layer 1
10
286.717000
20
526.622000
11
258.677000
21
518.785000
0
LINE
8
Layer 1
10
258.677000
20
518.785000
11
266.189000
21
485.717000
0
LINE
8
Layer 1
10
163.773000
20
508.047000
11
150.980000
21
485.102000
0
LINE
8
Layer 1
10
150.980000
20
485.102000
11
190.251000
21
495.068000
0
LINE
8
Layer 1
10
190.251000
20
495.068000
11
163.773000
21
508.047000
0
LINE
8
Layer 1
10
313.716000
20
505.927000
11
286.716900
21
526.622300
0
LINE
8
Layer 1
10
286.716900
20
526.622300
11
295.270330
21
495.067800
0
LINE
8
Layer 1
10
295.270330
20
495.067800
11
313.716000
21
505.927000
0
LINE
8
Layer 1
10
235.622000
20
504.068000
11
195.012100
21
525.953600
0
LINE
8
Layer 1
10
195.012100
20
525.953600
11
190.252080
21
495.068300
0
LINE
8
Layer 1
10
190.252080
20
495.068300
11
235.622000
21
504.068000
0
LINE
8
Layer 1
10
195.011000
20
525.953000
11
163.772600
21
508.046700
0
LINE
8
Layer 1
10
163.772600
20
508.046700
11
190.251000
21
495.068000
0
LINE
8
Layer 1
10
190.251000
20
495.068000
11
195.011000
21
525.953000
0
LINE
8
Layer 1
10
255.821000
20
542.920000
11
195.011400
21
525.953200
0
LINE
8
Layer 1
10
195.011400
20
525.953200
11
235.621300
21
504.067600
0
LINE
8
Layer 1
10
235.621300
20
504.067600
11
255.821000
21
542.920000
0
LINE
8
Layer 1
10
258.678000
20
518.785000
11
255.821000
21
542.920000
0
LINE
8
Layer 1
10
255.821000
20
542.920000
11
235.621000
21
504.067000
0
LINE
8
Layer 1
10
235.621000
20
504.067000
11
258.678000
21
518.785000
0
LINE
8
Layer 1
10
394.213000
20
263.011000
11
443.432100
21
241.404500
0
LINE
8
Layer 1
10
443.432100
20
241.404500
11
444.919760
21
268.217300
0
LINE
8
Layer 1
10
444.919760
20
268.217300
11
394.213000
21
263.011000
0
LINE
8
Layer 1
10
580.805000
20
698.043000
11
559.607300
21
700.274310
0
LINE
8
Layer 1
10
559.607300
20
700.274310
11
564.813940
21
683.390710
0
LINE
8
Layer 1
10
564.813940
20
683.390710
11
580.805000
21
698.043000
0
LINE
8
Layer 1
10
559.607000
20
700.274000
11
532.833000
21
703.398000
0
LINE
8
Layer 1
10
532.833000
20
703.398000
11
539.287000
21
690.709000
0
LINE
8
Layer 1
10
539.287000
20
690.709000
11
559.607000
21
700.274000
0
LINE
8
Layer 1
10
539.234000
20
690.221000
11
539.527000
21
690.221000
0
LINE
8
Layer 1
10
539.527000
20
690.221000
11
539.290000
21
690.221000
0
LINE
8
Layer 1
10
539.290000
20
690.221000
11
564.815000
21
683.147000
0
LINE
8
Layer 1
10
564.815000
20
683.147000
11
559.581000
21
700.152000
0
LINE
8
Layer 1
10
559.581000
20
700.152000
11
539.234000
21
690.691000
0
LINE
8
Layer 1
10
539.234000
20
690.691000
11
539.234000
21
690.221000
0
LINE
8
Layer 1
10
593.307000
20
675.035000
11
580.806000
21
698.043000
0
LINE
8
Layer 1
10
580.806000
20
698.043000
11
564.815000
21
683.391000
0
LINE
8
Layer 1
10
564.815000
20
683.391000
11
593.307000
21
675.035000
0
LINE
8
Layer 1
10
599.623000
20
691.572000
11
580.805500
21
698.042640
0
LINE
8
Layer 1
10
580.805500
20
698.042640
11
593.306200
21
675.034540
0
LINE
8
Layer 1
10
593.306200
20
675.034540
11
599.623000
21
691.572000
0
LINE
8
Layer 1
10
514.088000
20
706.968000
11
498.915100
21
705.406260
0
LINE
8
Layer 1
10
498.915100
20
705.406260
11
497.725180
21
695.495340
0
LINE
8
Layer 1
10
497.725180
20
695.495340
11
514.088000
21
706.968000
0
LINE
8
Layer 1
10
539.287000
20
690.709000
11
539.287000
21
690.709000
0
LINE
8
Layer 1
10
539.287000
20
690.709000
11
532.833000
21
703.398000
0
LINE
8
Layer 1
10
532.833000
20
703.398000
11
508.287000
21
690.679000
0
LINE
8
Layer 1
10
508.287000
20
690.679000
11
539.287000
21
690.709000
0
LINE
8
Layer 1
10
614.945000
20
677.738000
11
599.623000
21
691.572000
0
LINE
8
Layer 1
10
599.623000
20
691.572000
11
593.306000
21
675.035000
0
LINE
8
Layer 1
10
593.306000
20
675.035000
11
614.945000
21
677.738000
0
LINE
8
Layer 1
10
508.288000
20
690.680000
11
514.089000
21
706.968000
0
LINE
8
Layer 1
10
514.089000
20
706.968000
11
497.727000
21
695.496000
0
LINE
8
Layer 1
10
497.727000
20
695.496000
11
508.288000
21
690.680000
0
LINE
8
Layer 1
10
498.917000
20
705.406000
11
485.305800
21
698.042490
0
LINE
8
Layer 1
10
485.305800
20
698.042490
11
497.727100
21
695.495090
0
LINE
8
Layer 1
10
497.727100
20
695.495090
11
498.917000
21
705.406000
0
LINE
8
Layer 1
10
532.834000
20
703.398000
11
514.089000
21
706.968000
0
LINE
8
Layer 1
10
514.089000
20
706.968000
11
508.288000
21
690.680000
0
LINE
8
Layer 1
10
508.288000
20
690.680000
11
532.834000
21
703.398000
0
LINE
8
Layer 1
10
548.188000
20
639.720000
11
587.463000
21
637.649000
0
LINE
8
Layer 1
10
587.463000
20
637.649000
11
566.005000
21
651.744000
0
LINE
8
Layer 1
10
566.005000
20
651.744000
11
548.188000
21
639.720000
0
LINE
8
Layer 1
10
579.689000
20
607.675000
11
587.461380
21
637.649100
0
LINE
8
Layer 1
10
587.461380
20
637.649100
11
548.186680
21
639.719900
0
LINE
8
Layer 1
10
548.186680
20
639.719900
11
579.689000
21
607.675000
0
LINE
8
Layer 1
10
506.418000
20
636.110000
11
538.396900
21
609.905700
0
LINE
8
Layer 1
10
538.396900
20
609.905700
11
548.187870
21
639.719900
0
LINE
8
Layer 1
10
548.187870
20
639.719900
11
506.418000
21
636.110000
0
LINE
8
Layer 1
10
620.747000
20
654.086000
11
614.946000
21
677.738000
0
LINE
8
Layer 1
10
614.946000
20
677.738000
11
593.307000
21
675.035000
0
LINE
8
Layer 1
10
593.307000
20
675.035000
11
620.747000
21
654.086000
0
LINE
8
Layer 1
10
508.214000
20
619.278000
11
538.397000
21
609.906000
0
LINE
8
Layer 1
10
538.397000
20
609.906000
11
506.418000
21
636.110000
0
LINE
8
Layer 1
10
506.418000
20
636.110000
11
508.214000
21
619.278000
0
LINE
8
Layer 1
10
538.398000
20
609.906000
11
579.691000
21
607.675000
0
LINE
8
Layer 1
10
579.691000
20
607.675000
11
548.189000
21
639.720000
0
LINE
8
Layer 1
10
548.189000
20
639.720000
11
538.398000
21
609.906000
0
LINE
8
Layer 1
10
633.241000
20
662.565000
11
614.944000
21
677.738000
0
LINE
8
Layer 1
10
614.944000
20
677.738000
11
620.746000
21
654.086000
0
LINE
8
Layer 1
10
620.746000
20
654.086000
11
633.241000
21
662.565000
0
LINE
8
Layer 1
10
650.423000
20
649.400000
11
633.242000
21
662.565000
0
LINE
8
Layer 1
10
633.242000
20
662.565000
11
620.747000
21
654.086000
0
LINE
8
Layer 1
10
620.747000
20
654.086000
11
650.423000
21
649.400000
0
LINE
8
Layer 1
10
587.462000
20
637.649000
11
630.564000
21
629.430000
0
LINE
8
Layer 1
10
630.564000
20
629.430000
11
620.746000
21
654.086000
0
LINE
8
Layer 1
10
620.746000
20
654.086000
11
587.462000
21
637.649000
0
LINE
8
Layer 1
10
630.563000
20
629.430000
11
650.422000
21
649.400000
0
LINE
8
Layer 1
10
650.422000
20
649.400000
11
620.745000
21
654.086000
0
LINE
8
Layer 1
10
620.745000
20
654.086000
11
630.563000
21
629.430000
0
LINE
8
Layer 1
10
566.005000
20
651.743000
11
587.463000
21
637.649000
0
LINE
8
Layer 1
10
587.463000
20
637.649000
11
620.746000
21
654.086000
0
LINE
8
Layer 1
10
620.746000
20
654.086000
11
566.005000
21
651.743000
0
LINE
8
Layer 1
10
542.798000
20
183.726000
11
525.244900
21
171.825800
0
LINE
8
Layer 1
10
525.244900
20
171.825800
11
544.365400
21
160.740500
0
LINE
8
Layer 1
10
544.365400
20
160.740500
11
542.798000
21
183.726000
0
LINE
8
Layer 1
10
504.941000
20
354.644000
11
505.611000
21
369.148000
0
LINE
8
Layer 1
10
505.611000
20
369.148000
11
493.016000
21
347.851000
0
LINE
8
Layer 1
10
493.016000
20
347.851000
11
504.941000
21
354.644000
0
LINE
8
Layer 1
10
553.064000
20
144.009000
11
544.367000
21
160.741000
0
LINE
8
Layer 1
10
544.367000
20
160.741000
11
536.850000
21
132.406000
0
LINE
8
Layer 1
10
536.850000
20
132.406000
11
553.064000
21
144.009000
0
LINE
8
Layer 1
10
575.450000
20
461.561000
11
543.765000
21
492.762000
0
LINE
8
Layer 1
10
543.765000
20
492.762000
11
560.947000
21
443.636000
0
LINE
8
Layer 1
10
560.947000
20
443.636000
11
575.450000
21
461.561000
0
LINE
8
Layer 1
10
404.011000
20
594.231000
11
391.367000
21
583.186000
0
LINE
8
Layer 1
10
391.367000
20
583.186000
11
404.032000
21
581.154000
0
LINE
8
Layer 1
10
404.032000
20
581.154000
11
404.011000
21
594.231000
0
LINE
8
Layer 1
10
419.743000
20
603.054000
11
404.012300
21
594.231400
0
LINE
8
Layer 1
10
404.012300
20
594.231400
11
404.033467
21
581.154300
0
LINE
8
Layer 1
10
404.033467
20
581.154300
11
419.743000
21
603.054000
0
LINE
8
Layer 1
10
297.876000
20
657.656000
11
300.107310
21
647.057200
0
LINE
8
Layer 1
10
300.107310
20
647.057200
11
307.693780
21
653.121440
0
LINE
8
Layer 1
10
307.693780
20
653.121440
11
297.876000
21
657.656000
0
LINE
8
Layer 1
10
301.818000
20
15.038000
11
326.214000
21
29.764700
0
LINE
8
Layer 1
10
326.214000
20
29.764700
11
283.819000
21
27.087100
0
LINE
8
Layer 1
10
283.819000
20
27.087100
11
301.818000
21
15.038000
0
LINE
8
Layer 1
10
300.106000
20
647.058000
11
304.122000
21
635.790000
0
LINE
8
Layer 1
10
304.122000
20
635.790000
11
307.692000
21
653.122000
0
LINE
8
Layer 1
10
307.692000
20
653.122000
11
300.106000
21
647.058000
0
LINE
8
Layer 1
10
180.238000
20
58.326500
11
225.401000
21
34.674600
0
LINE
8
Layer 1
10
225.401000
20
34.674600
11
195.625000
21
69.631900
0
LINE
8
Layer 1
10
195.625000
20
69.631900
11
180.238000
21
58.326500
0
LINE
8
Layer 1
10
497.726000
20
695.496000
11
485.305100
21
698.043400
0
LINE
8
Layer 1
10
485.305100
20
698.043400
11
471.693900
21
665.912500
0
LINE
8
Layer 1
10
471.693900
20
665.912500
11
497.726000
21
695.496000
0
LINE
8
Layer 1
10
448.043000
20
673.276000
11
433.261000
21
664.797000
0
LINE
8
Layer 1
10
433.261000
20
664.797000
11
452.059000
21
649.401000
0
LINE
8
Layer 1
10
452.059000
20
649.401000
11
448.043000
21
673.276000
0
LINE
8
Layer 1
10
471.694000
20
665.912000
11
448.042000
21
673.276000
0
LINE
8
Layer 1
10
448.042000
20
673.276000
11
452.058000
21
649.400000
0
LINE
8
Layer 1
10
452.058000
20
649.400000
11
471.694000
21
665.912000
0
LINE
8
Layer 1
10
468.942000
20
683.540000
11
448.042000
21
673.276000
0
LINE
8
Layer 1
10
448.042000
20
673.276000
11
471.694000
21
665.912000
0
LINE
8
Layer 1
10
471.694000
20
665.912000
11
468.942000
21
683.540000
0
LINE
8
Layer 1
10
485.307000
20
698.043000
11
468.944100
21
683.539600
0
LINE
8
Layer 1
10
468.944100
20
683.539600
11
471.695760
21
665.912000
0
LINE
8
Layer 1
10
471.695760
20
665.912000
11
485.307000
21
698.043000
0
LINE
8
Layer 1
10
433.260000
20
664.797000
11
419.928000
21
647.814000
0
LINE
8
Layer 1
10
419.928000
20
647.814000
11
429.685000
21
632.666000
0
LINE
8
Layer 1
10
429.685000
20
632.666000
11
433.260000
21
664.797000
0
LINE
8
Layer 1
10
452.059000
20
649.400000
11
433.260200
21
664.796200
0
LINE
8
Layer 1
10
433.260200
20
664.796200
11
429.684810
21
633.557800
0
LINE
8
Layer 1
10
429.684810
20
633.557800
11
452.059000
21
649.400000
0
LINE
8
Layer 1
10
414.573000
20
633.071000
11
429.685000
21
633.071000
0
LINE
8
Layer 1
10
429.685000
20
633.071000
11
419.928000
21
648.041000
0
LINE
8
Layer 1
10
419.928000
20
648.041000
11
414.424000
21
633.436000
0
LINE
8
Layer 1
10
414.424000
20
633.436000
11
407.879000
21
611.833000
0
LINE
8
Layer 1
10
407.879000
20
611.833000
11
429.685000
21
633.071000
0
LINE
8
Layer 1
10
429.685000
20
633.071000
11
414.573000
21
633.071000
0
LINE
8
Layer 1
10
429.686000
20
633.558000
11
407.880100
21
612.137400
0
LINE
8
Layer 1
10
407.880100
20
612.137400
11
419.743300
21
603.053750
0
LINE
8
Layer 1
10
419.743300
20
603.053750
11
429.686000
21
633.558000
0
LINE
8
Layer 1
10
407.879000
20
612.138000
11
404.011510
21
594.231700
0
LINE
8
Layer 1
10
404.011510
20
594.231700
11
419.742210
21
603.054300
0
LINE
8
Layer 1
10
419.742210
20
603.054300
11
407.879000
21
612.138000
0
LINE
8
Layer 1
10
526.008000
20
655.296000
11
526.043000
21
655.619000
0
LINE
8
Layer 1
10
526.043000
20
655.619000
11
523.349000
21
673.131000
0
LINE
8
Layer 1
10
523.349000
20
673.131000
11
501.148000
21
655.548000
0
LINE
8
Layer 1
10
501.148000
20
655.548000
11
501.157000
21
655.296000
0
LINE
8
Layer 1
10
501.157000
20
655.296000
11
526.008000
21
655.296000
0
LINE
8
Layer 1
10
593.307000
20
675.035000
11
564.815300
21
683.390880
0
LINE
8
Layer 1
10
564.815300
20
683.390880
11
566.005220
21
651.743280
0
LINE
8
Layer 1
10
566.005220
20
651.743280
11
593.307000
21
675.035000
0
LINE
8
Layer 1
10
539.290000
20
690.710000
11
539.290000
21
690.710000
0
LINE
8
Layer 1
10
539.290000
20
690.710000
11
539.291000
21
690.710000
0
LINE
8
Layer 1
10
539.291000
20
690.710000
11
539.290000
21
690.710000
0
LINE
8
Layer 1
10
620.747000
20
654.086000
11
593.306900
21
675.034600
0
LINE
8
Layer 1
10
593.306900
20
675.034600
11
566.005500
21
651.743200
0
LINE
8
Layer 1
10
566.005500
20
651.743200
11
620.747000
21
654.086000
0
LINE
8
Layer 1
10
497.726000
20
695.496000
11
471.693900
21
665.912500
0
LINE
8
Layer 1
10
471.693900
20
665.912500
11
508.287500
21
690.680300
0
LINE
8
Layer 1
10
508.287500
20
690.680300
11
497.726000
21
695.496000
0
LINE
8
Layer 1
10
404.032000
20
581.154000
11
439.061000
21
595.737000
0
LINE
8
Layer 1
10
439.061000
20
595.737000
11
419.742000
21
603.054000
0
LINE
8
Layer 1
10
419.742000
20
603.054000
11
404.032000
21
581.154000
0
LINE
8
Layer 1
10
526.092000
20
655.871000
11
526.043000
21
655.907000
0
LINE
8
Layer 1
10
526.043000
20
655.907000
11
526.008000
21
655.871000
0
LINE
8
Layer 1
10
526.008000
20
655.871000
11
526.092000
21
655.871000
0
LINE
8
Layer 1
10
436.308000
20
612.138000
11
467.230000
21
626.418000
0
LINE
8
Layer 1
10
467.230000
20
626.418000
11
459.867000
21
639.416000
0
LINE
8
Layer 1
10
459.867000
20
639.416000
11
436.308000
21
612.138000
0
LINE
8
Layer 1
10
658.791000
20
616.736000
11
650.423000
21
649.401000
0
LINE
8
Layer 1
10
650.423000
20
649.401000
11
630.565000
21
629.431000
0
LINE
8
Layer 1
10
630.565000
20
629.431000
11
658.791000
21
616.736000
0
LINE
8
Layer 1
10
467.233000
20
626.418000
11
506.419000
21
636.110000
0
LINE
8
Layer 1
10
506.419000
20
636.110000
11
482.555000
21
639.508000
0
LINE
8
Layer 1
10
482.555000
20
639.508000
11
467.233000
21
626.418000
0
LINE
8
Layer 1
10
459.870000
20
639.415000
11
467.233000
21
626.418000
0
LINE
8
Layer 1
10
467.233000
20
626.418000
11
482.555000
21
639.508000
0
LINE
8
Layer 1
10
482.555000
20
639.508000
11
459.870000
21
639.415000
0
LINE
8
Layer 1
10
307.692000
20
653.122000
11
304.121900
21
635.789700
0
LINE
8
Layer 1
10
304.121900
20
635.789700
11
314.720700
21
640.921900
0
LINE
8
Layer 1
10
314.720700
20
640.921900
11
307.692000
21
653.122000
0
LINE
8
Layer 1
10
668.049000
20
635.789000
11
650.421400
21
649.399800
0
LINE
8
Layer 1
10
650.421400
20
649.399800
11
658.788920
21
616.735100
0
LINE
8
Layer 1
10
658.788920
20
616.735100
11
668.049000
21
635.789000
0
LINE
8
Layer 1
10
467.233000
20
626.418000
11
508.214800
21
619.277790
0
LINE
8
Layer 1
10
508.214800
20
619.277790
11
506.419170
21
636.110190
0
LINE
8
Layer 1
10
506.419170
20
636.110190
11
467.233000
21
626.418000
0
LINE
8
Layer 1
10
702.858000
20
569.594000
11
698.618000
21
590.271000
0
LINE
8
Layer 1
10
698.618000
20
590.271000
11
693.152000
21
588.709000
0
LINE
8
Layer 1
10
693.152000
20
588.709000
11
702.858000
21
569.594000
0
LINE
8
Layer 1
10
312.603000
20
688.672000
11
306.029710
21
682.488880
0
LINE
8
Layer 1
10
306.029710
20
682.488880
11
316.730810
21
682.759107
0
LINE
8
Layer 1
10
316.730810
20
682.759107
11
312.603000
21
688.672000
0
LINE
8
Layer 1
10
693.153000
20
588.709000
11
698.620000
21
590.271000
0
LINE
8
Layer 1
10
698.620000
20
590.271000
11
679.727000
21
603.137000
0
LINE
8
Layer 1
10
679.727000
20
603.137000
11
693.153000
21
588.709000
0
LINE
8
Layer 1
10
680.098000
20
623.071000
11
668.048900
21
635.789300
0
LINE
8
Layer 1
10
668.048900
20
635.789300
11
658.788860
21
616.735800
0
LINE
8
Layer 1
10
658.788860
20
616.735800
11
680.098000
21
623.071000
0
LINE
8
Layer 1
10
687.610000
20
609.425000
11
680.097970
21
623.071500
0
LINE
8
Layer 1
10
680.097970
20
623.071500
11
679.724732
21
603.137500
0
LINE
8
Layer 1
10
679.724732
20
603.137500
11
687.610000
21
609.425000
0
LINE
8
Layer 1
10
679.725000
20
603.137000
11
680.098000
21
623.071000
0
LINE
8
Layer 1
10
680.098000
20
623.071000
11
658.789000
21
616.736000
0
LINE
8
Layer 1
10
658.789000
20
616.736000
11
679.725000
21
603.137000
0
LINE
8
Layer 1
10
658.352000
20
602.201000
11
679.726000
21
603.137000
0
LINE
8
Layer 1
10
679.726000
20
603.137000
11
658.791000
21
616.736000
0
LINE
8
Layer 1
10
658.791000
20
616.736000
11
658.352000
21
602.201000
0
LINE
8
Layer 1
10
698.619000
20
590.271000
11
687.611000
21
609.425000
0
LINE
8
Layer 1
10
687.611000
20
609.425000
11
679.726000
21
603.137000
0
LINE
8
Layer 1
10
679.726000
20
603.137000
11
698.619000
21
590.271000
0
LINE
8
Layer 1
10
460.835000
20
640.052000
11
429.684400
21
633.777510
0
LINE
8
Layer 1
10
429.684400
20
633.777510
11
429.747000
21
633.778000
0
LINE
8
Layer 1
10
429.747000
20
633.778000
11
429.684000
21
633.778000
0
LINE
8
Layer 1
10
429.684000
20
633.778000
11
436.520820
21
611.921300
0
LINE
8
Layer 1
10
436.520820
20
611.921300
11
460.835000
21
640.052000
0
LINE
8
Layer 1
10
452.059000
20
649.475000
11
429.684800
21
633.632500
0
LINE
8
Layer 1
10
429.684800
20
633.632500
11
459.868800
21
639.490010
0
LINE
8
Layer 1
10
459.868800
20
639.490010
11
452.059000
21
649.475000
0
LINE
8
Layer 1
10
429.686000
20
633.558000
11
419.743000
21
603.054000
0
LINE
8
Layer 1
10
419.743000
20
603.054000
11
436.311000
21
612.137000
0
LINE
8
Layer 1
10
436.311000
20
612.137000
11
429.686000
21
633.558000
0
LINE
8
Layer 1
10
482.552000
20
639.508000
11
471.693000
21
665.912000
0
LINE
8
Layer 1
10
471.693000
20
665.912000
11
459.867000
21
639.415000
0
LINE
8
Layer 1
10
459.867000
20
639.415000
11
482.552000
21
639.508000
0
LINE
8
Layer 1
10
471.694000
20
665.912000
11
452.058400
21
649.400300
0
LINE
8
Layer 1
10
452.058400
20
649.400300
11
459.868180
21
639.415300
0
LINE
8
Layer 1
10
459.868180
20
639.415300
11
471.694000
21
665.912000
0
LINE
8
Layer 1
10
439.060000
20
595.737000
11
481.412000
21
607.675000
0
LINE
8
Layer 1
10
481.412000
20
607.675000
11
436.308000
21
612.137000
0
LINE
8
Layer 1
10
436.308000
20
612.137000
11
439.060000
21
595.737000
0
LINE
8
Layer 1
10
436.308000
20
612.138000
11
481.412000
21
607.675000
0
LINE
8
Layer 1
10
481.412000
20
607.675000
11
467.230000
21
626.418000
0
LINE
8
Layer 1
10
467.230000
20
626.418000
11
436.308000
21
612.138000
0
LINE
8
Layer 1
10
419.743000
20
603.054000
11
439.062000
21
595.737000
0
LINE
8
Layer 1
10
439.062000
20
595.737000
11
436.310000
21
612.138000
0
LINE
8
Layer 1
10
436.310000
20
612.138000
11
419.743000
21
603.054000
0
LINE
8
Layer 1
10
481.412000
20
607.675000
11
508.212000
21
619.278000
0
LINE
8
Layer 1
10
508.212000
20
619.278000
11
467.231000
21
626.418000
0
LINE
8
Layer 1
10
467.231000
20
626.418000
11
481.412000
21
607.675000
0
LINE
8
Layer 1
10
501.147000
20
655.907000
11
471.693600
21
665.912100
0
LINE
8
Layer 1
10
471.693600
20
665.912100
11
482.552800
21
639.508200
0
LINE
8
Layer 1
10
482.552800
20
639.508200
11
501.147000
21
655.907000
0
LINE
8
Layer 1
10
526.092000
20
655.296000
11
526.138000
21
655.296000
0
LINE
8
Layer 1
10
526.138000
20
655.296000
11
526.092000
21
655.296000
0
LINE
8
Layer 1
10
526.092000
20
655.296000
11
548.187800
21
639.432000
0
LINE
8
Layer 1
10
548.187800
20
639.432000
11
566.004400
21
651.599300
0
LINE
8
Layer 1
10
566.004400
20
651.599300
11
526.043000
21
655.548000
0
LINE
8
Layer 1
10
526.043000
20
655.548000
11
526.092000
21
655.296000
0
LINE
8
Layer 1
10
526.008000
20
655.296000
11
506.418000
21
635.822000
0
LINE
8
Layer 1
10
506.418000
20
635.822000
11
548.188000
21
639.288000
0
LINE
8
Layer 1
10
548.188000
20
639.288000
11
526.092000
21
655.296000
0
LINE
8
Layer 1
10
526.092000
20
655.296000
11
526.008000
21
655.296000
0
LINE
8
Layer 1
10
526.042000
20
655.907000
11
566.004000
21
651.744000
0
LINE
8
Layer 1
10
566.004000
20
651.744000
11
523.348000
21
673.276000
0
LINE
8
Layer 1
10
523.348000
20
673.276000
11
526.042000
21
655.907000
0
LINE
8
Layer 1
10
501.147000
20
655.296000
11
501.157000
21
655.296000
0
LINE
8
Layer 1
10
501.157000
20
655.296000
11
501.147000
21
655.619000
0
LINE
8
Layer 1
10
501.147000
20
655.619000
11
482.553000
21
639.364000
0
LINE
8
Layer 1
10
482.553000
20
639.364000
11
506.417000
21
635.750000
0
LINE
8
Layer 1
10
506.417000
20
635.750000
11
501.157000
21
655.296000
0
LINE
8
Layer 1
10
501.157000
20
655.296000
11
501.147000
21
655.296000
0
LINE
8
Layer 1
10
523.348000
20
673.276000
11
471.693000
21
665.912490
0
LINE
8
Layer 1
10
471.693000
20
665.912490
11
501.146400
21
655.907390
0
LINE
8
Layer 1
10
501.146400
20
655.907390
11
523.348000
21
673.276000
0
LINE
8
Layer 1
10
501.158000
20
655.296000
11
506.419000
21
635.535000
0
LINE
8
Layer 1
10
506.419000
20
635.535000
11
526.009000
21
655.296000
0
LINE
8
Layer 1
10
526.009000
20
655.296000
11
501.158000
21
655.296000
0
LINE
8
Layer 1
10
508.288000
20
690.680000
11
471.694000
21
665.912000
0
LINE
8
Layer 1
10
471.694000
20
665.912000
11
523.349000
21
673.276000
0
LINE
8
Layer 1
10
523.349000
20
673.276000
11
508.288000
21
690.680000
0
LINE
8
Layer 1
10
539.287000
20
690.709000
11
508.286700
21
690.679367
0
LINE
8
Layer 1
10
508.286700
20
690.679367
11
523.348200
21
673.275067
0
LINE
8
Layer 1
10
523.348200
20
673.275067
11
539.287000
21
690.709000
0
LINE
8
Layer 1
10
564.814000
20
683.147000
11
539.288500
21
690.221240
0
LINE
8
Layer 1
10
539.288500
20
690.221240
11
539.287000
21
690.221000
0
LINE
8
Layer 1
10
539.287000
20
690.221000
11
523.348200
21
672.909500
0
LINE
8
Layer 1
10
523.348200
20
672.909500
11
564.814000
21
683.147000
0
LINE
8
Layer 1
10
566.005000
20
651.743000
11
564.815000
21
683.391000
0
LINE
8
Layer 1
10
564.815000
20
683.391000
11
523.350000
21
673.275000
0
LINE
8
Layer 1
10
523.350000
20
673.275000
11
566.005000
21
651.743000
0
LINE
8
Layer 1
10
495.792000
20
135.677000
11
481.512000
21
149.214000
0
LINE
8
Layer 1
10
481.512000
20
149.214000
11
473.628000
21
141.776000
0
LINE
8
Layer 1
10
473.628000
20
141.776000
11
495.792000
21
135.677000
0
LINE
8
Layer 1
10
386.607000
20
292.985000
11
403.935800
21
331.302600
0
LINE
8
Layer 1
10
403.935800
20
331.302600
11
311.039700
21
337.239480
0
LINE
8
Layer 1
10
311.039700
20
337.239480
11
386.607000
21
292.985000
0
LINE
8
Layer 1
10
433.260000
20
300.944000
11
436.309000
21
315.355000
0
LINE
8
Layer 1
10
436.309000
20
315.355000
11
403.936000
21
331.303000
0
LINE
8
Layer 1
10
403.936000
20
331.303000
11
386.607000
21
292.986000
0
LINE
8
Layer 1
10
386.607000
20
292.986000
11
433.260000
21
300.944000
0
LINE
8
Layer 1
10
460.388000
20
308.083000
11
436.309000
21
315.353000
0
LINE
8
Layer 1
10
436.309000
20
315.353000
11
433.259000
21
300.943000
0
LINE
8
Layer 1
10
433.259000
20
300.943000
11
460.388000
21
308.083000
0
LINE
8
Layer 1
10
453.845000
20
291.125000
11
460.390000
21
308.083000
0
LINE
8
Layer 1
10
460.390000
20
308.083000
11
433.261000
21
300.943000
0
LINE
8
Layer 1
10
433.261000
20
300.943000
11
453.845000
21
291.125000
0
LINE
8
Layer 1
10
386.607000
20
292.985000
11
394.212000
21
263.011000
0
LINE
8
Layer 1
10
394.212000
20
263.011000
11
433.260000
21
300.943000
0
LINE
8
Layer 1
10
433.260000
20
300.943000
11
386.607000
21
292.985000
0
LINE
8
Layer 1
10
394.213000
20
263.011000
11
453.845000
21
291.125600
0
LINE
8
Layer 1
10
453.845000
20
291.125600
11
433.260800
21
300.943380
0
LINE
8
Layer 1
10
433.260800
20
300.943380
11
394.213000
21
263.011000
0
LINE
8
Layer 1
10
345.067000
20
369.818000
11
343.170000
21
409.535000
0
LINE
8
Layer 1
10
343.170000
20
409.535000
11
310.854000
21
380.082000
0
LINE
8
Layer 1
10
310.854000
20
380.082000
11
345.067000
21
369.818000
0
LINE
8
Layer 1
10
369.054000
20
388.373000
11
343.170800
21
409.533300
0
LINE
8
Layer 1
10
343.170800
20
409.533300
11
345.067330
21
369.815900
0
LINE
8
Layer 1
10
345.067330
20
369.815900
11
369.054000
21
388.373000
0
LINE
8
Layer 1
10
403.937000
20
331.302000
11
369.055100
21
388.373200
0
LINE
8
Layer 1
10
369.055100
20
388.373200
11
345.068400
21
369.816100
0
LINE
8
Layer 1
10
345.068400
20
369.816100
11
403.937000
21
331.302000
0
LINE
8
Layer 1
10
311.039000
20
337.240000
11
403.935000
21
331.303000
0
LINE
8
Layer 1
10
403.935000
20
331.303000
11
345.066000
21
369.817000
0
LINE
8
Layer 1
10
345.066000
20
369.817000
11
311.039000
21
337.240000
0
LINE
8
Layer 1
10
344.689000
20
279.830000
11
384.283600
21
200.721200
0
LINE
8
Layer 1
10
384.283600
20
200.721200
11
394.212860
21
263.012100
0
LINE
8
Layer 1
10
394.212860
20
263.012100
11
386.608050
21
292.986200
0
LINE
8
Layer 1
10
386.608050
20
292.986200
11
344.689000
21
279.830000
0
LINE
8
Layer 1
10
203.044000
20
323.087000
11
243.654000
21
299.603000
0
LINE
8
Layer 1
10
243.654000
20
299.603000
11
251.240000
21
394.806000
0
LINE
8
Layer 1
10
251.240000
20
394.806000
11
203.044000
21
323.087000
0
LINE
8
Layer 1
10
207.209000
20
389.230000
11
203.044000
21
323.089000
0
LINE
8
Layer 1
10
203.044000
20
323.089000
11
251.240000
21
394.808000
0
LINE
8
Layer 1
10
251.240000
20
394.808000
11
207.209000
21
389.230000
0
LINE
8
Layer 1
10
211.077000
20
435.715000
11
207.209510
21
389.229200
0
LINE
8
Layer 1
10
207.209510
20
389.229200
11
251.240710
21
394.807660
0
LINE
8
Layer 1
10
251.240710
20
394.807660
11
211.077000
21
435.715000
0
LINE
8
Layer 1
10
251.241000
20
394.808000
11
243.655000
21
299.605000
0
LINE
8
Layer 1
10
243.655000
20
299.605000
11
283.729000
21
361.963000
0
LINE
8
Layer 1
10
283.729000
20
361.963000
11
251.241000
21
394.808000
0
LINE
8
Layer 1
10
243.654000
20
299.605000
11
289.619000
21
238.393000
0
LINE
8
Layer 1
10
289.619000
20
238.393000
11
283.639000
21
305.109000
0
LINE
8
Layer 1
10
283.639000
20
305.109000
11
243.654000
21
299.605000
0
LINE
8
Layer 1
10
289.618000
20
238.391000
11
384.281000
21
200.719000
0
LINE
8
Layer 1
10
384.281000
20
200.719000
11
344.687000
21
279.828000
0
LINE
8
Layer 1
10
344.687000
20
279.828000
11
289.618000
21
238.391000
0
LINE
8
Layer 1
10
283.639000
20
305.109000
11
289.619000
21
238.393000
0
LINE
8
Layer 1
10
289.619000
20
238.393000
11
344.688000
21
279.830000
0
LINE
8
Layer 1
10
344.688000
20
279.830000
11
283.639000
21
305.109000
0
LINE
8
Layer 1
10
283.729000
20
361.962000
11
243.654600
21
299.604100
0
LINE
8
Layer 1
10
243.654600
20
299.604100
11
283.639800
21
305.108130
0
LINE
8
Layer 1
10
283.639800
20
305.108130
11
283.729000
21
361.962000
0
LINE
8
Layer 1
10
310.854000
20
380.081000
11
343.171000
21
409.534000
0
LINE
8
Layer 1
10
343.171000
20
409.534000
11
297.875000
21
415.782000
0
LINE
8
Layer 1
10
297.875000
20
415.782000
11
310.854000
21
380.081000
0
LINE
8
Layer 1
10
390.258000
20
482.238000
11
372.319300
21
505.883900
0
LINE
8
Layer 1
10
372.319300
20
505.883900
11
370.169480
21
478.333100
0
LINE
8
Layer 1
10
370.169480
20
478.333100
11
390.258000
21
482.238000
0
LINE
8
Layer 1
10
343.170000
20
409.534000
11
319.369000
21
431.922000
0
LINE
8
Layer 1
10
319.369000
20
431.922000
11
297.874000
21
415.782000
0
LINE
8
Layer 1
10
297.874000
20
415.782000
11
343.170000
21
409.534000
0
LINE
8
Layer 1
10
260.166000
20
428.129000
11
211.077000
21
435.715000
0
LINE
8
Layer 1
10
211.077000
20
435.715000
11
251.241000
21
394.808000
0
LINE
8
Layer 1
10
251.241000
20
394.808000
11
260.166000
21
428.129000
0
LINE
8
Layer 1
10
372.319000
20
505.884000
11
347.555800
21
500.138320
0
LINE
8
Layer 1
10
347.555800
20
500.138320
11
370.169200
21
478.333220
0
LINE
8
Layer 1
10
370.169200
20
478.333220
11
372.319000
21
505.884000
0
LINE
8
Layer 1
10
348.229000
20
457.257000
11
378.576000
21
462.697000
0
LINE
8
Layer 1
10
378.576000
20
462.697000
11
355.220000
21
469.036000
0
LINE
8
Layer 1
10
355.220000
20
469.036000
11
348.229000
21
457.257000
0
LINE
8
Layer 1
10
378.576000
20
462.697000
11
390.259000
21
482.238000
0
LINE
8
Layer 1
10
390.259000
20
482.238000
11
370.170000
21
478.333000
0
LINE
8
Layer 1
10
370.170000
20
478.333000
11
378.576000
21
462.697000
0
LINE
8
Layer 1
10
355.219000
20
469.036000
11
378.574000
21
462.697000
0
LINE
8
Layer 1
10
378.574000
20
462.697000
11
370.169000
21
478.333000
0
LINE
8
Layer 1
10
370.169000
20
478.333000
11
355.219000
21
469.036000
0
LINE
8
Layer 1
10
331.568000
20
502.803000
11
322.643000
21
488.969000
0
LINE
8
Layer 1
10
322.643000
20
488.969000
11
330.636000
21
477.144000
0
LINE
8
Layer 1
10
330.636000
20
477.144000
11
331.568000
21
502.803000
0
LINE
8
Layer 1
10
347.557000
20
500.138000
11
331.568000
21
502.803000
0
LINE
8
Layer 1
10
331.568000
20
502.803000
11
330.636000
21
477.144000
0
LINE
8
Layer 1
10
330.636000
20
477.144000
11
347.557000
21
500.138000
0
LINE
8
Layer 1
10
355.219000
20
469.036000
11
347.556000
21
500.139000
0
LINE
8
Layer 1
10
347.556000
20
500.139000
11
338.038000
21
471.952000
0
LINE
8
Layer 1
10
338.038000
20
471.952000
11
355.219000
21
469.036000
0
LINE
8
Layer 1
10
338.040000
20
471.951000
11
347.558000
21
500.138000
0
LINE
8
Layer 1
10
347.558000
20
500.138000
11
330.637000
21
477.144000
0
LINE
8
Layer 1
10
330.637000
20
477.144000
11
338.040000
21
471.951000
0
LINE
8
Layer 1
10
370.171000
20
478.333000
11
347.558000
21
500.138100
0
LINE
8
Layer 1
10
347.558000
20
500.138100
11
355.221020
21
469.035900
0
LINE
8
Layer 1
10
355.221020
20
469.035900
11
370.171000
21
478.333000
0
LINE
8
Layer 1
10
319.371000
20
431.921000
11
328.891000
21
455.722000
0
LINE
8
Layer 1
10
328.891000
20
455.722000
11
316.396000
21
455.052000
0
LINE
8
Layer 1
10
316.396000
20
455.052000
11
319.371000
21
431.921000
0
LINE
8
Layer 1
10
289.721000
20
455.363000
11
291.700430
21
439.954400
0
LINE
8
Layer 1
10
291.700430
20
439.954400
11
319.368730
21
431.921670
0
LINE
8
Layer 1
10
319.368730
20
431.921670
11
316.393410
21
455.052870
0
LINE
8
Layer 1
10
316.393410
20
455.052870
11
289.721000
21
455.363000
0
LINE
8
Layer 1
10
338.040000
20
471.951000
11
348.229600
21
457.256100
0
LINE
8
Layer 1
10
348.229600
20
457.256100
11
355.220930
21
469.035300
0
LINE
8
Layer 1
10
355.220930
20
469.035300
11
338.040000
21
471.951000
0
LINE
8
Layer 1
10
297.876000
20
415.781000
11
319.371000
21
431.921000
0
LINE
8
Layer 1
10
319.371000
20
431.921000
11
260.167000
21
428.127000
0
LINE
8
Layer 1
10
260.167000
20
428.127000
11
297.876000
21
415.781000
0
LINE
8
Layer 1
10
260.166000
20
428.129000
11
319.370100
21
431.922060
0
LINE
8
Layer 1
10
319.370100
20
431.922060
11
291.701800
21
439.954790
0
LINE
8
Layer 1
10
291.701800
20
439.954790
11
260.166000
21
428.129000
0
LINE
8
Layer 1
10
316.394000
20
455.053000
11
328.889000
21
455.723000
0
LINE
8
Layer 1
10
328.889000
20
455.723000
11
322.591000
21
466.693000
0
LINE
8
Layer 1
10
322.591000
20
466.693000
11
316.394000
21
455.053000
0
LINE
8
Layer 1
10
328.890000
20
455.722000
11
348.228000
21
457.256000
0
LINE
8
Layer 1
10
348.228000
20
457.256000
11
338.039000
21
471.951000
0
LINE
8
Layer 1
10
338.039000
20
471.951000
11
328.890000
21
455.722000
0
LINE
8
Layer 1
10
330.637000
20
477.144000
11
328.892000
21
455.722000
0
LINE
8
Layer 1
10
328.892000
20
455.722000
11
338.040000
21
471.951000
0
LINE
8
Layer 1
10
338.040000
20
471.951000
11
330.637000
21
477.144000
0
LINE
8
Layer 1
10
322.593000
20
466.694000
11
322.485000
21
466.693000
0
LINE
8
Layer 1
10
322.485000
20
466.693000
11
322.277000
21
466.694000
0
LINE
8
Layer 1
10
322.277000
20
466.694000
11
322.277000
21
466.693000
0
LINE
8
Layer 1
10
322.277000
20
466.693000
11
328.733880
21
455.722300
0
LINE
8
Layer 1
10
328.733880
20
455.722300
11
330.557740
21
477.144300
0
LINE
8
Layer 1
10
330.557740
20
477.144300
11
322.593000
21
466.694000
0
LINE
8
Layer 1
10
288.131000
20
474.614000
11
260.165300
21
463.829300
0
LINE
8
Layer 1
10
260.165300
20
463.829300
11
289.721700
21
455.362650
0
LINE
8
Layer 1
10
289.721700
20
455.362650
11
288.131000
21
474.614000
0
LINE
8
Layer 1
10
343.170000
20
515.187000
11
331.567200
21
502.803100
0
LINE
8
Layer 1
10
331.567200
20
502.803100
11
347.555800
21
500.138580
0
LINE
8
Layer 1
10
347.555800
20
500.138580
11
343.170000
21
515.187000
0
LINE
8
Layer 1
10
332.907000
20
528.240000
11
331.568210
21
502.803000
0
LINE
8
Layer 1
10
331.568210
20
502.803000
11
343.171010
21
515.186900
0
LINE
8
Layer 1
10
343.171010
20
515.186900
11
332.907000
21
528.240000
0
LINE
8
Layer 1
10
258.678000
20
518.785000
11
235.621000
21
504.067000
0
LINE
8
Layer 1
10
235.621000
20
504.067000
11
266.190000
21
485.717000
0
LINE
8
Layer 1
10
266.190000
20
485.717000
11
258.678000
21
518.785000
0
LINE
8
Layer 1
10
391.242000
20
99.866100
11
423.088000
21
121.844000
0
LINE
8
Layer 1
10
423.088000
20
121.844000
11
355.963000
21
131.755000
0
LINE
8
Layer 1
10
355.963000
20
131.755000
11
391.242000
21
99.866100
0
LINE
8
Layer 1
10
396.388000
20
505.927000
11
372.320000
21
505.884000
0
LINE
8
Layer 1
10
372.320000
20
505.884000
11
390.258000
21
482.238000
0
LINE
8
Layer 1
10
390.258000
20
482.238000
11
396.388000
21
505.927000
0
LINE
8
Layer 1
10
172.817000
20
415.781000
11
207.209000
21
389.228000
0
LINE
8
Layer 1
10
207.209000
20
389.228000
11
211.077000
21
435.714000
0
LINE
8
Layer 1
10
211.077000
20
435.714000
11
172.817000
21
415.781000
0
LINE
8
Layer 1
10
248.340000
20
232.592000
11
289.619000
21
238.393000
0
LINE
8
Layer 1
10
289.619000
20
238.393000
11
243.654000
21
299.606000
0
LINE
8
Layer 1
10
243.654000
20
299.606000
11
248.340000
21
232.592000
0
LINE
8
Layer 1
10
411.895000
20
475.432000
11
390.258000
21
482.237000
0
LINE
8
Layer 1
10
390.258000
20
482.237000
11
378.575000
21
462.696000
0
LINE
8
Layer 1
10
378.575000
20
462.696000
11
411.895000
21
475.432000
0
LINE
8
Layer 1
10
330.975000
20
477.144000
11
322.982000
21
488.968000
0
LINE
8
Layer 1
10
322.982000
20
488.968000
11
322.982000
21
475.599000
0
LINE
8
Layer 1
10
322.982000
20
475.599000
11
330.975000
21
477.144000
0
LINE
8
Layer 1
10
444.918000
20
268.218000
11
453.843000
21
291.126000
0
LINE
8
Layer 1
10
453.843000
20
291.126000
11
394.211000
21
263.012000
0
LINE
8
Layer 1
10
394.211000
20
263.012000
11
444.918000
21
268.218000
0
LINE
8
Layer 1
10
333.917000
20
542.213000
11
333.917000
21
541.628000
0
LINE
8
Layer 1
10
333.917000
20
541.628000
11
333.917000
21
542.213000
0
LINE
8
Layer 1
10
333.917000
20
542.213000
11
329.562670
21
558.585700
0
LINE
8
Layer 1
10
329.562670
20
558.585700
11
327.023030
21
538.057600
0
LINE
8
Layer 1
10
327.023030
20
538.057600
11
334.263070
21
541.404400
0
LINE
8
Layer 1
10
334.263070
20
541.404400
11
333.917000
21
542.213000
0
LINE
8
Layer 1
10
309.367000
20
614.592000
11
320.077000
21
577.431000
0
LINE
8
Layer 1
10
320.077000
20
577.431000
11
318.850000
21
618.357000
0
LINE
8
Layer 1
10
318.850000
20
618.357000
11
309.367000
21
614.592000
0
LINE
8
Layer 1
10
318.849000
20
618.357000
11
320.076310
21
577.431000
0
LINE
8
Layer 1
10
320.076310
20
577.431000
11
325.208160
21
580.898800
0
LINE
8
Layer 1
10
325.208160
20
580.898800
11
318.849000
21
618.357000
0
LINE
8
Layer 1
10
355.888000
20
571.676000
11
334.244400
21
564.833180
0
LINE
8
Layer 1
10
334.244400
20
564.833180
11
365.482500
21
562.155600
0
LINE
8
Layer 1
10
365.482500
20
562.155600
11
355.888000
21
571.676000
0
LINE
8
Layer 1
10
459.854000
20
527.229000
11
425.329800
21
533.372610
0
LINE
8
Layer 1
10
425.329800
20
533.372610
11
431.754220
21
520.059110
0
LINE
8
Layer 1
10
431.754220
20
520.059110
11
459.854000
21
527.229000
0
LINE
8
Layer 1
10
304.123000
20
635.789000
11
309.366680
21
614.591300
0
LINE
8
Layer 1
10
309.366680
20
614.591300
11
318.849680
21
618.356840
0
LINE
8
Layer 1
10
318.849680
20
618.356840
11
304.123000
21
635.789000
0
LINE
8
Layer 1
10
226.673000
20
480.252000
11
226.673000
21
458.623000
0
LINE
8
Layer 1
10
226.673000
20
458.623000
11
260.533200
21
463.939000
0
LINE
8
Layer 1
10
260.533200
20
463.939000
11
226.673000
21
480.252000
0
LINE
8
Layer 1
10
523.796000
20
138.950000
11
505.610700
21
150.924700
0
LINE
8
Layer 1
10
505.610700
20
150.924700
11
513.069820
21
125.742800
0
LINE
8
Layer 1
10
513.069820
20
125.742800
11
523.796000
21
138.950000
0
LINE
8
Layer 1
10
512.863000
20
179.709000
11
500.256000
21
196.221000
0
LINE
8
Layer 1
10
500.256000
20
196.221000
11
499.958000
21
163.644000
0
LINE
8
Layer 1
10
499.958000
20
163.644000
11
512.863000
21
179.709000
0
LINE
8
Layer 1
10
512.249000
20
479.746000
11
460.222200
21
500.571500
0
LINE
8
Layer 1
10
460.222200
20
500.571500
11
451.018250
21
455.424500
0
LINE
8
Layer 1
10
451.018250
20
455.424500
11
512.249000
21
479.746000
0
LINE
8
Layer 1
10
314.611000
20
466.842000
11
288.132600
21
474.614380
0
LINE
8
Layer 1
10
288.132600
20
474.614380
11
289.723620
21
455.362980
0
LINE
8
Layer 1
10
289.723620
20
455.362980
11
314.611000
21
466.842000
0
LINE
8
Layer 1
10
345.067000
20
369.818000
11
310.853600
21
380.082000
0
LINE
8
Layer 1
10
310.853600
20
380.082000
11
311.039513
21
337.240800
0
LINE
8
Layer 1
10
311.039513
20
337.240800
11
345.067000
21
369.818000
0
LINE
8
Layer 1
10
386.607000
20
292.985000
11
311.039700
21
337.239500
0
LINE
8
Layer 1
10
311.039700
20
337.239500
11
344.687900
21
279.828900
0
LINE
8
Layer 1
10
344.687900
20
279.828900
11
386.607000
21
292.985000
0
LINE
8
Layer 1
10
344.689000
20
279.830000
11
311.040800
21
337.240200
0
LINE
8
Layer 1
10
311.040800
20
337.240200
11
283.640300
21
305.109300
0
LINE
8
Layer 1
10
283.640300
20
305.109300
11
344.689000
21
279.830000
0
LINE
8
Layer 1
10
227.142000
20
458.623000
11
211.077000
21
435.715000
0
LINE
8
Layer 1
10
211.077000
20
435.715000
11
260.165000
21
428.128000
0
LINE
8
Layer 1
10
260.165000
20
428.128000
11
227.142000
21
458.623000
0
LINE
8
Layer 1
10
261.653000
20
449.103000
11
227.141900
21
458.623390
0
LINE
8
Layer 1
10
227.141900
20
458.623390
11
260.165400
21
428.128690
0
LINE
8
Layer 1
10
260.165400
20
428.128690
11
261.653000
21
449.103000
0
LINE
8
Layer 1
10
311.039000
20
337.240000
11
310.853000
21
380.081000
0
LINE
8
Layer 1
10
310.853000
20
380.081000
11
283.728000
21
361.963000
0
LINE
8
Layer 1
10
283.728000
20
361.963000
11
311.039000
21
337.240000
0
LINE
8
Layer 1
10
283.639000
20
305.109000
11
311.040000
21
337.240000
0
LINE
8
Layer 1
10
311.040000
20
337.240000
11
283.728000
21
361.963000
0
LINE
8
Layer 1
10
283.728000
20
361.963000
11
283.639000
21
305.109000
0
LINE
8
Layer 1
10
310.854000
20
380.081000
11
297.875000
21
415.782000
0
LINE
8
Layer 1
10
297.875000
20
415.782000
11
251.241000
21
394.808000
0
LINE
8
Layer 1
10
251.241000
20
394.808000
11
310.854000
21
380.081000
0
LINE
8
Layer 1
10
283.729000
20
361.962000
11
310.854000
21
380.080000
0
LINE
8
Layer 1
10
310.854000
20
380.080000
11
251.241000
21
394.807000
0
LINE
8
Layer 1
10
251.241000
20
394.807000
11
283.729000
21
361.962000
0
LINE
8
Layer 1
10
260.166000
20
463.830000
11
227.143000
21
458.624000
0
LINE
8
Layer 1
10
227.143000
20
458.624000
11
261.654000
21
449.103000
0
LINE
8
Layer 1
10
261.654000
20
449.103000
11
260.166000
21
463.830000
0
LINE
8
Layer 1
10
291.700000
20
439.954000
11
289.721000
21
455.363000
0
LINE
8
Layer 1
10
289.721000
20
455.363000
11
261.652000
21
449.102000
0
LINE
8
Layer 1
10
261.652000
20
449.102000
11
291.700000
21
439.954000
0
LINE
8
Layer 1
10
322.628000
20
467.009000
11
322.628000
21
467.010000
0
LINE
8
Layer 1
10
322.628000
20
467.010000
11
314.019180
21
466.951086
0
LINE
8
Layer 1
10
314.019180
20
466.951086
11
316.154540
21
454.966886
0
LINE
8
Layer 1
10
316.154540
20
454.966886
11
322.628000
21
467.009000
0
LINE
8
Layer 1
10
322.591000
20
466.694000
11
322.590000
21
466.694000
0
LINE
8
Layer 1
10
322.590000
20
466.694000
11
322.591000
21
466.693000
0
LINE
8
Layer 1
10
322.591000
20
466.693000
11
322.591000
21
466.694000
0
LINE
8
Layer 1
10
316.394000
20
455.053000
11
314.609000
21
466.842000
0
LINE
8
Layer 1
10
314.609000
20
466.842000
11
289.722000
21
455.363000
0
LINE
8
Layer 1
10
289.722000
20
455.363000
11
316.394000
21
455.053000
0
LINE
8
Layer 1
10
322.593000
20
466.694000
11
322.592000
21
466.694000
0
LINE
8
Layer 1
10
322.592000
20
466.694000
11
322.592000
21
466.693000
0
LINE
8
Layer 1
10
322.592000
20
466.693000
11
322.593000
21
466.694000
0
LINE
8
Layer 1
10
314.722000
20
640.922000
11
304.123000
21
635.790000
0
LINE
8
Layer 1
10
304.123000
20
635.790000
11
318.850000
21
618.358000
0
LINE
8
Layer 1
10
318.850000
20
618.358000
11
314.722000
21
640.922000
0
LINE
8
Layer 1
10
331.250000
20
477.078000
11
322.980200
21
475.599860
0
LINE
8
Layer 1
10
322.980200
20
475.599860
11
322.980000
21
475.582000
0
LINE
8
Layer 1
10
322.980000
20
475.582000
11
322.980000
21
475.600000
0
LINE
8
Layer 1
10
322.980000
20
475.600000
11
323.259399
21
466.561150
0
LINE
8
Layer 1
10
323.259399
20
466.561150
11
323.260000
21
466.561000
0
LINE
8
Layer 1
10
323.260000
20
466.561000
11
331.250000
21
477.078000
0
LINE
8
Layer 1
10
297.876000
20
415.781000
11
260.166600
21
428.127500
0
LINE
8
Layer 1
10
260.166600
20
428.127500
11
251.241340
21
394.806700
0
LINE
8
Layer 1
10
251.241340
20
394.806700
11
297.876000
21
415.781000
0
LINE
8
Layer 1
10
260.166000
20
428.129000
11
291.702000
21
439.955000
0
LINE
8
Layer 1
10
291.702000
20
439.955000
11
261.654000
21
449.103000
0
LINE
8
Layer 1
10
261.654000
20
449.103000
11
260.166000
21
428.129000
0
LINE
8
Layer 1
10
289.721000
20
455.363000
11
260.164300
21
463.829650
0
LINE
8
Layer 1
10
260.164300
20
463.829650
11
261.651960
21
449.102950
0
LINE
8
Layer 1
10
261.651960
20
449.102950
11
289.721000
21
455.363000
0
LINE
8
Layer 1
10
238.001000
20
130.174000
11
195.624700
21
69.631100
0
LINE
8
Layer 1
10
195.624700
20
69.631100
11
317.368700
21
64.617790
0
LINE
8
Layer 1
10
317.368700
20
64.617790
11
238.001000
21
130.174000
0
LINE
8
Layer 1
10
342.500000
20
5.444250
11
363.921000
21
7.229300
0
LINE
8
Layer 1
10
363.921000
20
7.229300
11
326.212000
21
29.765800
0
LINE
8
Layer 1
10
326.212000
20
29.765800
11
342.500000
21
5.444250
0
LINE
8
Layer 1
10
276.058000
20
8.161520
11
294.080000
21
6.113650
0
LINE
8
Layer 1
10
294.080000
20
6.113650
11
283.816000
21
27.088000
0
LINE
8
Layer 1
10
283.816000
20
27.088000
11
276.058000
21
8.161520
0
LINE
8
Layer 1
10
315.963000
20
4.785440
11
342.502000
21
5.443370
0
LINE
8
Layer 1
10
342.502000
20
5.443370
11
326.213000
21
29.764900
0
LINE
8
Layer 1
10
326.213000
20
29.764900
11
315.963000
21
4.785440
0
LINE
8
Layer 1
10
294.082000
20
6.113650
11
315.963000
21
4.786150
0
LINE
8
Layer 1
10
315.963000
20
4.786150
11
301.817000
21
15.038900
0
LINE
8
Layer 1
10
301.817000
20
15.038900
11
294.082000
21
6.113650
0
LINE
8
Layer 1
10
283.819000
20
27.087200
11
294.083000
21
6.112800
0
LINE
8
Layer 1
10
294.083000
20
6.112800
11
301.818340
21
15.038060
0
LINE
8
Layer 1
10
301.818340
20
15.038060
11
283.819000
21
27.087200
0
LINE
8
Layer 1
10
301.818000
20
15.038000
11
315.964000
21
4.785240
0
LINE
8
Layer 1
10
315.964000
20
4.785240
11
326.214000
21
29.764700
0
LINE
8
Layer 1
10
326.214000
20
29.764700
11
301.818000
21
15.038000
0
LINE
8
Layer 1
10
352.282000
20
28.875800
11
384.260200
21
10.653800
0
LINE
8
Layer 1
10
384.260200
20
10.653800
11
393.949220
21
34.672300
0
LINE
8
Layer 1
10
393.949220
20
34.672300
11
352.282000
21
28.875800
0
LINE
8
Layer 1
10
326.213000
20
29.764800
11
363.922000
21
7.228350
0
LINE
8
Layer 1
10
363.922000
20
7.228350
11
352.282000
21
28.877200
0
LINE
8
Layer 1
10
352.282000
20
28.877200
11
326.213000
21
29.764800
0
LINE
8
Layer 1
10
384.260000
20
10.653900
11
403.862000
21
16.264100
0
LINE
8
Layer 1
10
403.862000
20
16.264100
11
393.949000
21
34.672400
0
LINE
8
Layer 1
10
393.949000
20
34.672400
11
384.260000
21
10.653900
0
LINE
8
Layer 1
10
403.863000
20
16.265700
11
422.225000
21
22.399100
0
LINE
8
Layer 1
10
422.225000
20
22.399100
11
393.950000
21
34.674000
0
LINE
8
Layer 1
10
393.950000
20
34.674000
11
403.863000
21
16.265700
0
LINE
8
Layer 1
10
363.921000
20
7.227540
11
384.259000
21
10.654100
0
LINE
8
Layer 1
10
384.259000
20
10.654100
11
352.281000
21
28.876100
0
LINE
8
Layer 1
10
352.281000
20
28.876100
11
363.921000
21
7.227540
0
LINE
8
Layer 1
10
163.104000
20
53.415900
11
178.500200
21
42.705600
0
LINE
8
Layer 1
10
178.500200
20
42.705600
11
180.238690
21
58.324800
0
LINE
8
Layer 1
10
180.238690
20
58.324800
11
163.104000
21
53.415900
0
LINE
8
Layer 1
10
180.238000
20
58.326500
11
178.499510
21
42.707300
0
LINE
8
Layer 1
10
178.499510
20
42.707300
11
225.401210
21
34.674570
0
LINE
8
Layer 1
10
225.401210
20
34.674570
11
180.238000
21
58.326500
0
LINE
8
Layer 1
10
149.493000
20
63.234500
11
163.103800
21
53.416720
0
LINE
8
Layer 1
10
163.103800
20
53.416720
11
180.238500
21
58.325610
0
LINE
8
Layer 1
10
180.238500
20
58.325610
11
149.493000
21
63.234500
0
LINE
8
Layer 1
10
193.227000
20
34.228300
11
225.358000
21
34.228300
0
LINE
8
Layer 1
10
225.358000
20
34.228300
11
193.227000
21
34.228300
0
LINE
8
Layer 1
10
178.500000
20
42.707300
11
193.078000
21
34.674600
0
LINE
8
Layer 1
10
193.078000
20
34.674600
11
212.416000
21
25.080100
0
LINE
8
Layer 1
10
212.416000
20
25.080100
11
225.402000
21
34.674600
0
LINE
8
Layer 1
10
225.402000
20
34.674600
11
178.500000
21
42.707300
0
LINE
8
Layer 1
10
256.596000
20
24.856700
11
276.060000
21
8.161530
0
LINE
8
Layer 1
10
276.060000
20
8.161530
11
283.818000
21
27.088000
0
LINE
8
Layer 1
10
283.818000
20
27.088000
11
256.596000
21
24.856700
0
LINE
8
Layer 1
10
225.401000
20
34.672800
11
250.213000
21
13.140700
0
LINE
8
Layer 1
10
250.213000
20
13.140700
11
256.595000
21
24.855000
0
LINE
8
Layer 1
10
256.595000
20
24.855000
11
225.401000
21
34.672800
0
LINE
8
Layer 1
10
250.213000
20
13.141000
11
276.059000
21
8.160490
0
LINE
8
Layer 1
10
276.059000
20
8.160490
11
256.595000
21
24.855300
0
LINE
8
Layer 1
10
256.595000
20
24.855300
11
250.213000
21
13.141000
0
LINE
8
Layer 1
10
212.416000
20
25.079000
11
229.820000
21
19.500500
0
LINE
8
Layer 1
10
229.820000
20
19.500500
11
225.402000
21
34.673500
0
LINE
8
Layer 1
10
225.402000
20
34.673500
11
212.416000
21
25.079000
0
LINE
8
Layer 1
10
229.820000
20
19.501600
11
250.213000
21
13.142400
0
LINE
8
Layer 1
10
250.213000
20
13.142400
11
225.401000
21
34.674500
0
LINE
8
Layer 1
10
225.401000
20
34.674500
11
229.820000
21
19.501600
0
LINE
8
Layer 1
10
535.361000
20
122.141000
11
553.933000
21
125.360000
0
LINE
8
Layer 1
10
553.933000
20
125.360000
11
536.849000
21
132.405000
0
LINE
8
Layer 1
10
536.849000
20
132.405000
11
535.361000
21
122.141000
0
LINE
8
Layer 1
10
127.328000
20
83.017400
11
139.228200
21
72.456000
0
LINE
8
Layer 1
10
139.228200
20
72.456000
11
149.492200
21
63.233000
0
LINE
8
Layer 1
10
149.492200
20
63.233000
11
180.238100
21
58.324110
0
LINE
8
Layer 1
10
180.238100
20
58.324110
11
127.328000
21
83.017400
0
LINE
8
Layer 1
10
536.477000
20
102.316000
11
553.933000
21
125.360000
0
LINE
8
Layer 1
10
553.933000
20
125.360000
11
535.362000
21
122.142000
0
LINE
8
Layer 1
10
535.362000
20
122.142000
11
536.477000
21
102.316000
0
LINE
8
Layer 1
10
525.246000
20
111.579000
11
536.477000
21
102.315000
0
LINE
8
Layer 1
10
536.477000
20
102.315000
11
535.361000
21
122.140000
0
LINE
8
Layer 1
10
535.361000
20
122.140000
11
525.246000
21
111.579000
0
LINE
8
Layer 1
10
508.177000
20
109.050000
11
520.784000
21
84.877400
0
LINE
8
Layer 1
10
520.784000
20
84.877400
11
525.246000
21
111.579000
0
LINE
8
Layer 1
10
525.246000
20
111.579000
11
508.177000
21
109.050000
0
LINE
8
Layer 1
10
520.782000
20
84.877500
11
536.476000
21
102.315000
0
LINE
8
Layer 1
10
536.476000
20
102.315000
11
525.245000
21
111.579000
0
LINE
8
Layer 1
10
525.245000
20
111.579000
11
520.782000
21
84.877500
0
LINE
8
Layer 1
10
559.694000
20
141.924000
11
559.694000
21
157.841000
0
LINE
8
Layer 1
10
559.694000
20
157.841000
11
553.595000
21
144.006000
0
LINE
8
Layer 1
10
553.595000
20
144.006000
11
559.694000
21
141.924000
0
LINE
8
Layer 1
10
501.073000
20
95.587800
11
520.783000
21
84.877500
0
LINE
8
Layer 1
10
520.783000
20
84.877500
11
508.176000
21
109.050000
0
LINE
8
Layer 1
10
508.176000
20
109.050000
11
501.073000
21
95.587800
0
LINE
8
Layer 1
10
553.064000
20
144.009000
11
559.162810
21
157.843200
0
LINE
8
Layer 1
10
559.162810
20
157.843200
11
544.367010
21
160.740910
0
LINE
8
Layer 1
10
544.367010
20
160.740910
11
553.064000
21
144.009000
0
LINE
8
Layer 1
10
553.934000
20
125.359000
11
559.163000
21
141.924000
0
LINE
8
Layer 1
10
559.163000
20
141.924000
11
553.064000
21
144.007000
0
LINE
8
Layer 1
10
553.064000
20
144.007000
11
553.934000
21
125.359000
0
LINE
8
Layer 1
10
536.848000
20
132.405000
11
553.932000
21
125.360000
0
LINE
8
Layer 1
10
553.932000
20
125.360000
11
553.062000
21
144.008000
0
LINE
8
Layer 1
10
553.062000
20
144.008000
11
536.848000
21
132.405000
0
LINE
8
Layer 1
10
442.018000
20
29.875900
11
458.083000
21
37.573800
0
LINE
8
Layer 1
10
458.083000
20
37.573800
11
428.742000
21
45.904300
0
LINE
8
Layer 1
10
428.742000
20
45.904300
11
442.018000
21
29.875900
0
LINE
8
Layer 1
10
393.949000
20
34.672800
11
422.224000
21
22.397900
0
LINE
8
Layer 1
10
422.224000
20
22.397900
11
428.742000
21
45.903800
0
LINE
8
Layer 1
10
428.742000
20
45.903800
11
393.949000
21
34.672800
0
LINE
8
Layer 1
10
458.084000
20
37.575300
11
474.149000
21
47.616000
0
LINE
8
Layer 1
10
474.149000
20
47.616000
11
458.828000
21
58.847000
0
LINE
8
Layer 1
10
458.828000
20
58.847000
11
458.084000
21
37.575300
0
LINE
8
Layer 1
10
428.741000
20
45.904300
11
458.082900
21
37.574180
0
LINE
8
Layer 1
10
458.082900
20
37.574180
11
458.826554
21
58.845880
0
LINE
8
Layer 1
10
458.826554
20
58.845880
11
428.741000
21
45.904300
0
LINE
8
Layer 1
10
422.225000
20
22.398800
11
442.019000
21
29.876300
0
LINE
8
Layer 1
10
442.019000
20
29.876300
11
428.742000
21
45.904700
0
LINE
8
Layer 1
10
428.742000
20
45.904700
11
422.225000
21
22.398800
0
LINE
8
Layer 1
10
488.429000
20
56.987700
11
504.941000
21
70.375600
0
LINE
8
Layer 1
10
504.941000
20
70.375600
11
474.149000
21
91.796200
0
LINE
8
Layer 1
10
474.149000
20
91.796200
11
488.429000
21
56.987700
0
LINE
8
Layer 1
10
559.162000
20
157.842000
11
551.185000
21
166.712000
0
LINE
8
Layer 1
10
551.185000
20
166.712000
11
544.366000
21
160.740000
0
LINE
8
Layer 1
10
544.366000
20
160.740000
11
559.162000
21
157.842000
0
LINE
8
Layer 1
10
474.149000
20
91.796300
11
504.941000
21
70.375700
0
LINE
8
Layer 1
10
504.941000
20
70.375700
11
501.074000
21
95.589700
0
LINE
8
Layer 1
10
501.074000
20
95.589700
11
474.149000
21
91.796300
0
LINE
8
Layer 1
10
458.827000
20
58.845100
11
488.429200
21
56.985610
0
LINE
8
Layer 1
10
488.429200
20
56.985610
11
474.148800
21
91.794110
0
LINE
8
Layer 1
10
474.148800
20
91.794110
11
458.827000
21
58.845100
0
LINE
8
Layer 1
10
474.149000
20
47.616200
11
488.429400
21
56.987720
0
LINE
8
Layer 1
10
488.429400
20
56.987720
11
458.827200
21
58.847210
0
LINE
8
Layer 1
10
458.827200
20
58.847210
11
474.149000
21
47.616200
0
LINE
8
Layer 1
10
504.941000
20
70.375600
11
520.784000
21
84.879300
0
LINE
8
Layer 1
10
520.784000
20
84.879300
11
501.074000
21
95.589300
0
LINE
8
Layer 1
10
501.074000
20
95.589300
11
504.941000
21
70.375600
0
LINE
8
Layer 1
10
76.008200
20
512.850000
11
62.435800
21
494.783000
0
LINE
8
Layer 1
10
62.435800
20
494.783000
11
77.198100
21
494.783000
0
LINE
8
Layer 1
10
77.198100
20
494.783000
11
62.435800
21
494.783000
0
LINE
8
Layer 1
10
62.435800
20
494.783000
11
62.322911
21
494.851086
0
LINE
8
Layer 1
10
62.322911
20
494.851086
11
51.463711
21
475.026386
0
LINE
8
Layer 1
10
51.463711
20
475.026386
11
78.313911
21
494.905386
0
LINE
8
Layer 1
10
78.313911
20
494.905386
11
76.008200
21
512.850000
0
LINE
8
Layer 1
10
89.693500
20
526.678000
11
76.008200
21
513.067200
0
LINE
8
Layer 1
10
76.008200
20
513.067200
11
105.554300
21
518.422350
0
LINE
8
Layer 1
10
105.554300
20
518.422350
11
89.693500
21
526.678000
0
LINE
8
Layer 1
10
56.893100
20
431.921000
11
30.935400
21
402.691000
0
LINE
8
Layer 1
10
30.935400
20
402.691000
11
51.612400
21
384.840500
0
LINE
8
Layer 1
10
51.612400
20
384.840500
11
56.893100
21
431.921000
0
LINE
8
Layer 1
10
134.936000
20
531.442000
11
134.936000
21
531.442000
0
LINE
8
Layer 1
10
134.936000
20
531.442000
11
105.088900
21
539.619720
0
LINE
8
Layer 1
10
105.088900
20
539.619720
11
105.553860
21
518.422020
0
LINE
8
Layer 1
10
105.553860
20
518.422020
11
134.936000
21
531.442000
0
LINE
8
Layer 1
10
105.090000
20
539.620000
11
89.693800
21
526.678000
0
LINE
8
Layer 1
10
89.693800
20
526.678000
11
105.555000
21
518.422000
0
LINE
8
Layer 1
10
105.555000
20
518.422000
11
105.090000
21
539.620000
0
LINE
8
Layer 1
10
35.993100
20
428.873000
11
30.935300
21
402.692000
0
LINE
8
Layer 1
10
30.935300
20
402.692000
11
56.893000
21
431.922000
0
LINE
8
Layer 1
10
56.893000
20
431.922000
11
35.993100
21
428.873000
0
LINE
8
Layer 1
10
134.936000
20
531.442000
11
129.410000
21
553.454000
0
LINE
8
Layer 1
10
129.410000
20
553.454000
11
105.089000
21
539.620000
0
LINE
8
Layer 1
10
105.089000
20
539.620000
11
134.936000
21
531.442000
0
LINE
8
Layer 1
10
42.538400
20
453.119000
11
35.993330
21
428.871900
0
LINE
8
Layer 1
10
35.993330
20
428.871900
11
56.893230
21
431.921300
0
LINE
8
Layer 1
10
56.893230
20
431.921300
11
42.538400
21
453.119000
0
LINE
8
Layer 1
10
78.313800
20
495.068000
11
42.538300
21
453.119300
0
LINE
8
Layer 1
10
42.538300
20
453.119300
11
56.893100
21
431.921600
0
LINE
8
Layer 1
10
56.893100
20
431.921600
11
78.313800
21
495.068000
0
LINE
8
Layer 1
10
51.463600
20
475.135000
11
42.538300
21
453.119000
0
LINE
8
Layer 1
10
42.538300
20
453.119000
11
78.313800
21
495.068000
0
LINE
8
Layer 1
10
78.313800
20
495.068000
11
51.463600
21
475.135000
0
LINE
8
Layer 1
10
105.554000
20
518.422000
11
76.007900
21
513.066850
0
LINE
8
Layer 1
10
76.007900
20
513.066850
11
78.313300
21
495.067450
0
LINE
8
Layer 1
10
78.313300
20
495.067450
11
105.554000
21
518.422000
0
LINE
8
Layer 1
10
195.625000
20
69.629500
11
127.328000
21
83.017400
0
LINE
8
Layer 1
10
127.328000
20
83.017400
11
180.238000
21
58.324100
0
LINE
8
Layer 1
10
180.238000
20
58.324100
11
195.625000
21
69.629500
0
LINE
8
Layer 1
10
271.071000
20
570.563000
11
220.225000
21
579.895000
0
LINE
8
Layer 1
10
220.225000
20
579.895000
11
241.720000
21
554.421000
0
LINE
8
Layer 1
10
241.720000
20
554.421000
11
271.071000
21
570.563000
0
LINE
8
Layer 1
10
241.720000
20
554.421000
11
220.225000
21
579.895000
0
LINE
8
Layer 1
10
220.225000
20
579.895000
11
199.176000
21
561.710000
0
LINE
8
Layer 1
10
199.176000
20
561.710000
11
241.720000
21
554.421000
0
LINE
8
Layer 1
10
271.026000
20
585.362000
11
249.234000
21
583.186000
0
LINE
8
Layer 1
10
249.234000
20
583.186000
11
271.073000
21
570.563000
0
LINE
8
Layer 1
10
271.073000
20
570.563000
11
271.026000
21
585.362000
0
LINE
8
Layer 1
10
134.936000
20
531.442000
11
154.401000
21
563.718000
0
LINE
8
Layer 1
10
154.401000
20
563.718000
11
129.410000
21
553.454000
0
LINE
8
Layer 1
10
129.410000
20
553.454000
11
134.936000
21
531.442000
0
LINE
8
Layer 1
10
175.059000
20
554.181000
11
154.352000
21
563.715150
0
LINE
8
Layer 1
10
154.352000
20
563.715150
11
134.936900
21
531.442450
0
LINE
8
Layer 1
10
134.936900
20
531.442450
11
175.059000
21
554.181000
0
LINE
8
Layer 1
10
186.086000
20
572.866000
11
154.401300
21
563.717430
0
LINE
8
Layer 1
10
154.401300
20
563.717430
11
175.078300
21
554.118370
0
LINE
8
Layer 1
10
175.078300
20
554.118370
11
186.086000
21
572.866000
0
LINE
8
Layer 1
10
220.225000
20
579.895000
11
186.085700
21
572.866270
0
LINE
8
Layer 1
10
186.085700
20
572.866270
11
199.176200
21
561.709670
0
LINE
8
Layer 1
10
199.176200
20
561.709670
11
220.225000
21
579.895000
0
LINE
8
Layer 1
10
199.177000
20
561.710000
11
186.087000
21
572.867000
0
LINE
8
Layer 1
10
186.087000
20
572.867000
11
175.079000
21
554.119000
0
LINE
8
Layer 1
10
175.079000
20
554.119000
11
199.177000
21
561.710000
0
LINE
8
Layer 1
10
249.232000
20
583.186000
11
220.225000
21
579.895000
0
LINE
8
Layer 1
10
220.225000
20
579.895000
11
271.071000
21
570.563000
0
LINE
8
Layer 1
10
271.071000
20
570.563000
11
249.232000
21
583.186000
0
LINE
8
Layer 1
10
82.404500
20
176.511000
11
80.916800
21
143.711000
0
LINE
8
Layer 1
10
80.916800
20
143.711000
11
164.721000
21
119.799000
0
LINE
8
Layer 1
10
164.721000
20
119.799000
11
82.404500
21
176.511000
0
LINE
8
Layer 1
10
69.760300
20
163.345000
11
80.916900
21
143.709400
0
LINE
8
Layer 1
10
80.916900
20
143.709400
11
82.404560
21
176.509500
0
LINE
8
Layer 1
10
82.404560
20
176.509500
11
69.760300
21
163.345000
0
LINE
8
Layer 1
10
60.983800
20
182.239000
11
69.760200
21
163.347000
0
LINE
8
Layer 1
10
69.760200
20
163.347000
11
82.404400
21
176.512000
0
LINE
8
Layer 1
10
82.404400
20
176.512000
11
60.983800
21
182.239000
0
LINE
8
Layer 1
10
91.478600
20
219.204000
11
60.983900
21
182.238600
0
LINE
8
Layer 1
10
60.983900
20
182.238600
11
82.404500
21
176.511620
0
LINE
8
Layer 1
10
82.404500
20
176.511620
11
91.478600
21
219.204000
0
LINE
8
Layer 1
10
51.612300
20
206.485000
11
60.983800
21
182.238000
0
LINE
8
Layer 1
10
60.983800
20
182.238000
11
91.478600
21
219.203000
0
LINE
8
Layer 1
10
91.478600
20
219.203000
11
51.612300
21
206.485000
0
LINE
8
Layer 1
10
80.917000
20
143.710000
11
91.478400
21
127.049000
0
LINE
8
Layer 1
10
91.478400
20
127.049000
11
164.721000
21
119.798000
0
LINE
8
Layer 1
10
164.721000
20
119.798000
11
80.917000
21
143.710000
0
LINE
8
Layer 1
10
114.684000
20
95.960900
11
127.328200
21
83.019300
0
LINE
8
Layer 1
10
127.328200
20
83.019300
11
195.624800
21
69.631400
0
LINE
8
Layer 1
10
195.624800
20
69.631400
11
114.684000
21
95.960900
0
LINE
8
Layer 1
10
164.721000
20
119.797000
11
114.684000
21
95.959200
0
LINE
8
Layer 1
10
114.684000
20
95.959200
11
195.625000
21
69.629600
0
LINE
8
Layer 1
10
195.625000
20
69.629600
11
164.721000
21
119.797000
0
LINE
8
Layer 1
10
103.335000
20
110.479000
11
114.684000
21
95.960500
0
LINE
8
Layer 1
10
114.684000
20
95.960500
11
164.721000
21
119.798000
0
LINE
8
Layer 1
10
164.721000
20
119.798000
11
103.335000
21
110.479000
0
LINE
8
Layer 1
10
91.478600
20
127.049000
11
103.335400
21
110.478000
0
LINE
8
Layer 1
10
103.335400
20
110.478000
11
164.721400
21
119.797310
0
LINE
8
Layer 1
10
164.721400
20
119.797310
11
91.478600
21
127.049000
0
LINE
8
Layer 1
10
37.183200
20
257.955000
11
43.579750
21
231.922900
0
LINE
8
Layer 1
10
43.579750
20
231.922900
11
49.801680
21
245.806800
0
LINE
8
Layer 1
10
49.801680
20
245.806800
11
37.183200
21
257.955000
0
LINE
8
Layer 1
10
49.801700
20
245.805000
11
51.612500
21
206.484100
0
LINE
8
Layer 1
10
51.612500
20
206.484100
11
91.478400
21
219.202800
0
LINE
8
Layer 1
10
91.478400
20
219.202800
11
49.801700
21
245.805000
0
LINE
8
Layer 1
10
27.960400
20
375.464000
11
26.522500
21
345.558000
0
LINE
8
Layer 1
10
26.522500
20
345.558000
11
37.034500
21
345.558000
0
LINE
8
Layer 1
10
37.034500
20
345.558000
11
26.522500
21
345.558000
0
LINE
8
Layer 1
10
26.522500
20
345.558000
11
28.740700
21
314.434000
0
LINE
8
Layer 1
10
28.740700
20
314.434000
11
37.075800
21
345.862000
0
LINE
8
Layer 1
10
37.075800
20
345.862000
11
27.960400
21
375.464000
0
LINE
8
Layer 1
10
51.612300
20
384.841000
11
27.960400
21
375.766870
0
LINE
8
Layer 1
10
27.960400
20
375.766870
11
37.075800
21
346.164970
0
LINE
8
Layer 1
10
37.075800
20
346.164970
11
51.612300
21
384.841000
0
LINE
8
Layer 1
10
28.740900
20
314.737000
11
31.679180
21
287.556200
0
LINE
8
Layer 1
10
31.679180
20
287.556200
11
51.612480
21
311.961300
0
LINE
8
Layer 1
10
51.612480
20
311.961300
11
28.740900
21
314.737000
0
LINE
8
Layer 1
10
37.075800
20
346.164000
11
28.740740
21
314.735400
0
LINE
8
Layer 1
10
28.740740
20
314.735400
11
51.612340
21
311.959750
0
LINE
8
Layer 1
10
51.612340
20
311.959750
11
37.075800
21
346.164000
0
LINE
8
Layer 1
10
43.579500
20
231.922000
11
51.612200
21
206.485000
0
LINE
8
Layer 1
10
51.612200
20
206.485000
11
49.801400
21
245.806000
0
LINE
8
Layer 1
10
49.801400
20
245.806000
11
43.579500
21
231.922000
0
LINE
8
Layer 1
10
30.935600
20
402.692000
11
27.960600
21
375.767000
0
LINE
8
Layer 1
10
27.960600
20
375.767000
11
51.612600
21
384.841000
0
LINE
8
Layer 1
10
51.612600
20
384.841000
11
30.935600
21
402.692000
0
LINE
8
Layer 1
10
31.679400
20
287.556000
11
37.183400
21
257.954000
0
LINE
8
Layer 1
10
37.183400
20
257.954000
11
51.612400
21
311.961000
0
LINE
8
Layer 1
10
51.612400
20
311.961000
11
31.679400
21
287.556000
0
LINE
8
Layer 1
10
51.612300
20
311.961000
11
37.183000
21
257.954000
0
LINE
8
Layer 1
10
37.183000
20
257.954000
11
49.801500
21
245.805400
0
LINE
8
Layer 1
10
49.801500
20
245.805400
11
51.612300
21
311.961000
0
LINE
8
Layer 1
10
596.350000
20
452.971000
11
586.978000
21
474.689000
0
LINE
8
Layer 1
10
586.978000
20
474.689000
11
575.450000
21
461.561000
0
LINE
8
Layer 1
10
575.450000
20
461.561000
11
596.350000
21
452.971000
0
LINE
8
Layer 1
10
436.245000
20
562.156000
11
444.917000
21
574.651000
0
LINE
8
Layer 1
10
444.917000
20
574.651000
11
414.348000
21
571.676000
0
LINE
8
Layer 1
10
414.348000
20
571.676000
11
436.245000
21
562.156000
0
LINE
8
Layer 1
10
473.480000
20
567.511000
11
459.795000
21
571.676000
0
LINE
8
Layer 1
10
459.795000
20
571.676000
11
456.522000
21
562.156000
0
LINE
8
Layer 1
10
456.522000
20
562.156000
11
473.480000
21
567.511000
0
LINE
8
Layer 1
10
444.918000
20
574.651000
11
421.601000
21
578.444000
0
LINE
8
Layer 1
10
421.601000
20
578.444000
11
414.349000
21
571.676000
0
LINE
8
Layer 1
10
414.349000
20
571.676000
11
444.918000
21
574.651000
0
LINE
8
Layer 1
10
456.523000
20
561.810000
11
444.920000
21
574.305000
0
LINE
8
Layer 1
10
444.920000
20
574.305000
11
436.248000
21
561.810000
0
LINE
8
Layer 1
10
436.248000
20
561.810000
11
456.523000
21
561.810000
0
LINE
8
Layer 1
10
481.438000
20
584.692000
11
505.164000
21
588.708000
0
LINE
8
Layer 1
10
505.164000
20
588.708000
11
481.413000
21
607.674000
0
LINE
8
Layer 1
10
481.413000
20
607.674000
11
481.438000
21
584.692000
0
LINE
8
Layer 1
10
414.351000
20
571.676000
11
421.602680
21
578.444380
0
LINE
8
Layer 1
10
421.602680
20
578.444380
11
404.033680
21
581.153710
0
LINE
8
Layer 1
10
404.033680
20
581.153710
11
414.351000
21
571.676000
0
LINE
8
Layer 1
10
456.523000
20
579.895000
11
481.439000
21
584.692000
0
LINE
8
Layer 1
10
481.439000
20
584.692000
11
439.063000
21
595.737000
0
LINE
8
Layer 1
10
439.063000
20
595.737000
11
456.523000
21
579.895000
0
LINE
8
Layer 1
10
439.060000
20
595.737000
11
481.436300
21
584.691900
0
LINE
8
Layer 1
10
481.436300
20
584.691900
11
481.411606
21
607.674600
0
LINE
8
Layer 1
10
481.411606
20
607.674600
11
439.060000
21
595.737000
0
LINE
8
Layer 1
10
404.032000
20
581.154000
11
421.601000
21
578.445000
0
LINE
8
Layer 1
10
421.601000
20
578.445000
11
439.061000
21
595.737000
0
LINE
8
Layer 1
10
439.061000
20
595.737000
11
404.032000
21
581.154000
0
LINE
8
Layer 1
10
421.600000
20
578.445000
11
456.520000
21
579.895000
0
LINE
8
Layer 1
10
456.520000
20
579.895000
11
439.060000
21
595.738000
0
LINE
8
Layer 1
10
439.060000
20
595.738000
11
421.600000
21
578.445000
0
LINE
8
Layer 1
10
459.793000
20
571.676000
11
444.917500
21
574.650970
0
LINE
8
Layer 1
10
444.917500
20
574.650970
11
456.520300
21
562.155570
0
LINE
8
Layer 1
10
456.520300
20
562.155570
11
459.793000
21
571.676000
0
LINE
8
Layer 1
10
482.460000
20
549.661000
11
473.480000
21
567.512000
0
LINE
8
Layer 1
10
473.480000
20
567.512000
11
456.522000
21
562.156000
0
LINE
8
Layer 1
10
456.522000
20
562.156000
11
482.460000
21
549.661000
0
LINE
8
Layer 1
10
562.136000
20
510.985000
11
548.153000
21
525.265000
0
LINE
8
Layer 1
10
548.153000
20
525.265000
11
510.221000
21
529.133000
0
LINE
8
Layer 1
10
510.221000
20
529.133000
11
562.136000
21
510.985000
0
LINE
8
Layer 1
10
548.153000
20
525.265000
11
532.087500
21
538.057800
0
LINE
8
Layer 1
10
532.087500
20
538.057800
11
510.220600
21
529.132540
0
LINE
8
Layer 1
10
510.220600
20
529.132540
11
548.153000
21
525.265000
0
LINE
8
Layer 1
10
543.766000
20
492.762000
11
562.137000
21
510.984000
0
LINE
8
Layer 1
10
562.137000
20
510.984000
11
510.222000
21
529.132000
0
LINE
8
Layer 1
10
510.222000
20
529.132000
11
543.766000
21
492.762000
0
LINE
8
Layer 1
10
532.088000
20
538.058000
11
519.593000
21
546.983000
0
LINE
8
Layer 1
10
519.593000
20
546.983000
11
510.221000
21
529.133000
0
LINE
8
Layer 1
10
510.221000
20
529.133000
11
532.088000
21
538.058000
0
LINE
8
Layer 1
10
519.594000
20
546.983000
11
506.206000
21
554.421000
0
LINE
8
Layer 1
10
506.206000
20
554.421000
11
510.222000
21
529.132000
0
LINE
8
Layer 1
10
510.222000
20
529.132000
11
519.594000
21
546.983000
0
LINE
8
Layer 1
10
489.246000
20
562.156000
11
473.477900
21
567.511150
0
LINE
8
Layer 1
10
473.477900
20
567.511150
11
482.457840
21
549.660650
0
LINE
8
Layer 1
10
482.457840
20
549.660650
11
489.246000
21
562.156000
0
LINE
8
Layer 1
10
506.206000
20
554.421000
11
489.248000
21
562.156340
0
LINE
8
Layer 1
10
489.248000
20
562.156340
11
482.459860
21
549.660940
0
LINE
8
Layer 1
10
482.459860
20
549.660940
11
506.206000
21
554.421000
0
LINE
8
Layer 1
10
510.223000
20
529.133000
11
506.207000
21
554.421000
0
LINE
8
Layer 1
10
506.207000
20
554.421000
11
482.461000
21
549.661000
0
LINE
8
Layer 1
10
482.461000
20
549.661000
11
510.223000
21
529.133000
0
LINE
8
Layer 1
10
556.395000
20
584.990000
11
578.574000
21
588.709000
0
LINE
8
Layer 1
10
578.574000
20
588.709000
11
538.396000
21
609.906000
0
LINE
8
Layer 1
10
538.396000
20
609.906000
11
556.395000
21
584.990000
0
LINE
8
Layer 1
10
642.842000
20
583.447000
11
664.479000
21
583.577000
0
LINE
8
Layer 1
10
664.479000
20
583.577000
11
658.350000
21
602.201000
0
LINE
8
Layer 1
10
658.350000
20
602.201000
11
642.842000
21
583.447000
0
LINE
8
Layer 1
10
623.200000
20
588.709000
11
642.842000
21
583.447000
0
LINE
8
Layer 1
10
642.842000
20
583.447000
11
658.351000
21
602.201000
0
LINE
8
Layer 1
10
658.351000
20
602.201000
11
623.200000
21
588.709000
0
LINE
8
Layer 1
10
658.791000
20
616.736000
11
623.201400
21
588.708900
0
LINE
8
Layer 1
10
623.201400
20
588.708900
11
658.352100
21
602.201200
0
LINE
8
Layer 1
10
658.352100
20
602.201200
11
658.791000
21
616.736000
0
LINE
8
Layer 1
10
630.563000
20
629.430000
11
623.200000
21
588.709000
0
LINE
8
Layer 1
10
623.200000
20
588.709000
11
658.789000
21
616.735000
0
LINE
8
Layer 1
10
658.789000
20
616.735000
11
630.563000
21
629.430000
0
LINE
8
Layer 1
10
658.352000
20
602.201000
11
664.481000
21
583.577000
0
LINE
8
Layer 1
10
664.481000
20
583.577000
11
679.726000
21
603.137000
0
LINE
8
Layer 1
10
679.726000
20
603.137000
11
658.352000
21
602.201000
0
LINE
8
Layer 1
10
481.412000
20
607.675000
11
505.163000
21
588.709000
0
LINE
8
Layer 1
10
505.163000
20
588.709000
11
508.212000
21
619.278000
0
LINE
8
Layer 1
10
508.212000
20
619.278000
11
481.412000
21
607.675000
0
LINE
8
Layer 1
10
602.895000
20
599.642000
11
623.200000
21
588.709000
0
LINE
8
Layer 1
10
623.200000
20
588.709000
11
630.563000
21
629.430000
0
LINE
8
Layer 1
10
630.563000
20
629.430000
11
602.895000
21
599.642000
0
LINE
8
Layer 1
10
664.480000
20
583.577000
11
683.446000
21
582.405000
0
LINE
8
Layer 1
10
683.446000
20
582.405000
11
679.726000
21
603.137000
0
LINE
8
Layer 1
10
679.726000
20
603.137000
11
664.480000
21
583.577000
0
LINE
8
Layer 1
10
679.725000
20
603.137000
11
683.445390
21
582.405400
0
LINE
8
Layer 1
10
683.445390
20
582.405400
11
693.151340
21
588.708820
0
LINE
8
Layer 1
10
693.151340
20
588.708820
11
679.725000
21
603.137000
0
LINE
8
Layer 1
10
693.153000
20
588.709000
11
683.447000
21
582.406000
0
LINE
8
Layer 1
10
683.447000
20
582.406000
11
702.859000
21
569.594000
0
LINE
8
Layer 1
10
702.859000
20
569.594000
11
693.153000
21
588.709000
0
LINE
8
Layer 1
10
525.841000
20
581.345000
11
556.396000
21
584.990000
0
LINE
8
Layer 1
10
556.396000
20
584.990000
11
538.397000
21
609.905000
0
LINE
8
Layer 1
10
538.397000
20
609.905000
11
525.841000
21
581.345000
0
LINE
8
Layer 1
10
505.164000
20
588.709000
11
525.841000
21
581.345000
0
LINE
8
Layer 1
10
525.841000
20
581.345000
11
538.397000
21
609.906000
0
LINE
8
Layer 1
10
538.397000
20
609.906000
11
505.164000
21
588.709000
0
LINE
8
Layer 1
10
587.462000
20
637.649000
11
602.895300
21
599.642200
0
LINE
8
Layer 1
10
602.895300
20
599.642200
11
630.563600
21
629.430300
0
LINE
8
Layer 1
10
630.563600
20
629.430300
11
587.462000
21
637.649000
0
LINE
8
Layer 1
10
574.334000
20
494.622000
11
562.136000
21
510.985000
0
LINE
8
Layer 1
10
562.136000
20
510.985000
11
543.765000
21
492.763000
0
LINE
8
Layer 1
10
543.765000
20
492.763000
11
574.334000
21
494.622000
0
LINE
8
Layer 1
10
508.214000
20
619.278000
11
505.164600
21
588.709200
0
LINE
8
Layer 1
10
505.164600
20
588.709200
11
538.397300
21
609.906200
0
LINE
8
Layer 1
10
538.397300
20
609.906200
11
508.214000
21
619.278000
0
LINE
8
Layer 1
10
579.689000
20
607.675000
11
602.895000
21
599.642000
0
LINE
8
Layer 1
10
602.895000
20
599.642000
11
587.461000
21
637.649000
0
LINE
8
Layer 1
10
587.461000
20
637.649000
11
579.689000
21
607.675000
0
LINE
8
Layer 1
10
596.350000
20
591.833000
11
602.895070
21
599.642420
0
LINE
8
Layer 1
10
602.895070
20
599.642420
11
579.689370
21
607.675150
0
LINE
8
Layer 1
10
579.689370
20
607.675150
11
596.350000
21
591.833000
0
LINE
8
Layer 1
10
538.398000
20
609.906000
11
578.575800
21
588.709000
0
LINE
8
Layer 1
10
578.575800
20
588.709000
11
579.691280
21
607.675000
0
LINE
8
Layer 1
10
579.691280
20
607.675000
11
538.398000
21
609.906000
0
LINE
8
Layer 1
10
578.575000
20
588.709000
11
596.351000
21
591.833000
0
LINE
8
Layer 1
10
596.351000
20
591.833000
11
579.690000
21
607.675000
0
LINE
8
Layer 1
10
579.690000
20
607.675000
11
578.575000
21
588.709000
0
LINE
8
Layer 1
10
498.880000
20
300.944000
11
508.735000
21
322.513000
0
LINE
8
Layer 1
10
508.735000
20
322.513000
11
487.612000
21
327.088000
0
LINE
8
Layer 1
10
487.612000
20
327.088000
11
498.880000
21
300.944000
0
LINE
8
Layer 1
10
495.829000
20
248.911000
11
503.825000
21
266.506000
0
LINE
8
Layer 1
10
503.825000
20
266.506000
11
496.090000
21
271.639000
0
LINE
8
Layer 1
10
496.090000
20
271.639000
11
495.829000
21
248.911000
0
LINE
8
Layer 1
10
469.463000
20
306.299000
11
479.945000
21
334.465000
0
LINE
8
Layer 1
10
479.945000
20
334.465000
11
467.232000
21
319.389000
0
LINE
8
Layer 1
10
467.232000
20
319.389000
11
469.463000
21
306.299000
0
LINE
8
Layer 1
10
575.450000
20
461.561000
11
574.334520
21
494.621500
0
LINE
8
Layer 1
10
574.334520
20
494.621500
11
543.765320
21
492.762370
0
LINE
8
Layer 1
10
543.765320
20
492.762370
11
575.450000
21
461.561000
0
LINE
8
Layer 1
10
506.058000
20
276.772000
11
510.163620
21
283.867760
0
LINE
8
Layer 1
10
510.163620
20
283.867760
11
496.091320
21
271.640160
0
LINE
8
Layer 1
10
496.091320
20
271.640160
11
506.058000
21
276.772000
0
LINE
8
Layer 1
10
500.065000
20
233.706000
11
505.834000
21
248.990000
0
LINE
8
Layer 1
10
505.834000
20
248.990000
11
495.829000
21
248.911000
0
LINE
8
Layer 1
10
495.829000
20
248.911000
11
500.065000
21
233.706000
0
LINE
8
Layer 1
10
510.162000
20
283.868000
11
510.073000
21
305.110000
0
LINE
8
Layer 1
10
510.073000
20
305.110000
11
498.879000
21
300.945000
0
LINE
8
Layer 1
10
498.879000
20
300.945000
11
510.162000
21
283.868000
0
LINE
8
Layer 1
10
510.074000
20
305.109000
11
508.735000
21
322.513000
0
LINE
8
Layer 1
10
508.735000
20
322.513000
11
498.880000
21
300.944000
0
LINE
8
Layer 1
10
498.880000
20
300.944000
11
510.074000
21
305.109000
0
LINE
8
Layer 1
10
510.966000
20
233.261000
11
500.256000
21
233.261000
0
LINE
8
Layer 1
10
500.256000
20
233.261000
11
510.966000
21
233.261000
0
LINE
8
Layer 1
10
500.575000
20
211.394000
11
511.092000
21
233.707000
0
LINE
8
Layer 1
10
511.092000
20
233.707000
11
505.834000
21
248.992000
0
LINE
8
Layer 1
10
505.834000
20
248.992000
11
500.065000
21
233.707000
0
LINE
8
Layer 1
10
500.065000
20
233.707000
11
500.575000
21
211.394000
0
LINE
8
Layer 1
10
496.091000
20
271.639000
11
510.163000
21
283.867000
0
LINE
8
Layer 1
10
510.163000
20
283.867000
11
498.620000
21
286.663000
0
LINE
8
Layer 1
10
498.620000
20
286.663000
11
496.091000
21
271.639000
0
LINE
8
Layer 1
10
498.618000
20
286.665000
11
510.161000
21
283.869000
0
LINE
8
Layer 1
10
510.161000
20
283.869000
11
498.878000
21
300.945000
0
LINE
8
Layer 1
10
498.878000
20
300.945000
11
498.618000
21
286.665000
0
LINE
8
Layer 1
10
525.246000
20
171.825000
11
528.816000
21
211.394000
0
LINE
8
Layer 1
10
528.816000
20
211.394000
11
517.604000
21
200.683000
0
LINE
8
Layer 1
10
517.604000
20
200.683000
11
525.246000
21
171.825000
0
LINE
8
Layer 1
10
551.130000
20
188.187000
11
545.440060
21
205.145000
0
LINE
8
Layer 1
10
545.440060
20
205.145000
11
542.799880
21
183.724400
0
LINE
8
Layer 1
10
542.799880
20
183.724400
11
551.130000
21
188.187000
0
LINE
8
Layer 1
10
545.439000
20
205.146000
11
536.849000
21
211.728000
0
LINE
8
Layer 1
10
536.849000
20
211.728000
11
542.798000
21
183.725000
0
LINE
8
Layer 1
10
542.798000
20
183.725000
11
545.439000
21
205.146000
0
LINE
8
Layer 1
10
518.774000
20
220.095000
11
511.089810
21
233.705800
0
LINE
8
Layer 1
10
511.089810
20
233.705800
11
500.572810
21
211.392700
0
LINE
8
Layer 1
10
500.572810
20
211.392700
11
518.774000
21
220.095000
0
LINE
8
Layer 1
10
551.185000
20
166.710000
11
551.129000
21
188.186000
0
LINE
8
Layer 1
10
551.129000
20
188.186000
11
542.799000
21
183.724000
0
LINE
8
Layer 1
10
542.799000
20
183.724000
11
551.185000
21
166.710000
0
LINE
8
Layer 1
10
542.798000
20
183.726000
11
536.848000
21
211.729000
0
LINE
8
Layer 1
10
536.848000
20
211.729000
11
525.245000
21
171.826000
0
LINE
8
Layer 1
10
525.245000
20
171.826000
11
542.798000
21
183.726000
0
LINE
8
Layer 1
10
517.604000
20
200.683000
11
518.776000
21
220.096000
0
LINE
8
Layer 1
10
518.776000
20
220.096000
11
500.574000
21
211.393000
0
LINE
8
Layer 1
10
500.574000
20
211.393000
11
517.604000
21
200.683000
0
LINE
8
Layer 1
10
528.815000
20
211.393000
11
518.774000
21
220.095000
0
LINE
8
Layer 1
10
518.774000
20
220.095000
11
517.603000
21
200.683000
0
LINE
8
Layer 1
10
517.603000
20
200.683000
11
528.815000
21
211.393000
0
LINE
8
Layer 1
10
544.367000
20
160.739000
11
551.186000
21
166.711000
0
LINE
8
Layer 1
10
551.186000
20
166.711000
11
542.800000
21
183.725000
0
LINE
8
Layer 1
10
542.800000
20
183.725000
11
544.367000
21
160.739000
0
LINE
8
Layer 1
10
536.848000
20
211.729000
11
528.815000
21
211.394000
0
LINE
8
Layer 1
10
528.815000
20
211.394000
11
525.245000
21
171.826000
0
LINE
8
Layer 1
10
525.245000
20
171.826000
11
536.848000
21
211.729000
0
LINE
8
Layer 1
10
505.833000
20
248.991000
11
503.825000
21
266.507000
0
LINE
8
Layer 1
10
503.825000
20
266.507000
11
495.829000
21
248.911000
0
LINE
8
Layer 1
10
495.829000
20
248.911000
11
505.833000
21
248.991000
0
LINE
8
Layer 1
10
539.081000
20
423.851000
11
565.411000
21
407.748000
0
LINE
8
Layer 1
10
565.411000
20
407.748000
11
560.948000
21
443.635000
0
LINE
8
Layer 1
10
560.948000
20
443.635000
11
539.081000
21
423.851000
0
LINE
8
Layer 1
10
565.409000
20
407.749000
11
582.070000
21
411.319000
0
LINE
8
Layer 1
10
582.070000
20
411.319000
11
560.946000
21
443.636000
0
LINE
8
Layer 1
10
560.946000
20
443.636000
11
565.409000
21
407.749000
0
LINE
8
Layer 1
10
508.733000
20
322.513000
11
509.402000
21
334.785000
0
LINE
8
Layer 1
10
509.402000
20
334.785000
11
487.610000
21
327.087000
0
LINE
8
Layer 1
10
487.610000
20
327.087000
11
508.733000
21
322.513000
0
LINE
8
Layer 1
10
550.905000
20
398.602000
11
565.409000
21
407.750000
0
LINE
8
Layer 1
10
565.409000
20
407.750000
11
539.079000
21
423.853000
0
LINE
8
Layer 1
10
539.079000
20
423.853000
11
550.905000
21
398.602000
0
LINE
8
Layer 1
10
560.946000
20
443.637000
11
582.069000
21
411.320000
0
LINE
8
Layer 1
10
582.069000
20
411.320000
11
575.449000
21
461.562000
0
LINE
8
Layer 1
10
575.449000
20
461.562000
11
560.946000
21
443.637000
0
LINE
8
Layer 1
10
522.346000
20
411.487000
11
550.907000
21
398.601000
0
LINE
8
Layer 1
10
550.907000
20
398.601000
11
539.081000
21
423.852000
0
LINE
8
Layer 1
10
539.081000
20
423.852000
11
522.346000
21
411.487000
0
LINE
8
Layer 1
10
290.512000
20
587.147000
11
271.025300
21
585.361950
0
LINE
8
Layer 1
10
271.025300
20
585.361950
11
271.071514
21
570.563350
0
LINE
8
Layer 1
10
271.071514
20
570.563350
11
290.512000
21
587.147000
0
LINE
8
Layer 1
10
582.070000
20
411.320000
11
591.887780
21
444.938600
0
LINE
8
Layer 1
10
591.887780
20
444.938600
11
575.450480
21
461.561800
0
LINE
8
Layer 1
10
575.450480
20
461.561800
11
582.070000
21
411.320000
0
LINE
8
Layer 1
10
586.978000
20
474.689000
11
574.333800
21
494.622000
0
LINE
8
Layer 1
10
574.333800
20
494.622000
11
575.449630
21
461.561500
0
LINE
8
Layer 1
10
575.449630
20
461.561500
11
586.978000
21
474.689000
0
LINE
8
Layer 1
10
591.889000
20
444.938000
11
596.352000
21
452.971000
0
LINE
8
Layer 1
10
596.352000
20
452.971000
11
575.452000
21
461.561000
0
LINE
8
Layer 1
10
575.452000
20
461.561000
11
591.889000
21
444.938000
0
LINE
8
Layer 1
10
543.766000
20
384.989000
11
550.906000
21
398.600000
0
LINE
8
Layer 1
10
550.906000
20
398.600000
11
522.345000
21
411.486000
0
LINE
8
Layer 1
10
522.345000
20
411.486000
11
543.766000
21
384.989000
0
LINE
8
Layer 1
10
509.402000
20
334.784000
11
514.675000
21
348.603000
0
LINE
8
Layer 1
10
514.675000
20
348.603000
11
496.089000
21
339.916000
0
LINE
8
Layer 1
10
496.089000
20
339.916000
11
509.402000
21
334.784000
0
LINE
8
Layer 1
10
496.091000
20
339.917000
11
514.677400
21
348.604130
0
LINE
8
Layer 1
10
514.677400
20
348.604130
11
493.016900
21
347.850598
0
LINE
8
Layer 1
10
493.016900
20
347.850598
11
496.091000
21
339.917000
0
LINE
8
Layer 1
10
487.611000
20
327.088000
11
509.403000
21
334.786000
0
LINE
8
Layer 1
10
509.403000
20
334.786000
11
496.090000
21
339.918000
0
LINE
8
Layer 1
10
496.090000
20
339.918000
11
487.611000
21
327.088000
0
LINE
8
Layer 1
10
493.017000
20
347.852000
11
514.678000
21
348.606000
0
LINE
8
Layer 1
10
514.678000
20
348.606000
11
504.942000
21
354.645000
0
LINE
8
Layer 1
10
504.942000
20
354.645000
11
493.017000
21
347.852000
0
LINE
8
Layer 1
10
514.675000
20
348.604000
11
520.112000
21
359.552000
0
LINE
8
Layer 1
10
520.112000
20
359.552000
11
504.939000
21
354.644000
0
LINE
8
Layer 1
10
504.939000
20
354.644000
11
514.675000
21
348.604000
0
LINE
8
Layer 1
10
539.081000
20
369.818000
11
543.766580
21
384.990900
0
LINE
8
Layer 1
10
543.766580
20
384.990900
11
522.345980
21
411.487600
0
LINE
8
Layer 1
10
522.345980
20
411.487600
11
539.081000
21
369.818000
0
LINE
8
Layer 1
10
520.113000
20
359.552000
11
539.079000
21
369.816000
0
LINE
8
Layer 1
10
539.079000
20
369.816000
11
505.610000
21
369.147000
0
LINE
8
Layer 1
10
505.610000
20
369.147000
11
520.113000
21
359.552000
0
LINE
8
Layer 1
10
505.611000
20
369.148000
11
539.081000
21
369.817000
0
LINE
8
Layer 1
10
539.081000
20
369.817000
11
522.346000
21
411.487000
0
LINE
8
Layer 1
10
522.346000
20
411.487000
11
505.611000
21
369.148000
0
LINE
8
Layer 1
10
504.941000
20
354.644000
11
520.114000
21
359.553000
0
LINE
8
Layer 1
10
520.114000
20
359.553000
11
505.611000
21
369.148000
0
LINE
8
Layer 1
10
505.611000
20
369.148000
11
504.941000
21
354.644000
0
LINE
8
Layer 1
10
503.825000
20
266.506000
11
506.056000
21
276.770000
0
LINE
8
Layer 1
10
506.056000
20
276.770000
11
496.090000
21
271.638000
0
LINE
8
Layer 1
10
496.090000
20
271.638000
11
503.825000
21
266.506000
0
LINE
8
Layer 1
10
56.893100
20
431.921000
11
51.612380
21
384.840400
0
LINE
8
Layer 1
10
51.612380
20
384.840400
11
94.003780
21
415.781100
0
LINE
8
Layer 1
10
94.003780
20
415.781100
11
56.893100
21
431.921000
0
LINE
8
Layer 1
10
94.003800
20
415.781000
11
51.612400
21
384.840000
0
LINE
8
Layer 1
10
51.612400
20
384.840000
11
117.034000
21
361.471000
0
LINE
8
Layer 1
10
117.034000
20
361.471000
11
94.003800
21
415.781000
0
LINE
8
Layer 1
10
78.313800
20
495.068000
11
56.893200
21
431.921600
0
LINE
8
Layer 1
10
56.893200
20
431.921600
11
114.684100
21
464.127000
0
LINE
8
Layer 1
10
114.684100
20
464.127000
11
78.313800
21
495.068000
0
LINE
8
Layer 1
10
241.720000
20
554.421000
11
199.176000
21
561.710000
0
LINE
8
Layer 1
10
199.176000
20
561.710000
11
195.011000
21
525.953000
0
LINE
8
Layer 1
10
195.011000
20
525.953000
11
241.720000
21
554.421000
0
LINE
8
Layer 1
10
117.034000
20
361.473000
11
51.611900
21
384.842400
0
LINE
8
Layer 1
10
51.611900
20
384.842400
11
73.330300
21
324.745400
0
LINE
8
Layer 1
10
73.330300
20
324.745400
11
117.034000
21
361.473000
0
LINE
8
Layer 1
10
49.801700
20
245.805000
11
91.478400
21
219.203000
0
LINE
8
Layer 1
10
91.478400
20
219.203000
11
73.330500
21
324.744000
0
LINE
8
Layer 1
10
73.330500
20
324.744000
11
49.801700
21
245.805000
0
LINE
8
Layer 1
10
105.554000
20
518.422000
11
78.313300
21
495.067000
0
LINE
8
Layer 1
10
78.313300
20
495.067000
11
114.684000
21
464.127000
0
LINE
8
Layer 1
10
114.684000
20
464.127000
11
105.554000
21
518.422000
0
LINE
8
Layer 1
10
51.612300
20
311.961000
11
49.801500
21
245.805000
0
LINE
8
Layer 1
10
49.801500
20
245.805000
11
73.330300
21
324.745000
0
LINE
8
Layer 1
10
73.330300
20
324.745000
11
51.612300
21
311.961000
0
LINE
8
Layer 1
10
51.612300
20
384.841000
11
37.075800
21
346.165000
0
LINE
8
Layer 1
10
37.075800
20
346.165000
11
73.330300
21
324.744000
0
LINE
8
Layer 1
10
73.330300
20
324.744000
11
51.612300
21
384.841000
0
LINE
8
Layer 1
10
37.075800
20
346.164000
11
51.612300
21
311.960000
0
LINE
8
Layer 1
10
51.612300
20
311.960000
11
73.330700
21
324.743000
0
LINE
8
Layer 1
10
73.330700
20
324.743000
11
37.075800
21
346.164000
0
LINE
8
Layer 1
10
134.936000
20
531.442000
11
163.773000
21
508.047000
0
LINE
8
Layer 1
10
163.773000
20
508.047000
11
175.078000
21
554.119000
0
LINE
8
Layer 1
10
175.078000
20
554.119000
11
134.936000
21
531.442000
0
LINE
8
Layer 1
10
73.330600
20
324.743000
11
91.478500
21
219.202000
0
LINE
8
Layer 1
10
91.478500
20
219.202000
11
107.544000
21
272.753500
0
LINE
8
Layer 1
10
107.544000
20
272.753500
11
73.330600
21
324.743000
0
LINE
8
Layer 1
10
195.011000
20
525.953000
11
175.078000
21
554.119000
0
LINE
8
Layer 1
10
175.078000
20
554.119000
11
163.773000
21
508.047000
0
LINE
8
Layer 1
10
163.773000
20
508.047000
11
195.011000
21
525.953000
0
LINE
8
Layer 1
10
199.177000
20
561.710000
11
175.078800
21
554.118940
0
LINE
8
Layer 1
10
175.078800
20
554.118940
11
195.011800
21
525.953240
0
LINE
8
Layer 1
10
195.011800
20
525.953240
11
199.177000
21
561.710000
0
LINE
8
Layer 1
10
134.936000
20
531.442000
11
105.554000
21
518.422000
0
LINE
8
Layer 1
10
105.554000
20
518.422000
11
150.980000
21
485.101000
0
LINE
8
Layer 1
10
150.980000
20
485.101000
11
134.936000
21
531.442000
0
LINE
8
Layer 1
10
150.980000
20
485.102000
11
105.554000
21
518.422800
0
LINE
8
Layer 1
10
105.554000
20
518.422800
11
114.683870
21
464.127600
0
LINE
8
Layer 1
10
114.683870
20
464.127600
11
150.980000
21
485.102000
0
LINE
8
Layer 1
10
163.773000
20
508.047000
11
134.936300
21
531.442500
0
LINE
8
Layer 1
10
134.936300
20
531.442500
11
150.980200
21
485.101700
0
LINE
8
Layer 1
10
150.980200
20
485.101700
11
163.773000
21
508.047000
0
LINE
8
Layer 1
10
114.684000
20
464.127000
11
56.893100
21
431.921600
0
LINE
8
Layer 1
10
56.893100
20
431.921600
11
94.003500
21
415.781700
0
LINE
8
Layer 1
10
94.003500
20
415.781700
11
114.684000
21
464.127000
0
LINE
8
Layer 1
10
374.187000
20
55.201800
11
393.950000
21
34.673700
0
LINE
8
Layer 1
10
393.950000
20
34.673700
11
409.665000
21
79.523000
0
LINE
8
Layer 1
10
409.665000
20
79.523000
11
374.187000
21
55.201800
0
LINE
8
Layer 1
10
352.282000
20
28.875800
11
393.949000
21
34.672300
0
LINE
8
Layer 1
10
393.949000
20
34.672300
11
374.186000
21
55.200400
0
LINE
8
Layer 1
10
374.186000
20
55.200400
11
352.282000
21
28.875800
0
LINE
8
Layer 1
10
107.544000
20
272.755000
11
91.478500
21
219.203500
0
LINE
8
Layer 1
10
91.478500
20
219.203500
11
146.815100
21
254.383800
0
LINE
8
Layer 1
10
146.815100
20
254.383800
11
107.544000
21
272.755000
0
LINE
8
Layer 1
10
286.822000
20
553.231000
11
290.511000
21
587.147000
0
LINE
8
Layer 1
10
290.511000
20
587.147000
11
271.071000
21
570.563000
0
LINE
8
Layer 1
10
271.071000
20
570.563000
11
286.822000
21
553.231000
0
LINE
8
Layer 1
10
256.559000
20
48.060700
11
283.818000
21
27.086300
0
LINE
8
Layer 1
10
283.818000
20
27.086300
11
317.370000
21
64.616900
0
LINE
8
Layer 1
10
317.370000
20
64.616900
11
256.559000
21
48.060700
0
LINE
8
Layer 1
10
326.213000
20
29.764800
11
352.282000
21
28.877200
0
LINE
8
Layer 1
10
352.282000
20
28.877200
11
317.370000
21
64.617800
0
LINE
8
Layer 1
10
317.370000
20
64.617800
11
326.213000
21
29.764800
0
LINE
8
Layer 1
10
393.949000
20
34.672800
11
428.742000
21
45.903800
0
LINE
8
Layer 1
10
428.742000
20
45.903800
11
409.664000
21
79.522000
0
LINE
8
Layer 1
10
409.664000
20
79.522000
11
393.949000
21
34.672800
0
LINE
8
Layer 1
10
458.827000
20
58.845100
11
474.148800
21
91.794100
0
LINE
8
Layer 1
10
474.148800
20
91.794100
11
442.177300
21
99.848000
0
LINE
8
Layer 1
10
442.177300
20
99.848000
11
458.827000
21
58.845100
0
LINE
8
Layer 1
10
428.741000
20
45.904300
11
458.827000
21
58.845900
0
LINE
8
Layer 1
10
458.827000
20
58.845900
11
442.177000
21
99.848800
0
LINE
8
Layer 1
10
442.177000
20
99.848800
11
428.741000
21
45.904300
0
LINE
8
Layer 1
10
409.665000
20
79.522300
11
428.743000
21
45.903700
0
LINE
8
Layer 1
10
428.743000
20
45.903700
11
442.178000
21
99.848600
0
LINE
8
Layer 1
10
442.178000
20
99.848600
11
409.665000
21
79.522300
0
LINE
8
Layer 1
10
317.370000
20
64.618300
11
352.282200
21
28.877400
0
LINE
8
Layer 1
10
352.282200
20
28.877400
11
374.186500
21
55.202300
0
LINE
8
Layer 1
10
374.186500
20
55.202300
11
317.370000
21
64.618300
0
LINE
8
Layer 1
10
82.404500
20
176.511000
11
164.721000
21
119.799000
0
LINE
8
Layer 1
10
164.721000
20
119.799000
11
158.431000
21
178.420000
0
LINE
8
Layer 1
10
158.431000
20
178.420000
11
82.404500
21
176.511000
0
LINE
8
Layer 1
10
158.431000
20
178.421000
11
164.721370
21
119.799300
0
LINE
8
Layer 1
10
164.721370
20
119.799300
11
238.001570
21
130.174800
0
LINE
8
Layer 1
10
238.001570
20
130.174800
11
158.431000
21
178.421000
0
LINE
8
Layer 1
10
91.478600
20
219.204000
11
82.404470
21
176.511600
0
LINE
8
Layer 1
10
82.404470
20
176.511600
11
158.431070
21
178.420480
0
LINE
8
Layer 1
10
158.431070
20
178.420480
11
91.478600
21
219.204000
0
LINE
8
Layer 1
10
256.596000
20
24.856700
11
283.818000
21
27.088000
0
LINE
8
Layer 1
10
283.818000
20
27.088000
11
256.559000
21
48.062400
0
LINE
8
Layer 1
10
256.559000
20
48.062400
11
256.596000
21
24.856700
0
LINE
8
Layer 1
10
146.815000
20
254.383000
11
91.478400
21
219.203000
0
LINE
8
Layer 1
10
91.478400
20
219.203000
11
158.431000
21
178.419000
0
LINE
8
Layer 1
10
158.431000
20
178.419000
11
146.815000
21
254.383000
0
LINE
8
Layer 1
10
164.721000
20
119.797000
11
195.625000
21
69.629600
0
LINE
8
Layer 1
10
195.625000
20
69.629600
11
238.001000
21
130.173000
0
LINE
8
Layer 1
10
238.001000
20
130.173000
11
164.721000
21
119.797000
0
LINE
8
Layer 1
10
225.401000
20
34.672800
11
256.595000
21
24.855000
0
LINE
8
Layer 1
10
256.595000
20
24.855000
11
256.558000
21
48.060700
0
LINE
8
Layer 1
10
256.558000
20
48.060700
11
225.401000
21
34.672800
0
LINE
8
Layer 1
10
195.625000
20
69.629500
11
225.401500
21
34.672100
0
LINE
8
Layer 1
10
225.401500
20
34.672100
11
256.558400
21
48.060000
0
LINE
8
Layer 1
10
256.558400
20
48.060000
11
195.625000
21
69.629500
0
LINE
8
Layer 1
10
317.370000
20
64.618300
11
195.625000
21
69.631260
0
LINE
8
Layer 1
10
195.625000
20
69.631260
11
256.558800
21
48.062160
0
LINE
8
Layer 1
10
256.558800
20
48.062160
11
317.370000
21
64.618300
0
LINE
8
Layer 1
10
429.747000
20
464.127000
11
451.019000
21
455.425000
0
LINE
8
Layer 1
10
451.019000
20
455.425000
11
438.258000
21
479.746000
0
LINE
8
Layer 1
10
438.258000
20
479.746000
11
429.747000
21
464.127000
0
LINE
8
Layer 1
10
431.755000
20
520.059000
11
460.223000
21
500.572000
0
LINE
8
Layer 1
10
460.223000
20
500.572000
11
459.855000
21
527.229000
0
LINE
8
Layer 1
10
459.855000
20
527.229000
11
431.755000
21
520.059000
0
LINE
8
Layer 1
10
460.222000
20
500.572000
11
478.008000
21
528.240000
0
LINE
8
Layer 1
10
478.008000
20
528.240000
11
459.854000
21
527.229000
0
LINE
8
Layer 1
10
459.854000
20
527.229000
11
460.222000
21
500.572000
0
LINE
8
Layer 1
10
415.131000
20
499.679000
11
460.222000
21
500.572000
0
LINE
8
Layer 1
10
460.222000
20
500.572000
11
431.754000
21
520.058000
0
LINE
8
Layer 1
10
431.754000
20
520.058000
11
415.131000
21
499.679000
0
LINE
8
Layer 1
10
451.017000
20
455.425000
11
460.221000
21
500.572000
0
LINE
8
Layer 1
10
460.221000
20
500.572000
11
438.256000
21
479.747000
0
LINE
8
Layer 1
10
438.256000
20
479.747000
11
451.017000
21
455.425000
0
LINE
8
Layer 1
10
438.256000
20
479.746000
11
460.221000
21
500.571000
0
LINE
8
Layer 1
10
460.221000
20
500.571000
11
415.130000
21
499.679000
0
LINE
8
Layer 1
10
415.130000
20
499.679000
11
438.256000
21
479.746000
0
LINE
8
Layer 1
10
459.854000
20
527.229000
11
452.314000
21
549.661000
0
LINE
8
Layer 1
10
452.314000
20
549.661000
11
425.330000
21
533.373000
0
LINE
8
Layer 1
10
425.330000
20
533.373000
11
459.854000
21
527.229000
0
LINE
8
Layer 1
10
423.714000
20
550.286000
11
401.853000
21
545.199000
0
LINE
8
Layer 1
10
401.853000
20
545.199000
11
425.329000
21
533.373000
0
LINE
8
Layer 1
10
425.329000
20
533.373000
11
423.714000
21
550.286000
0
LINE
8
Layer 1
10
452.313000
20
549.110000
11
452.058000
21
549.110000
0
LINE
8
Layer 1
10
452.058000
20
549.110000
11
452.313000
21
549.110000
0
LINE
8
Layer 1
10
452.313000
20
549.110000
11
423.713700
21
550.009934
0
LINE
8
Layer 1
10
423.713700
20
550.009934
11
425.328710
21
532.959134
0
LINE
8
Layer 1
10
425.328710
20
532.959134
11
452.313000
21
549.110000
0
LINE
8
Layer 1
10
425.328000
20
533.372000
11
401.853000
21
545.198000
0
LINE
8
Layer 1
10
401.853000
20
545.198000
11
386.568000
21
516.414000
0
LINE
8
Layer 1
10
386.568000
20
516.414000
11
425.328000
21
533.372000
0
LINE
8
Layer 1
10
478.007000
20
528.240000
11
452.314000
21
549.661000
0
LINE
8
Layer 1
10
452.314000
20
549.661000
11
459.853000
21
527.229000
0
LINE
8
Layer 1
10
459.853000
20
527.229000
11
478.007000
21
528.240000
0
LINE
8
Layer 1
10
442.177000
20
99.850200
11
474.148000
21
91.796300
0
LINE
8
Layer 1
10
474.148000
20
91.796300
11
441.189000
21
133.634000
0
LINE
8
Layer 1
10
441.189000
20
133.634000
11
442.177000
21
99.850200
0
LINE
8
Layer 1
10
464.108000
20
339.917000
11
481.797000
21
358.660000
0
LINE
8
Layer 1
10
481.797000
20
358.660000
11
444.919000
21
364.685000
0
LINE
8
Layer 1
10
444.919000
20
364.685000
11
464.108000
21
339.917000
0
LINE
8
Layer 1
10
479.946000
20
334.464000
11
481.798000
21
358.660000
0
LINE
8
Layer 1
10
481.798000
20
358.660000
11
464.108000
21
339.917000
0
LINE
8
Layer 1
10
464.108000
20
339.917000
11
479.946000
21
334.464000
0
LINE
8
Layer 1
10
481.798000
20
358.660000
11
473.480220
21
384.989500
0
LINE
8
Layer 1
10
473.480220
20
384.989500
11
444.919420
21
364.684700
0
LINE
8
Layer 1
10
444.919420
20
364.684700
11
481.798000
21
358.660000
0
LINE
8
Layer 1
10
467.233000
20
319.388000
11
479.947000
21
334.463000
0
LINE
8
Layer 1
10
479.947000
20
334.463000
11
464.109000
21
339.916000
0
LINE
8
Layer 1
10
464.109000
20
339.916000
11
467.233000
21
319.388000
0
LINE
8
Layer 1
10
473.480000
20
384.989000
11
451.018000
21
455.424100
0
LINE
8
Layer 1
10
451.018000
20
455.424100
11
421.602000
21
420.727100
0
LINE
8
Layer 1
10
421.602000
20
420.727100
11
473.480000
21
384.989000
0
LINE
8
Layer 1
10
364.146000
20
428.129000
11
451.018000
21
455.425000
0
LINE
8
Layer 1
10
451.018000
20
455.425000
11
386.608000
21
447.690000
0
LINE
8
Layer 1
10
386.608000
20
447.690000
11
364.146000
21
428.129000
0
LINE
8
Layer 1
10
444.918000
20
364.685000
11
473.479000
21
384.990000
0
LINE
8
Layer 1
10
473.479000
20
384.990000
11
421.601000
21
420.728000
0
LINE
8
Layer 1
10
421.601000
20
420.728000
11
444.918000
21
364.685000
0
LINE
8
Layer 1
10
421.600000
20
420.729000
11
451.016000
21
455.426000
0
LINE
8
Layer 1
10
451.016000
20
455.426000
11
364.144000
21
428.130000
0
LINE
8
Layer 1
10
364.144000
20
428.130000
11
421.600000
21
420.729000
0
LINE
8
Layer 1
10
386.607000
20
447.690000
11
451.018000
21
455.425000
0
LINE
8
Layer 1
10
451.018000
20
455.425000
11
429.746000
21
464.127000
0
LINE
8
Layer 1
10
429.746000
20
464.127000
11
386.607000
21
447.690000
0
LINE
8
Layer 1
10
286.822000
20
553.231000
11
271.071000
21
570.563000
0
LINE
8
Layer 1
10
271.071000
20
570.563000
11
286.718000
21
526.622000
0
LINE
8
Layer 1
10
286.718000
20
526.622000
11
286.822000
21
553.231000
0
LINE
8
Layer 1
10
313.716000
20
505.927000
11
314.041000
21
530.825000
0
LINE
8
Layer 1
10
314.041000
20
530.825000
11
286.717000
21
526.622000
0
LINE
8
Layer 1
10
286.717000
20
526.622000
11
313.716000
21
505.927000
0
LINE
8
Layer 1
10
320.077000
20
577.431000
11
314.043000
21
530.825000
0
LINE
8
Layer 1
10
314.043000
20
530.825000
11
321.870000
21
521.295000
0
LINE
8
Layer 1
10
321.870000
20
521.295000
11
320.077000
21
577.431000
0
LINE
8
Layer 1
10
321.871000
20
521.295000
11
314.044290
21
530.824570
0
LINE
8
Layer 1
10
314.044290
20
530.824570
11
313.718677
21
505.926970
0
LINE
8
Layer 1
10
313.718677
20
505.926970
11
321.871000
21
521.295000
0
LINE
8
Layer 1
10
329.726000
20
558.586000
11
320.075000
21
577.431000
0
LINE
8
Layer 1
10
320.075000
20
577.431000
11
327.104000
21
538.058000
0
LINE
8
Layer 1
10
327.104000
20
538.058000
11
329.726000
21
558.586000
0
LINE
8
Layer 1
10
327.104000
20
538.058000
11
320.075270
21
577.431400
0
LINE
8
Layer 1
10
320.075270
20
577.431400
11
321.868440
21
521.295400
0
LINE
8
Layer 1
10
321.868440
20
521.295400
11
327.104000
21
538.058000
0
LINE
8
Layer 1
10
314.042000
20
530.825000
11
286.821700
21
553.230900
0
LINE
8
Layer 1
10
286.821700
20
553.230900
11
286.717631
21
526.622700
0
LINE
8
Layer 1
10
286.717631
20
526.622700
11
314.042000
21
530.825000
0
LINE
8
Layer 1
10
271.071000
20
570.563000
11
241.720000
21
554.421000
0
LINE
8
Layer 1
10
241.720000
20
554.421000
11
255.820500
21
542.919800
0
LINE
8
Layer 1
10
255.820500
20
542.919800
11
271.071000
21
570.563000
0
LINE
8
Layer 1
10
286.718000
20
526.622000
11
271.071000
21
570.563000
0
LINE
8
Layer 1
10
271.071000
20
570.563000
11
255.820000
21
542.920000
0
LINE
8
Layer 1
10
255.820000
20
542.920000
11
286.718000
21
526.622000
0
LINE
8
Layer 1
10
325.210000
20
580.899000
11
320.078000
21
577.431000
0
LINE
8
Layer 1
10
320.078000
20
577.431000
11
329.728000
21
558.586000
0
LINE
8
Layer 1
10
329.728000
20
558.586000
11
325.210000
21
580.899000
0
LINE
8
Layer 1
10
255.821000
20
542.920000
11
241.720000
21
554.421000
0
LINE
8
Layer 1
10
241.720000
20
554.421000
11
195.011000
21
525.953000
0
LINE
8
Layer 1
10
195.011000
20
525.953000
11
255.821000
21
542.920000
0
LINE
8
Layer 1
10
386.569000
20
516.414000
11
401.853000
21
545.198000
0
LINE
8
Layer 1
10
401.853000
20
545.198000
11
370.966000
21
528.240000
0
LINE
8
Layer 1
10
370.966000
20
528.240000
11
386.569000
21
516.414000
0
LINE
8
Layer 1
10
378.426000
20
548.322000
11
381.550000
21
564.834000
0
LINE
8
Layer 1
10
381.550000
20
564.834000
11
361.914000
21
552.041000
0
LINE
8
Layer 1
10
361.914000
20
552.041000
11
378.426000
21
548.322000
0
LINE
8
Layer 1
10
370.967000
20
528.240000
11
378.426000
21
548.322000
0
LINE
8
Layer 1
10
378.426000
20
548.322000
11
358.344000
21
533.372000
0
LINE
8
Layer 1
10
358.344000
20
533.372000
11
370.967000
21
528.240000
0
LINE
8
Layer 1
10
358.344000
20
533.372000
11
378.426000
21
548.322000
0
LINE
8
Layer 1
10
378.426000
20
548.322000
11
361.914000
21
552.041000
0
LINE
8
Layer 1
10
361.914000
20
552.041000
11
358.344000
21
533.372000
0
LINE
8
Layer 1
10
401.854000
20
545.198000
11
378.425000
21
548.322000
0
LINE
8
Layer 1
10
378.425000
20
548.322000
11
370.966000
21
528.240000
0
LINE
8
Layer 1
10
370.966000
20
528.240000
11
401.854000
21
545.198000
0
LINE
8
Layer 1
10
334.245000
20
564.834000
11
325.208260
21
580.899500
0
LINE
8
Layer 1
10
325.208260
20
580.899500
11
329.726630
21
558.586400
0
LINE
8
Layer 1
10
329.726630
20
558.586400
11
334.245000
21
564.834000
0
LINE
8
Layer 1
10
333.917000
20
542.213000
11
333.917000
21
564.833000
0
LINE
8
Layer 1
10
333.917000
20
564.833000
11
329.399000
21
558.586000
0
LINE
8
Layer 1
10
329.399000
20
558.586000
11
333.917000
21
542.213000
0
LINE
8
Layer 1
10
381.550000
20
564.834000
11
365.485000
21
562.156000
0
LINE
8
Layer 1
10
365.485000
20
562.156000
11
361.914000
21
552.041000
0
LINE
8
Layer 1
10
361.914000
20
552.041000
11
381.550000
21
564.834000
0
LINE
8
Layer 1
10
334.304000
20
541.405000
11
365.237300
21
562.156400
0
LINE
8
Layer 1
10
365.237300
20
562.156400
11
333.916700
21
564.833980
0
LINE
8
Layer 1
10
333.916700
20
564.833980
11
333.917000
21
542.214000
0
LINE
8
Layer 1
10
333.917000
20
542.214000
11
334.304000
21
541.405000
0
LINE
8
Layer 1
10
361.913000
20
552.041000
11
365.483000
21
562.156000
0
LINE
8
Layer 1
10
365.483000
20
562.156000
11
334.468000
21
541.405000
0
LINE
8
Layer 1
10
334.468000
20
541.405000
11
361.913000
21
552.041000
0
LINE
8
Layer 1
10
283.819000
20
27.087200
11
326.214000
21
29.764800
0
LINE
8
Layer 1
10
326.214000
20
29.764800
11
317.371000
21
64.617700
0
LINE
8
Layer 1
10
317.371000
20
64.617700
11
283.819000
21
27.087200
0
LINE
8
Layer 1
10
391.366000
20
583.186000
11
373.565200
21
585.250100
0
LINE
8
Layer 1
10
373.565200
20
585.250100
11
355.888300
21
571.676300
0
LINE
8
Layer 1
10
355.888300
20
571.676300
11
391.366000
21
583.186000
0
LINE
8
Layer 1
10
365.485000
20
562.156000
11
391.368000
21
583.186000
0
LINE
8
Layer 1
10
391.368000
20
583.186000
11
355.891000
21
571.676000
0
LINE
8
Layer 1
10
355.891000
20
571.676000
11
365.485000
21
562.156000
0
LINE
8
Layer 1
10
404.032000
20
581.154000
11
391.366600
21
583.186000
0
LINE
8
Layer 1
10
391.366600
20
583.186000
11
381.548820
21
564.833500
0
LINE
8
Layer 1
10
381.548820
20
564.833500
11
404.032000
21
581.154000
0
LINE
8
Layer 1
10
381.550000
20
564.834000
11
391.368000
21
583.187000
0
LINE
8
Layer 1
10
391.368000
20
583.187000
11
365.485000
21
562.156000
0
LINE
8
Layer 1
10
365.485000
20
562.156000
11
381.550000
21
564.834000
0
LINE
8
Layer 1
10
373.565000
20
584.940000
11
354.772600
21
584.741034
0
LINE
8
Layer 1
10
354.772600
20
584.741034
11
331.567000
21
584.741000
0
LINE
8
Layer 1
10
331.567000
20
584.741000
11
355.888200
21
571.210900
0
LINE
8
Layer 1
10
355.888200
20
571.210900
11
373.565000
21
584.940000
0
LINE
8
Layer 1
10
325.210000
20
580.899000
11
330.007410
21
609.459800
0
LINE
8
Layer 1
10
330.007410
20
609.459800
11
318.850810
21
618.357190
0
LINE
8
Layer 1
10
318.850810
20
618.357190
11
325.210000
21
580.899000
0
LINE
8
Layer 1
10
414.351000
20
571.676000
11
404.034000
21
581.154000
0
LINE
8
Layer 1
10
404.034000
20
581.154000
11
381.551000
21
564.833000
0
LINE
8
Layer 1
10
381.551000
20
564.833000
11
414.351000
21
571.676000
0
LINE
8
Layer 1
10
331.568000
20
585.362000
11
330.006000
21
609.460000
0
LINE
8
Layer 1
10
330.006000
20
609.460000
11
325.209000
21
580.899000
0
LINE
8
Layer 1
10
325.209000
20
580.899000
11
331.568000
21
585.362000
0
LINE
8
Layer 1
10
355.888000
20
571.676000
11
331.566500
21
585.361300
0
LINE
8
Layer 1
10
331.566500
20
585.361300
11
334.244430
21
564.833200
0
LINE
8
Layer 1
10
334.244430
20
564.833200
11
355.888000
21
571.676000
0
LINE
8
Layer 1
10
436.245000
20
561.810000
11
435.992000
21
561.810000
0
LINE
8
Layer 1
10
435.992000
20
561.810000
11
436.245000
21
561.810000
0
LINE
8
Layer 1
10
436.245000
20
561.810000
11
414.348500
21
571.503250
0
LINE
8
Layer 1
10
414.348500
20
571.503250
11
423.713320
21
550.025850
0
LINE
8
Layer 1
10
423.713320
20
550.025850
11
436.245000
21
561.810000
0
LINE
8
Layer 1
10
456.523000
20
561.810000
11
436.248000
21
561.810000
0
LINE
8
Layer 1
10
436.248000
20
561.810000
11
452.315600
21
549.314600
0
LINE
8
Layer 1
10
452.315600
20
549.314600
11
456.523000
21
561.810000
0
LINE
8
Layer 1
10
510.223000
20
529.133000
11
482.461000
21
549.661000
0
LINE
8
Layer 1
10
482.461000
20
549.661000
11
478.008000
21
528.240000
0
LINE
8
Layer 1
10
478.008000
20
528.240000
11
510.223000
21
529.133000
0
LINE
8
Layer 1
10
482.404000
20
549.110000
11
452.313000
21
549.110000
0
LINE
8
Layer 1
10
452.313000
20
549.110000
11
478.007000
21
527.965000
0
LINE
8
Layer 1
10
478.007000
20
527.965000
11
482.459000
21
549.523000
0
LINE
8
Layer 1
10
482.459000
20
549.523000
11
456.521000
21
561.812000
0
LINE
8
Layer 1
10
456.521000
20
561.812000
11
452.313000
21
549.110000
0
LINE
8
Layer 1
10
452.313000
20
549.110000
11
482.404000
21
549.110000
0
LINE
8
Layer 1
10
460.222000
20
500.572000
11
510.222000
21
529.133000
0
LINE
8
Layer 1
10
510.222000
20
529.133000
11
478.008000
21
528.240000
0
LINE
8
Layer 1
10
478.008000
20
528.240000
11
460.222000
21
500.572000
0
LINE
8
Layer 1
10
378.426000
20
548.322000
11
414.350000
21
571.677000
0
LINE
8
Layer 1
10
414.350000
20
571.677000
11
381.550000
21
564.834000
0
LINE
8
Layer 1
10
381.550000
20
564.834000
11
378.426000
21
548.322000
0
LINE
8
Layer 1
10
401.854000
20
545.198000
11
414.349000
21
571.676000
0
LINE
8
Layer 1
10
414.349000
20
571.676000
11
378.425000
21
548.322000
0
LINE
8
Layer 1
10
378.425000
20
548.322000
11
401.854000
21
545.198000
0
LINE
8
Layer 1
10
423.714000
20
550.286000
11
414.348830
21
571.677000
0
LINE
8
Layer 1
10
414.348830
20
571.677000
11
401.853430
21
545.198600
0
LINE
8
Layer 1
10
401.853430
20
545.198600
11
423.714000
21
550.286000
0
LINE
8
Layer 1
10
452.313000
20
549.661000
11
436.245000
21
562.156000
0
LINE
8
Layer 1
10
436.245000
20
562.156000
11
423.714000
21
550.286000
0
LINE
8
Layer 1
10
423.714000
20
550.286000
11
452.313000
21
549.661000
0
LINE
8
Layer 1
10
512.249000
20
479.746000
11
510.222000
21
529.132000
0
LINE
8
Layer 1
10
510.222000
20
529.132000
11
460.222000
21
500.571000
0
LINE
8
Layer 1
10
460.222000
20
500.571000
11
512.249000
21
479.746000
0
LINE
8
Layer 1
10
330.007000
20
609.460000
11
327.106000
21
633.558000
0
LINE
8
Layer 1
10
327.106000
20
633.558000
11
318.850000
21
618.357000
0
LINE
8
Layer 1
10
318.850000
20
618.357000
11
330.007000
21
609.460000
0
LINE
8
Layer 1
10
318.849000
20
618.357000
11
327.105000
21
633.558000
0
LINE
8
Layer 1
10
327.105000
20
633.558000
11
314.721000
21
640.921000
0
LINE
8
Layer 1
10
314.721000
20
640.921000
11
318.849000
21
618.357000
0
LINE
8
Layer 1
10
297.876000
20
635.120000
11
304.123680
21
612.137600
0
LINE
8
Layer 1
10
304.123680
20
612.137600
11
309.367360
21
614.591870
0
LINE
8
Layer 1
10
309.367360
20
614.591870
11
297.876000
21
635.120000
0
LINE
8
Layer 1
10
300.106000
20
647.058000
11
297.874690
21
635.120400
0
LINE
8
Layer 1
10
297.874690
20
635.120400
11
304.122370
21
635.789971
0
LINE
8
Layer 1
10
304.122370
20
635.789971
11
300.106000
21
647.058000
0
LINE
8
Layer 1
10
309.367000
20
614.592000
11
304.123320
21
612.137380
0
LINE
8
Layer 1
10
304.123320
20
612.137380
11
320.077320
21
577.431180
0
LINE
8
Layer 1
10
320.077320
20
577.431180
11
309.367000
21
614.592000
0
LINE
8
Layer 1
10
291.515000
20
640.922000
11
297.874160
21
635.120580
0
LINE
8
Layer 1
10
297.874160
20
635.120580
11
300.105470
21
647.058180
0
LINE
8
Layer 1
10
300.105470
20
647.058180
11
291.515000
21
640.922000
0
LINE
8
Layer 1
10
309.327000
20
586.879000
11
290.513000
21
587.147000
0
LINE
8
Layer 1
10
290.513000
20
587.147000
11
286.823000
21
553.231000
0
LINE
8
Layer 1
10
286.823000
20
553.231000
11
309.327000
21
586.879000
0
LINE
8
Layer 1
10
288.727000
20
653.194000
11
291.516050
21
640.921900
0
LINE
8
Layer 1
10
291.516050
20
640.921900
11
300.106880
21
647.057750
0
LINE
8
Layer 1
10
300.106880
20
647.057750
11
288.727000
21
653.194000
0
LINE
8
Layer 1
10
304.123000
20
612.138000
11
309.326000
21
586.880000
0
LINE
8
Layer 1
10
309.326000
20
586.880000
11
320.077000
21
577.432000
0
LINE
8
Layer 1
10
320.077000
20
577.432000
11
304.123000
21
612.138000
0
LINE
8
Layer 1
10
314.042000
20
530.825000
11
312.266000
21
554.421000
0
LINE
8
Layer 1
10
312.266000
20
554.421000
11
309.325000
21
586.879000
0
LINE
8
Layer 1
10
309.325000
20
586.879000
11
286.822000
21
553.231000
0
LINE
8
Layer 1
10
286.822000
20
553.231000
11
314.042000
21
530.825000
0
LINE
8
Layer 1
10
314.042000
20
530.825000
11
320.076000
21
577.431000
0
LINE
8
Layer 1
10
320.076000
20
577.431000
11
309.325000
21
586.879000
0
LINE
8
Layer 1
10
309.325000
20
586.879000
11
312.266000
21
554.421000
0
LINE
8
Layer 1
10
312.266000
20
554.421000
11
314.042000
21
530.825000
0
LINE
8
Layer 1
10
304.123000
20
635.789000
11
297.875320
21
635.119429
0
LINE
8
Layer 1
10
297.875320
20
635.119429
11
309.366720
21
614.591329
0
LINE
8
Layer 1
10
309.366720
20
614.591329
11
304.123000
21
635.789000
0
LINE
8
Layer 1
10
297.876000
20
657.656000
11
288.728000
21
653.193000
0
LINE
8
Layer 1
10
288.728000
20
653.193000
11
300.107000
21
647.057000
0
LINE
8
Layer 1
10
300.107000
20
647.057000
11
297.876000
21
657.656000
0
LINE
8
Layer 1
10
314.722000
20
640.922000
11
323.312000
21
656.541000
0
LINE
8
Layer 1
10
323.312000
20
656.541000
11
307.693000
21
653.122000
0
LINE
8
Layer 1
10
307.693000
20
653.122000
11
314.722000
21
640.922000
0
LINE
8
Layer 1
10
316.730000
20
682.759000
11
306.028900
21
682.488773
0
LINE
8
Layer 1
10
306.028900
20
682.488773
11
306.019728
21
682.479954
0
LINE
8
Layer 1
10
306.019728
20
682.479954
11
307.693298
21
653.122254
0
LINE
8
Layer 1
10
307.693298
20
653.122254
11
316.730000
21
682.759000
0
LINE
8
Layer 1
10
327.104000
20
633.558000
11
323.311000
21
656.541000
0
LINE
8
Layer 1
10
323.311000
20
656.541000
11
314.720000
21
640.922000
0
LINE
8
Layer 1
10
314.720000
20
640.922000
11
327.104000
21
633.558000
0
LINE
8
Layer 1
10
323.313000
20
656.541000
11
316.731000
21
682.759000
0
LINE
8
Layer 1
10
316.731000
20
682.759000
11
307.694000
21
653.122000
0
LINE
8
Layer 1
10
307.694000
20
653.122000
11
323.313000
21
656.541000
0
LINE
8
Layer 1
10
306.020000
20
682.480000
11
294.082000
21
673.276000
0
LINE
8
Layer 1
10
294.082000
20
673.276000
11
307.694000
21
653.122000
0
LINE
8
Layer 1
10
307.694000
20
653.122000
11
306.020000
21
682.480000
0
LINE
8
Layer 1
10
288.875000
20
665.987000
11
288.726128
21
653.194200
0
LINE
8
Layer 1
10
288.726128
20
653.194200
11
297.874698
21
657.656830
0
LINE
8
Layer 1
10
297.874698
20
657.656830
11
288.875000
21
665.987000
0
LINE
8
Layer 1
10
294.082000
20
673.276000
11
288.876000
21
665.987000
0
LINE
8
Layer 1
10
288.876000
20
665.987000
11
297.875000
21
657.657000
0
LINE
8
Layer 1
10
297.875000
20
657.657000
11
294.082000
21
673.276000
0
LINE
8
Layer 1
10
307.692000
20
653.122000
11
294.081000
21
673.276000
0
LINE
8
Layer 1
10
294.081000
20
673.276000
11
297.874000
21
657.657000
0
LINE
8
Layer 1
10
297.874000
20
657.657000
11
307.692000
21
653.122000
0
LINE
8
Layer 1
10
488.058000
20
283.688000
11
498.879800
21
300.943400
0
LINE
8
Layer 1
10
498.879800
20
300.943400
11
480.025300
21
303.620980
0
LINE
8
Layer 1
10
480.025300
20
303.620980
11
488.058000
21
283.688000
0
LINE
8
Layer 1
10
536.848000
20
132.405000
11
544.365000
21
160.740000
0
LINE
8
Layer 1
10
544.365000
20
160.740000
11
523.795000
21
138.950000
0
LINE
8
Layer 1
10
523.795000
20
138.950000
11
536.848000
21
132.405000
0
LINE
8
Layer 1
10
499.957000
20
163.644000
11
525.245000
21
171.826000
0
LINE
8
Layer 1
10
525.245000
20
171.826000
11
512.862000
21
179.709000
0
LINE
8
Layer 1
10
512.862000
20
179.709000
11
499.957000
21
163.644000
0
LINE
8
Layer 1
10
544.367000
20
160.739000
11
525.247000
21
171.824000
0
LINE
8
Layer 1
10
525.247000
20
171.824000
11
523.797000
21
138.949000
0
LINE
8
Layer 1
10
523.797000
20
138.949000
11
544.367000
21
160.739000
0
LINE
8
Layer 1
10
523.796000
20
138.950000
11
525.246000
21
171.825000
0
LINE
8
Layer 1
10
525.246000
20
171.825000
11
505.611000
21
150.925000
0
LINE
8
Layer 1
10
505.611000
20
150.925000
11
523.796000
21
138.950000
0
LINE
8
Layer 1
10
525.246000
20
171.825000
11
517.604000
21
200.683000
0
LINE
8
Layer 1
10
517.604000
20
200.683000
11
512.862000
21
179.709000
0
LINE
8
Layer 1
10
512.862000
20
179.709000
11
525.246000
21
171.825000
0
LINE
8
Layer 1
10
505.611000
20
150.925000
11
525.247000
21
171.825000
0
LINE
8
Layer 1
10
525.247000
20
171.825000
11
499.958000
21
163.643000
0
LINE
8
Layer 1
10
499.958000
20
163.643000
11
505.611000
21
150.925000
0
LINE
8
Layer 1
10
500.065000
20
233.706000
11
495.829000
21
248.911000
0
LINE
8
Layer 1
10
495.829000
20
248.911000
11
490.565000
21
224.016000
0
LINE
8
Layer 1
10
490.565000
20
224.016000
11
500.065000
21
233.706000
0
LINE
8
Layer 1
10
500.573000
20
211.393000
11
500.064000
21
233.706000
0
LINE
8
Layer 1
10
500.064000
20
233.706000
11
490.564000
21
224.016000
0
LINE
8
Layer 1
10
490.564000
20
224.016000
11
500.573000
21
211.393000
0
LINE
8
Layer 1
10
490.617000
20
205.146000
11
500.575000
21
211.394000
0
LINE
8
Layer 1
10
500.575000
20
211.394000
11
490.566000
21
224.016000
0
LINE
8
Layer 1
10
490.566000
20
224.016000
11
490.617000
21
205.146000
0
LINE
8
Layer 1
10
500.256000
20
196.219000
11
500.575000
21
211.392000
0
LINE
8
Layer 1
10
500.575000
20
211.392000
11
490.617000
21
205.144000
0
LINE
8
Layer 1
10
490.617000
20
205.144000
11
500.256000
21
196.219000
0
LINE
8
Layer 1
10
512.863000
20
179.709000
11
517.605000
21
200.683000
0
LINE
8
Layer 1
10
517.605000
20
200.683000
11
500.702000
21
196.667000
0
LINE
8
Layer 1
10
500.702000
20
196.667000
11
517.605000
21
200.683000
0
LINE
8
Layer 1
10
517.605000
20
200.683000
11
500.575000
21
211.394000
0
LINE
8
Layer 1
10
500.575000
20
211.394000
11
500.256000
21
196.221000
0
LINE
8
Layer 1
10
500.256000
20
196.221000
11
512.863000
21
179.709000
0
LINE
8
Layer 1
10
474.149000
20
91.796300
11
501.074000
21
95.589700
0
LINE
8
Layer 1
10
501.074000
20
95.589700
11
493.115000
21
114.109000
0
LINE
8
Layer 1
10
493.115000
20
114.109000
11
474.149000
21
91.796300
0
LINE
8
Layer 1
10
481.735000
20
114.138000
11
474.149000
21
91.378600
0
LINE
8
Layer 1
10
474.149000
20
91.378600
11
493.115000
21
114.138000
0
LINE
8
Layer 1
10
493.115000
20
114.138000
11
481.735000
21
114.138000
0
LINE
8
Layer 1
10
481.513000
20
113.783000
11
481.736000
21
113.783000
0
LINE
8
Layer 1
10
481.736000
20
113.783000
11
463.811000
21
125.325000
0
LINE
8
Layer 1
10
463.811000
20
125.325000
11
474.150000
21
91.551000
0
LINE
8
Layer 1
10
474.150000
20
91.551000
11
481.736000
21
113.783000
0
LINE
8
Layer 1
10
481.736000
20
113.783000
11
481.513000
21
113.783000
0
LINE
8
Layer 1
10
535.361000
20
122.141000
11
536.849000
21
132.405000
0
LINE
8
Layer 1
10
536.849000
20
132.405000
11
523.795000
21
138.950000
0
LINE
8
Layer 1
10
523.795000
20
138.950000
11
535.361000
21
122.141000
0
LINE
8
Layer 1
10
501.073000
20
95.587800
11
508.176000
21
109.050000
0
LINE
8
Layer 1
10
508.176000
20
109.050000
11
493.115000
21
114.108000
0
LINE
8
Layer 1
10
493.115000
20
114.108000
11
501.073000
21
95.587800
0
LINE
8
Layer 1
10
525.246000
20
111.579000
11
535.361200
21
122.140400
0
LINE
8
Layer 1
10
535.361200
20
122.140400
11
513.069200
21
125.742610
0
LINE
8
Layer 1
10
513.069200
20
125.742610
11
525.246000
21
111.579000
0
LINE
8
Layer 1
10
513.069000
20
125.742000
11
535.361000
21
122.140000
0
LINE
8
Layer 1
10
535.361000
20
122.140000
11
523.795000
21
138.949000
0
LINE
8
Layer 1
10
523.795000
20
138.949000
11
513.069000
21
125.742000
0
LINE
8
Layer 1
10
493.115000
20
114.109000
11
508.176000
21
109.051000
0
LINE
8
Layer 1
10
508.176000
20
109.051000
11
513.069000
21
125.744000
0
LINE
8
Layer 1
10
513.069000
20
125.744000
11
493.115000
21
114.109000
0
LINE
8
Layer 1
10
508.177000
20
109.050000
11
525.246000
21
111.579000
0
LINE
8
Layer 1
10
525.246000
20
111.579000
11
513.070000
21
125.742000
0
LINE
8
Layer 1
10
513.070000
20
125.742000
11
508.177000
21
109.050000
0
LINE
8
Layer 1
10
522.346000
20
411.487000
11
539.081000
21
423.852000
0
LINE
8
Layer 1
10
539.081000
20
423.852000
11
512.249000
21
479.747000
0
LINE
8
Layer 1
10
512.249000
20
479.747000
11
522.346000
21
411.487000
0
LINE
8
Layer 1
10
473.480000
20
384.989000
11
522.346000
21
411.485700
0
LINE
8
Layer 1
10
522.346000
20
411.485700
11
451.018000
21
455.424100
0
LINE
8
Layer 1
10
451.018000
20
455.424100
11
473.480000
21
384.989000
0
LINE
8
Layer 1
10
505.611000
20
369.148000
11
522.346000
21
411.487000
0
LINE
8
Layer 1
10
522.346000
20
411.487000
11
473.480000
21
384.990000
0
LINE
8
Layer 1
10
473.480000
20
384.990000
11
505.611000
21
369.148000
0
LINE
8
Layer 1
10
481.798000
20
358.660000
11
505.611200
21
369.147400
0
LINE
8
Layer 1
10
505.611200
20
369.147400
11
473.480300
21
384.989600
0
LINE
8
Layer 1
10
473.480300
20
384.989600
11
481.798000
21
358.660000
0
LINE
8
Layer 1
10
493.017000
20
347.852000
11
505.611000
21
369.149000
0
LINE
8
Layer 1
10
505.611000
20
369.149000
11
481.798000
21
358.661000
0
LINE
8
Layer 1
10
481.798000
20
358.661000
11
493.017000
21
347.852000
0
LINE
8
Layer 1
10
496.091000
20
339.917000
11
493.016900
21
347.850600
0
LINE
8
Layer 1
10
493.016900
20
347.850600
11
479.946500
21
334.464100
0
LINE
8
Layer 1
10
479.946500
20
334.464100
11
496.091000
21
339.917000
0
LINE
8
Layer 1
10
479.946000
20
334.464000
11
493.016000
21
347.850000
0
LINE
8
Layer 1
10
493.016000
20
347.850000
11
481.798000
21
358.660000
0
LINE
8
Layer 1
10
481.798000
20
358.660000
11
479.946000
21
334.464000
0
LINE
8
Layer 1
10
451.017000
20
455.425000
11
522.345000
21
411.487000
0
LINE
8
Layer 1
10
522.345000
20
411.487000
11
512.248000
21
479.747000
0
LINE
8
Layer 1
10
512.248000
20
479.747000
11
451.017000
21
455.425000
0
LINE
8
Layer 1
10
539.081000
20
423.851000
11
560.948000
21
443.635000
0
LINE
8
Layer 1
10
560.948000
20
443.635000
11
512.249000
21
479.745000
0
LINE
8
Layer 1
10
512.249000
20
479.745000
11
539.081000
21
423.851000
0
LINE
8
Layer 1
10
560.946000
20
443.637000
11
543.764700
21
492.763000
0
LINE
8
Layer 1
10
543.764700
20
492.763000
11
512.247600
21
479.746900
0
LINE
8
Layer 1
10
512.247600
20
479.746900
11
560.946000
21
443.637000
0
LINE
8
Layer 1
10
543.766000
20
492.762000
11
510.221800
21
529.132300
0
LINE
8
Layer 1
10
510.221800
20
529.132300
11
512.248500
21
479.746000
0
LINE
8
Layer 1
10
512.248500
20
479.746000
11
543.766000
21
492.762000
0
LINE
8
Layer 1
10
480.026000
20
303.622000
11
487.612000
21
327.088000
0
LINE
8
Layer 1
10
487.612000
20
327.088000
11
479.947000
21
334.465000
0
LINE
8
Layer 1
10
479.947000
20
334.465000
11
480.026000
21
303.622000
0
LINE
8
Layer 1
10
484.785000
20
259.889000
11
496.090000
21
271.641000
0
LINE
8
Layer 1
10
496.090000
20
271.641000
11
488.058000
21
283.690000
0
LINE
8
Layer 1
10
488.058000
20
283.690000
11
484.785000
21
259.889000
0
LINE
8
Layer 1
10
495.829000
20
248.911000
11
496.090000
21
271.639000
0
LINE
8
Layer 1
10
496.090000
20
271.639000
11
484.785000
21
259.887000
0
LINE
8
Layer 1
10
484.785000
20
259.887000
11
495.829000
21
248.911000
0
LINE
8
Layer 1
10
473.628000
20
238.391000
11
495.829000
21
248.910000
0
LINE
8
Layer 1
10
495.829000
20
248.910000
11
484.785000
21
259.886000
0
LINE
8
Layer 1
10
484.785000
20
259.886000
11
473.628000
21
238.391000
0
LINE
8
Layer 1
10
496.091000
20
271.639000
11
498.620000
21
286.663000
0
LINE
8
Layer 1
10
498.620000
20
286.663000
11
488.058000
21
283.688000
0
LINE
8
Layer 1
10
488.058000
20
283.688000
11
496.091000
21
271.639000
0
LINE
8
Layer 1
10
487.611000
20
327.088000
11
496.090000
21
339.918000
0
LINE
8
Layer 1
10
496.090000
20
339.918000
11
479.946000
21
334.465000
0
LINE
8
Layer 1
10
479.946000
20
334.465000
11
487.611000
21
327.088000
0
LINE
8
Layer 1
10
490.564000
20
224.017000
11
495.828000
21
248.912000
0
LINE
8
Layer 1
10
495.828000
20
248.912000
11
473.627000
21
238.393000
0
LINE
8
Layer 1
10
473.627000
20
238.393000
11
490.564000
21
224.017000
0
LINE
8
Layer 1
10
498.880000
20
300.944000
11
487.612000
21
327.088000
0
LINE
8
Layer 1
10
487.612000
20
327.088000
11
480.025000
21
303.622000
0
LINE
8
Layer 1
10
480.025000
20
303.622000
11
498.880000
21
300.944000
0
LINE
8
Layer 1
10
498.618000
20
286.665000
11
498.878000
21
300.945000
0
LINE
8
Layer 1
10
498.878000
20
300.945000
11
488.057000
21
283.690000
0
LINE
8
Layer 1
10
488.057000
20
283.690000
11
498.618000
21
286.665000
0
LINE
8
Layer 1
10
441.190000
20
133.632000
11
474.150000
21
91.794800
0
LINE
8
Layer 1
10
474.150000
20
91.794800
11
463.811000
21
125.488000
0
LINE
8
Layer 1
10
463.811000
20
125.488000
11
441.190000
21
133.632000
 0 
ENDSEC
 0 
EOF
